/* XPM */
static char *result[] = {
/* columns rows colors chars-per-pixel */
"64 64 247 2 ",
"   c #171B2F",
".  c #161E2E",
"X  c #1B1B2F",
"o  c #1D192F",
"O  c #1D1A2F",
"+  c #181E2F",
"@  c #191E2F",
"#  c #1B1E2F",
"$  c #1C1E2F",
"%  c #1A1530",
"&  c #1E1830",
"*  c #1F1931",
"=  c #1D1A30",
"-  c #1E1B30",
";  c #1E1B31",
":  c #1F1B31",
">  c #1B1C30",
",  c #1C1C30",
"<  c #1E1C31",
"1  c #1E1E30",
"2  c #261A31",
"3  c #201C31",
"4  c #201E30",
"5  c #211F30",
"6  c #3E1D35",
"7  c #3C1F34",
"8  c #203827",
"9  c #203927",
"0  c #273829",
"q  c #273A29",
"w  c #2A3C2B",
"e  c #3A332D",
"r  c #3C332E",
"t  c #313D2B",
"y  c #31382C",
"u  c #343B2C",
"i  c #292931",
"p  c #393E34",
"a  c #3A3F34",
"s  c #40322F",
"d  c #40342E",
"f  c #422235",
"g  c #432235",
"h  c #452235",
"j  c #462235",
"k  c #462335",
"l  c #482335",
"z  c #492336",
"x  c #4A2336",
"c  c #4C2337",
"v  c #4B2436",
"b  c #4E2736",
"n  c #492835",
"m  c #4C2936",
"M  c #4E2836",
"N  c #4F2836",
"B  c #4F2936",
"V  c #69263A",
"C  c #6A273A",
"Z  c #6C293A",
"A  c #6E293B",
"S  c #722D3B",
"D  c #742E3B",
"F  c #215D1A",
"G  c #235E1B",
"H  c #2B5A1E",
"J  c #2C5A1E",
"K  c #256F16",
"L  c #237414",
"P  c #257514",
"I  c #2F7217",
"U  c #2A7914",
"Y  c #337916",
"T  c #357B17",
"R  c #347319",
"E  c #357419",
"W  c #214024",
"Q  c #214324",
"!  c #214922",
"~  c #274A23",
"^  c #37422E",
"/  c #39432E",
"(  c #2F5223",
")  c #3B4632",
"_  c #3A4034",
"`  c #3E4535",
"'  c #3F4735",
"]  c #3F4832",
"[  c #3F4933",
"{  c #3E7D20",
"}  c #4A781B",
"|  c #517E1E",
" . c #537E1F",
".. c #42402C",
"X. c #4A5F2E",
"o. c #404734",
"O. c #404635",
"+. c #536C25",
"@. c #82263E",
"#. c #802D3B",
"$. c #85283E",
"%. c #86283E",
"&. c #86293E",
"*. c #87293E",
"=. c #822C3C",
"-. c #945337",
";. c #963940",
":. c #A02B42",
">. c #A22B42",
",. c #A32B42",
"<. c #A12C42",
"1. c #A22C42",
"2. c #A32C42",
"3. c #AE2D44",
"4. c #A73042",
"5. c #A73043",
"6. c #A93043",
"7. c #AF3043",
"8. c #B03144",
"9. c #B23144",
"0. c #B33144",
"q. c #B23244",
"w. c #B33244",
"e. c #B63244",
"r. c #B73344",
"t. c #B03943",
"y. c #B03A43",
"u. c #B33E43",
"i. c #B43E43",
"p. c #B13A44",
"a. c #B53F44",
"s. c #BE3E45",
"d. c #BF3E45",
"f. c #C42F47",
"g. c #CE3048",
"h. c #CF3048",
"j. c #D13D47",
"k. c #D03049",
"l. c #D23049",
"z. c #D33049",
"x. c #D43249",
"c. c #D23648",
"v. c #D43549",
"b. c #D63549",
"n. c #D63749",
"m. c #D83749",
"M. c #D9374A",
"N. c #D53A49",
"B. c #D63A49",
"V. c #D63B49",
"C. c #D13E48",
"Z. c #D23E48",
"A. c #D93B49",
"S. c #DA3C49",
"D. c #DD3C4A",
"F. c #DE3C4A",
"G. c #DD3F4A",
"H. c #B34043",
"J. c #C04045",
"K. c #C34145",
"L. c #C54147",
"P. c #D64148",
"I. c #D54248",
"U. c #D84248",
"Y. c #DB4649",
"T. c #DE444A",
"R. c #DF444A",
"E. c #DF454A",
"W. c #DE404C",
"Q. c #E14449",
"!. c #E24549",
"~. c #E1444A",
"^. c #E0454A",
"/. c #E2444A",
"(. c #E2454A",
"). c #E0464A",
"_. c #E1464A",
"`. c #E2464A",
"'. c #E3464A",
"]. c #E4464A",
"[. c #E6464B",
"{. c #E34849",
"}. c #E2484A",
"|. c #E3494A",
" X c #E44849",
".X c #E44949",
"XX c #E4494A",
"oX c #E6494A",
"OX c #E44A4A",
"+X c #E54A4A",
"@X c #E54B4A",
"#X c #E74B4A",
"$X c #E54D4C",
"%X c #E54E4C",
"&X c #E54E4D",
"*X c #E64E4C",
"=X c #E64E4D",
"-X c #E64F4D",
";X c #E94C4B",
":X c #ED504D",
">X c #E65252",
",X c #E65551",
"<X c #E75551",
"1X c #E65651",
"2X c #E75651",
"3X c #E75752",
"4X c #E95252",
"5X c #E85752",
"6X c #EA5652",
"7X c #EB5752",
"8X c #E75953",
"9X c #E75A54",
"0X c #EA5852",
"qX c #ED5852",
"wX c #E85B54",
"eX c #E95B54",
"rX c #EB5B55",
"tX c #EC5C55",
"yX c #EB6F61",
"uX c #EE6F61",
"iX c #EC7162",
"pX c #EF7162",
"aX c #EC7262",
"sX c #EE7262",
"dX c #EE7263",
"fX c #EE7C69",
"gX c #EE7D69",
"hX c #EE7D6A",
"jX c #EF7E6A",
"kX c #F17E6A",
"lX c #26840F",
"zX c #358A11",
"xX c #50861B",
"cX c #4F991C",
"vX c #549518",
"bX c #5B8B20",
"nX c #6B8D29",
"mX c #6B8F29",
"MX c #6E833B",
"NX c #6E843B",
"BX c #738A3C",
"VX c #719B35",
"CX c #7F9F37",
"ZX c #76A333",
"AX c #81A138",
"SX c #F29075",
"DX c None",
/* pixels */
"DXDXDXDXDXDXDXDXDXDXDXDXDXDXDXDXDXDXDXDXDXDXDXDXDXDXDXDXDXDXDXDXDXDXDXDXDXDXDXDXDXDXDXDXDXDXDXDXDXDXDXDXDXDXDXDXDXDXDXDXDXDXDXDX",
"DXDXDXDXDXDXDXDXDXDXDXDXDXDXDXDXDXDXDXDXDXDXDXDXDXDXDXDXDXDXDXDXDXDXDXDXDXDXDXDXDXDXDXDXDXDXDXDXDXDXDXDXDXDXDXDXDXDXDXDXDXDXDXDX",
"DXDXDXDXDXDXDXDXDXDXDXDXDXDXDXDXDXDXDXDXDXDXDXDXDXDXDXDXDXDXDXDXDXDXDXDXDXDXDXDXDXDXDXDXDXDXDXDXDXDXDXDXDXDXDXDXDXDXDXDXDXDXDXDX",
"DXDXDXDXDXDXDXDXDXDXDXDXDXDXDXDXDXDXDXDXDXDXDXDXDXDXDXDXDXDXDXDXDXDXDXDXDXDXDXDXDXDXDXDXDXDXDXDXDXDXDXDXDXDXDXDXDXDXDXDXDXDXDXDX",
"DXDXDXDXDXDXDXDXDXDXDXDXDXDXDXDXDXDXDXDXDXDXDXDXDXDXDXDXDXDXDXDXDXDXDXDXDXDXDXDXDXDXDXDXDXDXDXDXDXDXDXDXDXDXDXDXDXDXDXDXDXDXDXDX",
"DXDXDXDXDXDXDXDXDXDXDXDXDXDXDXDXDXDXDXDXDXDXDXDXDXDXDXDXDXDXDXDXDXDXDXDXDXDXDXDXDXDXDXDXDXDXDXDXDXDXDXDXDXDXDXDXDXDXDXDXDXDXDXDX",
"DXDXDXDXDXDXDXDXDXDXDXDXDXDXDXDXDXDXDXDXDXDXDXDXDXDXDXDXDXDXDXDXDXDXDXDXDXDXDXDXDXDXDXDXDXDXDXDXDXDXDXDXDXDXDXDXDXDXDXDXDXDXDXDX",
"DXDXDXDXDXDXDXDXDXDXDXDXDXDXDXDXDXDXDXDXDXDXDXDXDXDXDXDXDXDXDXDXDXDXDXDXDXDXDXDXDXDXDXDXDXDXDXDXDXDXDXDXDXDXDXDXDXDXDXDXDXDXDXDX",
"DXDXDXDXDXDXDXDXDXDXDXDXDXDXDXDXDXDXDXDXDXDXDXDXDXDXDXDXDXDXDXDXDXDXDXDXDXDXDXDXDXDXDXDXDXDXDXDXDXDXDXDXDXDXDXDXDXDXDXDXDXDXDXDX",
"DXDXDXDXDXDXDXDXDXDXDXDXDXDXDXDXDXDXDXDXDXDXDXDXDXDXDXDXDXDXDXDXDXDXDXDXDXDXDXDXDXDXDXDXDXDXDXDXDXDXDXDXDXDXDXDXDXDXDXDXDXDXDXDX",
"DXDXDXDXDXDXDXDXDXDXDXDXDXDXDXDXDXDXDXDXDXDXDXDXDXDXDXDXDXDXDXDXDXDXDXDXDXDXDXDXDXDXDXDXDXDXDXDXDXDXDXDXDXDXDXDXDXDXDXDXDXDXDXDX",
"DXDXDXDXDXDXDXDXDXDXDXDXDXDXDXDXDXDXDXDXDXDXDXDXDXDXDXDXDXDXDXDXDXDXDXDXDXDXDXDXDXDXDXDXDXDXDXDXDXDXDXDXDXDXDXDXDXDXDXDXDXDXDXDX",
"DXDXDXDXDXDXDXDXDXDXDXDXDXDXDXDXDXDXDXDXDXDXDXDXDXDXDXDXDXDXDXDXDXDXDXDXDXDXDXDXDXDXDXDXDXDXDXDXDXDXDXDXDXDXDXDXDXDXDXDXDXDXDXDX",
"DXDXDXDXDXDXDXDXDXDXDXDXDXDXDXDXDXDXDXDXDXDXDXDXDXDXDXDXDXDXDXDXDXDXDXDXDXDXDXDXDXDXDXDXDXDXDXDXDXDXDXDXDXDXDXDXDXDXDXDXDXDXDXDX",
"DXDXDXDXDXDXDXDXDXDXDXDXDXDXDXDXDXDXDXDXDXDXDXDXDXDX5 4 - o DXDXDXDXDXDXDXDXDXDXDXDXDXDXDXDXDXDXDXDXDXDXDXDXDXDXDXDXDXDXDXDXDXDX",
"DXDXDXDXDXDXDXDXDXDXDXDXDXDXDXDXDXDXDXDXDXDXDXDXDXDX4 i a O.DXDXDXDXDXDXDXDXDXDXDXDXDXDXDXDXDXDXDXDXDXDXDXDXDXDXDXDXDXDXDXDXDXDX",
"DXDXDXDXDXDXDXDXDXDXDXDXDXDXDXDXDXDXDXDXDXDXDXDXDXDX- _ MXBX` % DXDXDXDXDXDXDXDXDXDXDXDXDXDXDXDXDXDXDXDXDXDXDXDXDXDXDXDXDXDXDXDX",
"DXDXDXDXDXDXDXDXDXDXDXDXDXDXDXDXDXDXDXDXDXDXDXDXDXDX& ) VXZXX.y DXDXDXDXDXDXDXDXDXDXDXDXDXDXDXDXDXDXDXDXDXDXDXDXDXDXDXDXDXDXDXDX",
"DXDXDXDXDXDXDXDXDXDXDXDXDXDXDXDXDXDXDXDXDXDXO = - * * w { cXbX+.u ; DXDXDXDXDXDXDXDXDXDXDXDXDXDXDXDXDXDXDXDXDXDXDXDXDXDXDXDXDXDX",
"DXDXDXDXDXDXDXDXDXDXDXDXDXDXDXDXDXDXDXDXDXDXo.] / t 0 Q F Y vX .t : DXDXDXDXDXDXDXDXDXDXDXDXDXDXDXDXDXDXDXDXDXDXDXDXDXDXDXDXDXDX",
"DXDXDXDXDXDXDXDXDXDXDXDXDXDXDXDXDXDXDXDXo ' BXCXnX| R G W ~ T E q 3 DXDXDXDXDXDXDXDXDXDXDXDXDXDXDXDXDXDXDXDXDXDXDXDXDXDXDXDXDXDX",
"DXDXDXDXDXDXDXDXDXDXDXDXDXDXDXDXDXDXDXDX- p NXAXmXxXzXP ! ! P K 9 < DXDXDXDXDXDXDXDXDXDXDXDXDXDXDXDXDXDXDXDXDXDXDXDXDXDXDXDXDXDX",
"DXDXDXDXDXDXDXDXDXDXDXDXDXDXDXDXDXDXDXDX4 i _ [ ^ ( U lXL L lXK 8 , > # # # $ $ DXDXDXDXDXDXDXDXDXDXDXDXDXDXDXDXDXDXDXDXDXDXDXDX",
"DXDXDXDXDXDXDXDXDXDXDXDXDXDXDXDXDXDXDXDX5 1 X 2 6 s J I } } I H d c b B B M v h DXDXDXDXDXDXDXDXDXDXDXDXDXDXDXDXDXDXDXDXDXDXDXDX",
"DXDXDXDXDXDXDXDXDXDXDXDXDXDXDXDXDXDXDXDXDXDX  7 @.=.r ..-.-...e #.6.p.H.H.y.5.$.f . DXDXDXDXDXDXDXDXDXDXDXDXDXDXDXDXDXDXDXDXDXDX",
"DXDXDXDXDXDXDXDXDXDXDXDXDXDXDXDXDXDXDXDXDXDXn S r.e.A D L.L.D Z w.D.[.;X;X[.F.9.C f DXDXDXDXDXDXDXDXDXDXDXDXDXDXDXDXDXDXDXDXDXDX",
"DXDXDXDXDXDXDXDXDXDXDXDXDXDXDXDXDXDXDXDX# m ;.K.U.P.d.J.Y.Y.J.s.I.'.oX#X#XoX].Z.q.&.h $ DXDXDXDXDXDXDXDXDXDXDXDXDXDXDXDXDXDXDXDX",
"DXDXDXDXDXDXDXDXDXDXDXDXDXDXDXDXDXDXDXDX# B a.:X7XeXrX6X*X=X0X0X-XOXOXOXOX@X@X(.M.,.z $ DXDXDXDXDXDXDXDXDXDXDXDXDXDXDXDXDXDXDXDX",
"DXDXDXDXDXDXDXDXDXDXDXDXDXDXDXDXDXDXDXDX# N i.qXpXjXkXuX<X2XsXdX5X.XXXOXOX@X@X/.m.>.z $ DXDXDXDXDXDXDXDXDXDXDXDXDXDXDXDXDXDXDXDX",
"DXDXDXDXDXDXDXDXDXDXDXDXDXDXDXDXDXDXDXDX# N u.tXkXSXSXfX8X,XiXaX3X.XXX}.E.^.|.~.n.:.z $ DXDXDXDXDXDXDXDXDXDXDXDXDXDXDXDXDXDXDXDX",
"DXDXDXDXDXDXDXDXDXDXDXDXDXDXDXDXDXDXDXDX# N u.tXkXSXSXgX9X$X1X3X&XOXOXE.N.B.^.~.n.:.z $ DXDXDXDXDXDXDXDXDXDXDXDXDXDXDXDXDXDXDXDX",
"DXDXDXDXDXDXDXDXDXDXDXDXDXDXDXDXDXDXDXDX# b t.4XuXjXhXyX1X X X.XOXOXOXE.N.V.).(.m.>.z $ DXDXDXDXDXDXDXDXDXDXDXDXDXDXDXDXDXDXDXDX",
"DXDXDXDXDXDXDXDXDXDXDXDXDXDXDXDXDXDXDXDX$ v 4.W.>XwXwX1X%XXX.XXXOXOXOX}.E.^.|.(.M.,.z $ DXDXDXDXDXDXDXDXDXDXDXDXDXDXDXDXDXDXDXDX",
"DXDXDXDXDXDXDXDXDXDXDXDXDXDXDXDXDXDXDXDX$ h %.0.j.Q.{..XOXOXOXOXOXOXOX@X@XOX_.C.w.*.h $ DXDXDXDXDXDXDXDXDXDXDXDXDXDXDXDXDXDXDXDX",
"DXDXDXDXDXDXDXDXDXDXDXDXDXDXDXDXDXDXDXDXDXDXg C 7.A.!.+X@X@X@X@X@X@X@X@X@X`.S.8.C g DXDXDXDXDXDXDXDXDXDXDXDXDXDXDXDXDXDXDXDXDXDX",
"DXDXDXDXDXDXDXDXDXDXDXDXDXDXDXDXDXDXDXDXDXDX+ j :.b.G.R.T.T.T.T.T.T.T.T.R.G.b.:.j + DXDXDXDXDXDXDXDXDXDXDXDXDXDXDXDXDXDXDXDXDXDX",
"DXDXDXDXDXDXDXDXDXDXDXDXDXDXDXDXDXDXDXDXDXDX@ l >.x.v.c.c.c.c.c.c.c.c.c.c.v.x.>.l @ DXDXDXDXDXDXDXDXDXDXDXDXDXDXDXDXDXDXDXDXDXDX",
"DXDXDXDXDXDXDXDXDXDXDXDXDXDXDXDXDXDXDXDXDXDX$ k &.3.f.h.h.g.g.g.g.g.g.h.h.f.3.&.k $ DXDXDXDXDXDXDXDXDXDXDXDXDXDXDXDXDXDXDXDXDXDX",
"DXDXDXDXDXDXDXDXDXDXDXDXDXDXDXDXDXDXDXDXDXDXDXDXg V 3.z.l.k.k.k.k.k.k.l.z.3.V g DXDXDXDXDXDXDXDXDXDXDXDXDXDXDXDXDXDXDXDXDXDXDXDX",
"DXDXDXDXDXDXDXDXDXDXDXDXDXDXDXDXDXDXDXDXDXDXDXDX. g &.2.1.<.<.<.<.<.<.1.2.&.g . DXDXDXDXDXDXDXDXDXDXDXDXDXDXDXDXDXDXDXDXDXDXDXDX",
"DXDXDXDXDXDXDXDXDXDXDXDXDXDXDXDXDXDXDXDXDXDXDXDXDXDXk x z z z z z z z z x k DXDXDXDXDXDXDXDXDXDXDXDXDXDXDXDXDXDXDXDXDXDXDXDXDXDX",
"DXDXDXDXDXDXDXDXDXDXDXDXDXDXDXDXDXDXDXDXDXDXDXDXDXDX$ $ $ $ $ $ $ $ $ $ $ $ DXDXDXDXDXDXDXDXDXDXDXDXDXDXDXDXDXDXDXDXDXDXDXDXDXDX",
"DXDXDXDXDXDXDXDXDXDXDXDXDXDXDXDXDXDXDXDXDXDXDXDXDXDXDXDXDXDXDXDXDXDXDXDXDXDXDXDXDXDXDXDXDXDXDXDXDXDXDXDXDXDXDXDXDXDXDXDXDXDXDXDX",
"DXDXDXDXDXDXDXDXDXDXDXDXDXDXDXDXDXDXDXDXDXDXDXDXDXDXDXDXDXDXDXDXDXDXDXDXDXDXDXDXDXDXDXDXDXDXDXDXDXDXDXDXDXDXDXDXDXDXDXDXDXDXDXDX",
"DXDXDXDXDXDXDXDXDXDXDXDXDXDXDXDXDXDXDXDXDXDXDXDXDXDXDXDXDXDXDXDXDXDXDXDXDXDXDXDXDXDXDXDXDXDXDXDXDXDXDXDXDXDXDXDXDXDXDXDXDXDXDXDX",
"DXDXDXDXDXDXDXDXDXDXDXDXDXDXDXDXDXDXDXDXDXDXDXDXDXDXDXDXDXDXDXDXDXDXDXDXDXDXDXDXDXDXDXDXDXDXDXDXDXDXDXDXDXDXDXDXDXDXDXDXDXDXDXDX",
"DXDXDXDXDXDXDXDXDXDXDXDXDXDXDXDXDXDXDXDXDXDXDXDXDXDXDXDXDXDXDXDXDXDXDXDXDXDXDXDXDXDXDXDXDXDXDXDXDXDXDXDXDXDXDXDXDXDXDXDXDXDXDXDX",
"DXDXDXDXDXDXDXDXDXDXDXDXDXDXDXDXDXDXDXDXDXDXDXDXDXDXDXDXDXDXDXDXDXDXDXDXDXDXDXDXDXDXDXDXDXDXDXDXDXDXDXDXDXDXDXDXDXDXDXDXDXDXDXDX",
"DXDXDXDXDXDXDXDXDXDXDXDXDXDXDXDXDXDXDXDXDXDXDXDXDXDXDXDXDXDXDXDXDXDXDXDXDXDXDXDXDXDXDXDXDXDXDXDXDXDXDXDXDXDXDXDXDXDXDXDXDXDXDXDX",
"DXDXDXDXDXDXDXDXDXDXDXDXDXDXDXDXDXDXDXDXDXDXDXDXDXDXDXDXDXDXDXDXDXDXDXDXDXDXDXDXDXDXDXDXDXDXDXDXDXDXDXDXDXDXDXDXDXDXDXDXDXDXDXDX",
"DXDXDXDXDXDXDXDXDXDXDXDXDXDXDXDXDXDXDXDXDXDXDXDXDXDXDXDXDXDXDXDXDXDXDXDXDXDXDXDXDXDXDXDXDXDXDXDXDXDXDXDXDXDXDXDXDXDXDXDXDXDXDXDX",
"DXDXDXDXDXDXDXDXDXDXDXDXDXDXDXDXDXDXDXDXDXDXDXDXDXDXDXDXDXDXDXDXDXDXDXDXDXDXDXDXDXDXDXDXDXDXDXDXDXDXDXDXDXDXDXDXDXDXDXDXDXDXDXDX",
"DXDXDXDXDXDXDXDXDXDXDXDXDXDXDXDXDXDXDXDXDXDXDXDXDXDXDXDXDXDXDXDXDXDXDXDXDXDXDXDXDXDXDXDXDXDXDXDXDXDXDXDXDXDXDXDXDXDXDXDXDXDXDXDX",
"DXDXDXDXDXDXDXDXDXDXDXDXDXDXDXDXDXDXDXDXDXDXDXDXDXDXDXDXDXDXDXDXDXDXDXDXDXDXDXDXDXDXDXDXDXDXDXDXDXDXDXDXDXDXDXDXDXDXDXDXDXDXDXDX",
"DXDXDXDXDXDXDXDXDXDXDXDXDXDXDXDXDXDXDXDXDXDXDXDXDXDXDXDXDXDXDXDXDXDXDXDXDXDXDXDXDXDXDXDXDXDXDXDXDXDXDXDXDXDXDXDXDXDXDXDXDXDXDXDX",
"DXDXDXDXDXDXDXDXDXDXDXDXDXDXDXDXDXDXDXDXDXDXDXDXDXDXDXDXDXDXDXDXDXDXDXDXDXDXDXDXDXDXDXDXDXDXDXDXDXDXDXDXDXDXDXDXDXDXDXDXDXDXDXDX",
"DXDXDXDXDXDXDXDXDXDXDXDXDXDXDXDXDXDXDXDXDXDXDXDXDXDXDXDXDXDXDXDXDXDXDXDXDXDXDXDXDXDXDXDXDXDXDXDXDXDXDXDXDXDXDXDXDXDXDXDXDXDXDXDX",
"DXDXDXDXDXDXDXDXDXDXDXDXDXDXDXDXDXDXDXDXDXDXDXDXDXDXDXDXDXDXDXDXDXDXDXDXDXDXDXDXDXDXDXDXDXDXDXDXDXDXDXDXDXDXDXDXDXDXDXDXDXDXDXDX",
"DXDXDXDXDXDXDXDXDXDXDXDXDXDXDXDXDXDXDXDXDXDXDXDXDXDXDXDXDXDXDXDXDXDXDXDXDXDXDXDXDXDXDXDXDXDXDXDXDXDXDXDXDXDXDXDXDXDXDXDXDXDXDXDX",
"DXDXDXDXDXDXDXDXDXDXDXDXDXDXDXDXDXDXDXDXDXDXDXDXDXDXDXDXDXDXDXDXDXDXDXDXDXDXDXDXDXDXDXDXDXDXDXDXDXDXDXDXDXDXDXDXDXDXDXDXDXDXDXDX",
"DXDXDXDXDXDXDXDXDXDXDXDXDXDXDXDXDXDXDXDXDXDXDXDXDXDXDXDXDXDXDXDXDXDXDXDXDXDXDXDXDXDXDXDXDXDXDXDXDXDXDXDXDXDXDXDXDXDXDXDXDXDXDXDX",
"DXDXDXDXDXDXDXDXDXDXDXDXDXDXDXDXDXDXDXDXDXDXDXDXDXDXDXDXDXDXDXDXDXDXDXDXDXDXDXDXDXDXDXDXDXDXDXDXDXDXDXDXDXDXDXDXDXDXDXDXDXDXDXDX",
"DXDXDXDXDXDXDXDXDXDXDXDXDXDXDXDXDXDXDXDXDXDXDXDXDXDXDXDXDXDXDXDXDXDXDXDXDXDXDXDXDXDXDXDXDXDXDXDXDXDXDXDXDXDXDXDXDXDXDXDXDXDXDXDX",
"DXDXDXDXDXDXDXDXDXDXDXDXDXDXDXDXDXDXDXDXDXDXDXDXDXDXDXDXDXDXDXDXDXDXDXDXDXDXDXDXDXDXDXDXDXDXDXDXDXDXDXDXDXDXDXDXDXDXDXDXDXDXDXDX"
};
