/* XPM */
static char *result[] = {
/* columns rows colors chars-per-pixel */
"64 64 139 2 ",
"   c #151326",
".  c #161429",
"X  c #19162A",
"o  c #1C1A2E",
"O  c #211F31",
"+  c #211F3C",
"@  c #25233E",
"#  c gray19",
"$  c #252440",
"%  c #282644",
"&  c #2F2E49",
"*  c #2F2E56",
"=  c #30305F",
"-  c #343361",
";  c #35356D",
":  c #39396E",
">  c #3C3C72",
",  c #403F73",
"<  c #43455B",
"1  c #46485F",
"2  c #4F4D5D",
"3  c #514F5F",
"4  c #474961",
"5  c #4A4C63",
"6  c #40416F",
"7  c #4D4F6C",
"8  c #4F526F",
"9  c #555463",
"0  c #414175",
"q  c #44457A",
"w  c #4E507A",
"e  c #515371",
"r  c #5D5B71",
"t  c #686868",
"y  c #595A86",
"u  c #535588",
"i  c #56598A",
"p  c #5B5D8C",
"a  c #5A5E90",
"s  c #5C608A",
"d  c #5E6192",
"f  c #696E87",
"g  c #65658F",
"h  c #696D89",
"j  c #6B718A",
"k  c #767889",
"l  c #7F7E8A",
"z  c #646692",
"x  c #6A6A93",
"c  c #807F8A",
"v  c #7B82AE",
"b  c #7E85B1",
"n  c #8084AC",
"m  c #868DAC",
"M  c #8D8CAD",
"N  c #8790AC",
"B  c #8992AD",
"V  c #9090AF",
"C  c #858EB0",
"Z  c #8992B6",
"A  c #8C95BF",
"S  c #9191B0",
"D  c #A6A5AD",
"F  c #BBBBBB",
"G  c #8D96C1",
"H  c #8F98C2",
"J  c #939CC5",
"K  c #9FABC8",
"L  c #A9A9C0",
"P  c #A1ADCB",
"I  c #A4B0CF",
"U  c #A8B1C9",
"Y  c #B2B2C7",
"T  c #B2B2C8",
"R  c #BCBFCA",
"E  c #A7B3D4",
"W  c #A9B6D6",
"Q  c #ABB8D6",
"!  c #A6B2D9",
"~  c #A9B5DB",
"^  c #AEBBDA",
"/  c #B1BEDD",
"(  c #B2BEE3",
")  c #DF94C7",
"_  c #E095C7",
"`  c #E095C8",
"'  c #DCA5CE",
"]  c #DBA8D5",
"[  c #E7B1D6",
"{  c #E8B2D7",
"}  c #BBC4DB",
"|  c #B3C1E5",
" . c #BFC8E5",
".. c #B8C5EA",
"X. c #BEC9E8",
"o. c #C7C7CC",
"O. c #C8C7CC",
"+. c #CBCACE",
"@. c #CBCBD2",
"#. c #CFCFDB",
"$. c #D4C3D9",
"%. c #D0CFDC",
"&. c #CFD0DD",
"*. c #D3D3DB",
"=. c #D9D9DC",
"-. c #C1CAE6",
";. c #CED2E4",
":. c #D3D7E7",
">. c #DCDCE6",
",. c #DEDEE8",
"<. c #D0CBF0",
"1. c #C3D2F3",
"2. c #CBD7F4",
"3. c #CFDBF6",
"4. c #C6D5F8",
"5. c #CCDCFD",
"6. c #D5DCF8",
"7. c #F5DDED",
"8. c #F8DFEF",
"9. c #EBDDF1",
"0. c #D3E2FE",
"q. c #D8E5FD",
"w. c #DDE9FF",
"e. c #EFEFEF",
"r. c #F9E0EF",
"t. c #EAEDF4",
"y. c #E2EBFD",
"u. c #E9EFFE",
"i. c #F7E6F2",
"p. c #F8E6F2",
"a. c #FBEAF4",
"s. c #E6F0FF",
"d. c #EBF1FD",
"f. c #F3F3F5",
"g. c #F3F6FD",
"h. c #FDF7FB",
"j. c #F6F9FF",
"k. c #FFFFFF",
"l. c None",
/* pixels */
"l.l.l.l.l.l.l.l.l.l.l.l.l.l.l.l.l.l.l.l.l.l.l.l.l.l.l.l.l.l.l.l.l.l.l.l.l.l.l.l.l.l.l.l.l.l.l.l.l.l.l.l.l.l.l.l.l.l.l.l.l.l.l.l.",
"l.l.l.l.l.l.l.l.l.l.l.l.l.l.l.l.l.l.l.l.l.l.l.l.l.l.l.l.l.l.l.l.l.l.l.l.l.l.l.l.l.l.l.l.l.l.l.l.l.l.l.l.l.l.l.l.l.l.l.l.l.l.l.l.",
"l.l.l.l.l.l.l.l.l.l.l.l.l.l.l.l.l.l.l.l.l.l.l.l.l.l.l.l.l.l.l.l.l.l.l.l.l.l.l.l.l.l.l.l.l.l.l.l.l.l.l.l.l.l.l.l.l.l.l.l.l.l.l.l.",
"l.l.l.l.l.l.l.l.l.l.l.l.l.l.l.l.l.l.l.l.l.l.l.l.l.l.l.l.l.l.l.l.l.l.l.l.l.l.l.l.l.l.l.l.l.l.l.l.l.l.l.l.l.l.l.l.l.l.l.l.l.l.l.l.",
"l.l.l.l.l.l.l.l.l.l.l.l.l.l.l.l.l.l.l.l.l.l.l.l.l.l.l.l.l.l.l.l.l.l.l.l.l.l.l.l.l.l.l.l.l.l.l.l.l.l.l.l.l.l.l.l.l.l.l.l.l.l.l.l.",
"l.l.l.l.l.l.l.l.l.l.l.l.l.l.l.l.l.l.l.l.l.l.l.l.l.l.l.l.l.l.l.l.l.l.l.l.l.l.l.l.l.l.l.l.l.l.l.l.l.l.l.l.l.l.l.l.l.l.l.l.l.l.l.l.",
"l.l.l.l.l.l.l.l.l.l.l.l.l.l.l.l.l.l.l.l.l.l.l.l.l.l.l.l.l.l.l.l.l.l.l.l.l.l.l.l.l.l.l.l.l.l.l.l.l.l.l.l.l.l.l.l.l.l.l.l.l.l.l.l.",
"l.l.l.l.l.l.l.l.l.l.l.l.l.l.l.l.l.l.l.l.l.l.l.l.l.l.l.l.l.l.l.l.l.l.l.l.l.l.l.l.l.l.l.l.l.l.l.l.l.l.l.l.l.l.l.l.l.l.l.l.l.l.l.l.",
"l.l.l.l.l.l.l.l.l.l.l.l.l.l.l.l.l.l.l.l.l.l.o o o o o o o o o o o o o o o o o o o o l.l.l.l.l.l.l.l.l.l.l.l.l.l.l.l.l.l.l.l.l.l.",
"l.l.l.l.l.l.l.l.l.l.l.l.l.l.l.l.l.l.l.l.l.l.3 9 9 9 9 9 9 9 9 9 9 9 9 9 9 9 9 9 9 9 l.l.l.l.l.l.l.l.l.l.l.l.l.l.l.l.l.l.l.l.l.l.",
"l.l.l.l.l.l.l.l.l.l.l.l.l.l.l.l.o o o . . 2 D +.@.O.o.o.O.O.o.o.o.o.O.O.o.o.o.+.@.D 2 . X o o o l.l.l.l.l.l.l.l.l.l.l.l.l.l.l.l.",
"l.l.l.l.l.l.l.l.l.l.l.l.l.l.l.l.9 9 9 9 9 l =.k.k.k.k.k.k.k.k.k.k.k.k.k.k.k.k.k.k.=.c 5 5 5 5 1 l.l.l.l.l.l.l.l.l.l.l.l.l.l.l.l.",
"l.l.l.l.l.l.l.l.l.l.l.l.l.l.o 9 D +.O.o.o.*.f.k.k.k.k.k.k.k.k.k.k.k.k.k.k.k.k.k.k.f.*.} D E P N 5 o l.l.l.l.l.l.l.l.l.l.l.l.l.l.",
"l.l.l.l.l.l.l.l.l.l.l.l.l.l.. 9 O.k.k.k.k.k.k.k.k.k.k.k.k.k.k.k.k.k.k.k.k.k.k.k.k.k.k.k.s.q.q.I 5 X l.l.l.l.l.l.l.l.l.l.l.l.l.l.",
"l.l.l.l.l.l.l.l.l.l.l.l.l.l.. 9 O.k.k.k.k.k.k.k.k.k.k.k.k.k.k.k.k.k.k.k.k.k.k.k.k.k.k.k.j.d.w.P 4 X l.l.l.l.l.l.l.l.l.l.l.l.l.l.",
"l.l.l.l.l.l.l.l.l.l.l.l.l.l.2 l *.k.k.k.k.k.k.k.k.k.k.k.k.k.k.k.k.k.k.k.k.k.k.k.k.k.k.k.k.j.q.^ f < l.l.l.l.l.l.l.l.l.l.l.l.l.l.",
"l.l.l.l.l.l.l.l.l.l.l.l.o 9 D =.f.k.k.k.k.k.k.k.k.k.k.k.k.k.k.k.k.k.k.k.k.k.k.k.k.k.k.k.k.g.q.1.^ N < o l.l.l.l.l.l.l.l.l.l.l.l.",
"l.l.l.l.l.l.l.l.l.l.l.l.. 9 +.k.k.k.k.k.k.k.k.k.k.k.k.k.k.k.k.k.k.k.k.k.k.k.k.k.k.k.k.k.k.g.q.5.0.I 5 X l.l.l.l.l.l.l.l.l.l.l.l.",
"l.l.l.l.l.l.l.l.l.l.l.l.. 3 O.k.k.k.k.k.k.k.k.k.k.k.k.k.k.k.k.k.k.k.k.k.k.k.k.k.k.k.k.k.k.g.q.5.0.P 5 . l.l.l.l.l.l.l.l.l.l.l.l.",
"l.l.l.l.l.l.l.l.l.l.l.l.2 l *.k.k.k.k.k.k.k.k.k.k.k.k.k.k.k.k.k.k.k.k.k.k.k.k.k.k.k.k.k.k.g.0.5.5.Q j < l.l.l.l.l.l.l.l.l.l.l.l.",
"l.l.l.l.l.l.l.l.l.l.o 9 D =.f.k.k.k.k.k.k.k.k.k.k.k.k.k.k.k.k.k.k.k.k.k.k.k.k.k.k.k.k.k.k.g.0.5.5.X.| N < o l.l.l.l.l.l.l.l.l.l.",
"l.l.l.l.l.l.l.l.l.l.o 9 +.k.k.k.k.k.k.k.k.k.k.k.k.k.k.k.k.k.k.k.k.k.k.k.k.k.k.k.k.k.k.k.k.g.q.5.5.0.0.I 5 o l.l.l.l.l.l.l.l.l.l.",
"l.l.l.l.l.l.l.l.l.l.o 9 +.k.k.k.k.k.k.k.k.k.k.k.k.k.k.k.k.k.k.k.k.k.k.k.k.k.k.k.k.k.k.k.k.g.q.4.5.5.0.P 5 o l.l.l.l.l.l.l.l.l.l.",
"l.l.l.l.l.l.l.l.l.l.o 9 o.k.k.k.k.k.k.k.k.f.*.O.O.*.f.k.k.k.k.k.k.k.k.k.k.f.*.O.O.*.f.k.k.g.q.5.5.5.5.P 5 o l.l.l.l.l.l.l.l.l.l.",
"l.l.l.l.l.l.l.l.l.l.o 9 o.k.k.k.k.k.k.k.k.*.c 3 3 n +.h.k.k.k.k.k.k.k.k.k.*.n 2 2 l *.k.k.g.q.5.5.0.0.K 5 o l.l.l.l.l.l.l.l.l.l.",
"l.l.l.l.l.l.l.l.l.l.o 9 o.k.k.k.k.k.k.k.k.o.9     3 +.h.k.k.k.k.k.k.k.k.k.O.2     9 +.k.k.g.q.4.5.5.5.K 5 o l.l.l.l.l.l.l.l.l.l.",
"l.l.l.l.l.l.l.l.l.l.o 9 o.k.k.k.k.k.k.k.k.+.9 .   9 +.h.k.k.k.k.k.k.k.k.k.O.3   . 9 o.k.k.g.0.5.5.5.0.K 5 o l.l.l.l.l.l.l.l.l.l.",
"l.l.l.l.l.l.l.l.l.l.o 9 o.k.k.k.k.k.k.k.k.@.r + @ r +.k.k.k.k.k.k.k.k.k.k.+.t O + r @.k.k.g.q.5.5.5.0.I 5 o l.l.l.l.l.l.l.l.l.l.",
"l.l.l.l.l.l.l.l.l.l.o 9 @.k.k.k.k.k.k.k.k.#.g = * h #.k.k.k.k.k.k.k.k.k.k.#.h = = h #.k.k.g.q.4.4.5.5.K 5 O l.l.l.l.l.l.l.l.l.l.",
"l.l.l.l.l.l.l.l.l.l.o 9 o.k.k.k.k.k.k.k.k.*.x ; ; x &.k.k.k.k.k.k.k.k.k.k.%.x ; ; x &.k.k.j.0.5.5.5.0.P 5 o l.l.l.l.l.l.l.l.l.l.",
"l.l.l.l.l.l.l.l.l.l.o 9 o.k.k.k.k.k.k.k.k.*.x ; ; x *.k.k.k.k.k.k.k.k.k.k.%.x ; ; x &.k.k.g.q.5.5.5.5.K 5 o l.l.l.l.l.l.l.l.l.l.",
"l.l.l.l.l.l.l.l.l.l.X 9 o.k.k.k.k.h.i.7.7.$.M x x M >.k.k.k.k.k.k.k.k.k.k.>.S z x M $.r.r.9.6.5.5.5.0.K 1 o l.l.l.l.l.l.l.l.l.l.",
"l.l.l.l.l.l.l.l.l.l.. 3 o.k.k.k.k.i.[ ) ) ' $.*.&.>.f.k.k.k.k.k.k.k.k.k.k.f.>.*.*.$.' ) ` ] <.5.5.5.0.K < X l.l.l.l.l.l.l.l.l.l.",
"l.l.l.l.l.l.l.l.l.l.< k &.k.k.k.k.i.[ ) ) { a.k.k.k.k.k.k.e.+.F F +.e.k.k.k.k.k.k.a.[ ) ` ] <.5.5.5.5.W j < l.l.l.l.l.l.l.l.l.l.",
"l.l.l.l.l.l.l.l.o < N } t.k.k.k.k.h.i.7.7.i.h.k.k.k.k.k.k.+.t # # t @.k.k.k.k.k.k.h.i.7.7.9.6.5.5.5.5.1.Q B 5 o l.l.l.l.l.l.l.l.",
"l.l.l.l.l.l.l.l.o 5 I w.j.k.k.k.k.k.k.k.k.k.k.k.k.k.k.k.k.@.t # # t @.k.k.k.k.k.k.k.k.k.k.j.q.5.4.5.5.0.0.I 5 o l.l.l.l.l.l.l.l.",
"l.l.l.l.l.l.l.l.o 5 P w.j.k.k.k.k.k.k.k.k.k.k.k.k.k.k.k.k.e.+.F F +.e.k.k.k.k.k.k.k.k.k.k.g.q.4.5.5.5.5.0.P 5 o l.l.l.l.l.l.l.l.",
"l.l.l.l.l.l.l.l.o 5 K w.j.k.k.k.k.k.k.k.k.k.k.k.k.k.k.k.k.k.k.k.k.k.k.k.k.k.k.k.k.k.k.k.j.u.0.5.5.5.5.5.0.K 5 . l.l.l.l.l.l.l.l.",
"l.l.l.l.l.l.l.l.. 4 K q.j.k.k.k.k.k.k.k.k.k.k.k.k.k.k.k.k.k.k.k.k.k.k.k.k.k.k.k.k.k.k.j.y.q.5.5.4.5.5.0.5.K 5 . l.l.l.l.l.l.l.l.",
"l.l.l.l.l.l.l.l.< j Q w.g.k.k.k.k.k.k.k.k.k.k.k.k.k.k.k.k.k.k.k.k.k.k.k.k.k.k.k.k.k.k.g.0.4.5.5.5.5.4.5.5.Q j < l.l.l.l.l.l.l.l.",
"l.l.l.l.l.l.. < N ^ X.q.j.k.k.k.k.k.k.k.k.k.k.k.k.k.k.k.k.k.k.k.k.k.k.k.k.k.k.k.k.k.k.g.0.5.5.5.4.5.5.5.5.1.^ N < X l.l.l.l.l.l.",
"l.l.l.l.l.l.< f ^ 0.5.q.j.k.k.k.k.k.k.k.k.k.k.k.k.k.k.k.k.k.k.k.k.k.k.k.k.k.k.k.k.k.k.g.q.5.4.5.5.5.5.5.5.5.0.^ f < l.l.l.l.l.l.",
"l.l.l.l.o < m ^ 1.5.5.0.g.k.k.k.k.k.k.k.k.k.k.k.k.k.k.k.k.k.k.k.k.k.k.k.k.k.k.k.k.k.k.g.q.5.5.4.5.5.5.5.5.5.5.1.^ N < o l.l.l.l.",
"l.l.l.l.O 5 P 0.5.5.5.6.s.j.k.k.k.k.k.k.k.k.k.k.k.k.k.k.k.k.k.k.k.k.k.k.k.k.k.k.k.k.j.u.0.4.5.5.5.5.4.5.5.5.5.0.0.I 5 o l.l.l.l.",
"l.l.l.l.o 5 P 0.5.5.5.5.6.y.j.k.k.k.k.k.k.k.k.k.k.k.k.k.k.k.k.k.k.k.k.k.k.k.k.k.k.k.y.0.5.5.5.5.5.5.5.5.5.5.5.5.0.P 5 o l.l.l.l.",
"l.l.l.l.X 5 K 0.5.5.5.5.5.q.j.f.>.>.f.k.k.k.k.k.k.k.k.k.k.k.k.k.k.k.k.k.k.k.k.f.>.;.2.5.5.5.5.2.4.5.5.5.5.4.5.5.0.K 5 X l.l.l.l.",
"l.l.l.l.X 5 K 5.5.5.5.5.5.q.k.,.M M >.k.k.k.k.k.k.k.k.k.k.k.k.k.k.k.k.k.k.k.k.>.M v | 5.5.5.5.5.5.2.4.5.5.5.5.5.5.K 4 X l.l.l.l.",
"l.l.l.l.1 j ^ 5.5.5.5.5.5.3.3.D y g #.k.k.k.k.k.k.k.k.k.k.k.k.k.k.k.k.k.k.k.k.%.g p ! 5.5.5.5.5.5.5.5.5.5.5.5.5.0.Q j < l.l.l.l.",
"l.l.o < B / 1.5.5.5.5.5.0.| n p > z %.k.k.k.k.k.k.k.k.k.k.k.k.k.k.k.k.k.k.k.k.:.z d ! 0.5.4.5.5.5.5.5.5.5.5.5.5.5.X.| b < o l.l.",
"l.l.$ 5 Z ..4.5.5.5.5.5.0.~ d , u m >.k.k.k.k.k.k.k.k.k.k.k.k.k.k.k.k.k.k.j.,.D s d ! 5.0.5.5.4.4.5.5.5.5.5.5.5.5.5.0.E 9 @ l.l.",
"l.l.- 0 i b | 5.5.5.5.5.0.~ d u A X.d.k.k.k.k.k.k.k.k.k.k.k.k.k.k.k.k.k.k.>.S p q d ~ 5.5.5.5.5.5.5.5.4.5.5.5.5.5.0.0.~ s - l.l.",
"l.l.0 > : d ~ 0.0.5.5.4.| A u d ^ q.d.j.g.j.k.k.k.k.k.k.k.k.k.k.k.k.k.f.,.T g ; : z ~ 0.5.5.5.5.5.5.5.5.5.5.5.5.5.4.| J d 6 l.l.",
"l.l.l.l.> d ~ 0.0.0.0.| b u 0 d ~ 0.q.0.q.y.j.k.k.k.k.k.k.k.k.k.k.k.k.>.M g l.l.: d ~ 0.0.5.5.4.4.5.5.5.5.5.5.0.0.| v s l.l.l.l.",
"l.l.l.l.> d J W P I ~ H u , u b | 5.5.5.4.0.s.j.k.k.k.k.k.k.k.k.k.k.k.#.x ; l.l.> d J | 1.5.5.5.5.5.5.0.0.X.W K ! J a : l.l.l.l.",
"l.l.l.l.l.l.d y 8 8 s a q i G | 1.5.5.5.5.5.0.y.j.k.k.k.k.k.k.k.k.k.k.*.x ; l.l.l.l.d v ( 5.5.5.5.5.0.0.0.Q j 8 y d l.l.l.l.l.l.",
"l.l.l.l.l.l.> - @ @ * - - s ~ 0.0.5.5.6.5.5.5.0.u.g.g.j.k.k.k.k.j.u.>.T x > l.l.l.l.; d ~ 0.0.5.5.1.W K P N < + * > l.l.l.l.l.l.",
"l.l.l.l.l.l.l.l.l.l.@ @ @ e W q.0.6.0.0.5.0.5.0.q.q.0.w.j.k.k.j.s.-.m z l.l.l.l.l.l.: d ~ 0.0.0.0.^ j 4 5 4 l.l.l.l.l.l.l.l.l.l.",
"l.l.l.l.l.l.l.l.l.l.@ o o 1 N I P P K K K K K Q 1.5.5.q.d.k.j.y.X.A u : l.l.l.l.l.l.> i Z I P P P N < X X o l.l.l.l.l.l.l.l.l.l.",
"l.l.l.l.l.l.l.l.l.l.l.l.l.l.1 2 5 5 5 5 5 5 4 j ^ 0.0.0.q.w.w.X.b u q > l.l.l.l.l.l.0 0 5 5 5 5 5 4 l.l.l.l.l.l.l.l.l.l.l.l.l.l.",
"l.l.l.l.l.l.l.l.l.l.l.l.l.l.o o O o o o o X . < N P P K K P P C w - : , l.l.l.l.l.l.0 - $ o o o o o l.l.l.l.l.l.l.l.l.l.l.l.l.l.",
"l.l.l.l.l.l.l.l.l.l.l.l.l.l.l.l.l.l.l.l.l.l.l.l.4 5 5 5 5 5 5 < & % l.l.l.l.l.l.l.l.l.l.l.l.l.l.l.l.l.l.l.l.l.l.l.l.l.l.l.l.l.l.",
"l.l.l.l.l.l.l.l.l.l.l.l.l.l.l.l.l.l.l.l.l.l.l.l.o o o o o o o O O O l.l.l.l.l.l.l.l.l.l.l.l.l.l.l.l.l.l.l.l.l.l.l.l.l.l.l.l.l.l.",
"l.l.l.l.l.l.l.l.l.l.l.l.l.l.l.l.l.l.l.l.l.l.l.l.l.l.l.l.l.l.l.l.l.l.l.l.l.l.l.l.l.l.l.l.l.l.l.l.l.l.l.l.l.l.l.l.l.l.l.l.l.l.l.l.",
"l.l.l.l.l.l.l.l.l.l.l.l.l.l.l.l.l.l.l.l.l.l.l.l.l.l.l.l.l.l.l.l.l.l.l.l.l.l.l.l.l.l.l.l.l.l.l.l.l.l.l.l.l.l.l.l.l.l.l.l.l.l.l.l."
};
