/* XPM */
static char *result[] = {
/* columns rows colors chars-per-pixel */
"64 64 255 2 ",
"   c black",
".  c #060510",
"X  c #080712",
"o  c #090915",
"O  c #0A0A16",
"+  c #272A31",
"@  c #272B32",
"#  c #272C31",
"$  c #282B31",
"%  c #282B32",
"&  c #2A2D33",
"*  c #2B2E34",
"=  c #2B2F36",
"-  c #2B2F37",
";  c #2C2F36",
":  c #2E3031",
">  c #2C3037",
",  c #2D3139",
"<  c #2E3139",
"1  c #2E3239",
"2  c #2F3239",
"3  c #2F3339",
"4  c #2F333A",
"5  c gray19",
"6  c #303131",
"7  c #313131",
"8  c #313231",
"9  c #323331",
"0  c #323232",
"q  c #333332",
"w  c gray20",
"e  c gray21",
"r  c #373737",
"t  c #30343C",
"y  c #31343F",
"u  c gray22",
"i  c #393938",
"p  c #393939",
"a  c #3A3A3A",
"s  c #3A3B3A",
"d  c #3C3C3C",
"f  c gray24",
"g  c #27264E",
"h  c #323541",
"j  c #393C4D",
"k  c #3A3E4F",
"l  c #2A2A51",
"z  c #2B2B53",
"x  c #2B2B54",
"c  c #3B3F51",
"v  c #37366D",
"b  c #3B3A70",
"n  c #3C3B72",
"m  c #3C3C73",
"M  c #3D3D74",
"N  c #3D3D75",
"B  c #3D4153",
"V  c gray27",
"C  c #534559",
"Z  c #604D5A",
"A  c #624F5B",
"S  c #555C6A",
"D  c #555D6B",
"F  c #565D6B",
"G  c #575E6C",
"H  c #585F6D",
"J  c #51557B",
"K  c #54577D",
"L  c #54587F",
"P  c #615E68",
"I  c #62656B",
"U  c #686868",
"Y  c #696868",
"T  c DimGray",
"R  c gray42",
"E  c #6C6C6C",
"W  c #575B83",
"Q  c #585C89",
"!  c #5D608F",
"~  c #5F6293",
"^  c #606494",
"/  c #616495",
"(  c #616596",
")  c #616597",
"_  c #626697",
"`  c #AA76A4",
"'  c #B67EA5",
"]  c #788195",
"[  c #788295",
"{  c #788396",
"}  c #798396",
"|  c #7A8396",
" . c #7B8598",
".. c #7C83B1",
"X. c #7E85B2",
"o. c #959595",
"O. c #979797",
"+. c gray60",
"@. c #8892B1",
"#. c #8993B2",
"$. c #BA81A6",
"%. c #97A2BB",
"&. c #97A3BB",
"*. c #97A3BC",
"=. c #97A3BD",
"-. c #9EA7BA",
";. c #98A4BC",
":. c #98A4BD",
">. c #99A5BF",
",. c #99A6BE",
"<. c #9AA6BF",
"1. c #B3B6BB",
"2. c #BBBBBB",
"3. c #BBBCBB",
"4. c #BCBCBB",
"5. c #BBBCBC",
"6. c #BCBCBC",
"7. c gray74",
"8. c gray",
"9. c gray75",
"0. c #9AA7C0",
"q. c #9BA7C2",
"w. c #9BA7C3",
"e. c #9CA8C3",
"r. c #9FABC7",
"t. c #A3A9C7",
"y. c #B0A7C7",
"u. c #A5B2CD",
"i. c #B1BACD",
"p. c #A3AFD1",
"a. c #A4B0D2",
"s. c #A4B0D3",
"d. c #A7B4D0",
"f. c #A7B5D0",
"g. c #A7B6D1",
"h. c #A8B5D0",
"j. c #A9B6D1",
"k. c #AAB7D2",
"l. c #ACBAD5",
"z. c #A8B4DA",
"x. c #A8B4DB",
"c. c #ABB7DB",
"v. c #AAB6DC",
"b. c #ADB9DF",
"n. c #BFB9DF",
"m. c #B1BEE3",
"M. c #D5A0CC",
"N. c #C6B5C3",
"B. c #D9A7DD",
"V. c #EBB3D9",
"C. c #ECB4DA",
"Z. c #B4C1E6",
"A. c #B4C2E7",
"S. c #B7C5EB",
"D. c #C0C0C0",
"F. c #C1C1C1",
"G. c #C0C2C0",
"H. c gray76",
"J. c #C2C3C2",
"K. c #CBC5C9",
"L. c #CFC8CC",
"P. c gray80",
"I. c #CDCDCD",
"U. c #CDCECD",
"Y. c #CDCECE",
"T. c #CECECE",
"R. c #CFCFCE",
"E. c gray81",
"W. c #D2D2D2",
"Q. c #D1D2D4",
"!. c gray83",
"~. c #C1D0EF",
"^. c #D0CAF2",
"/. c #C2D2F1",
"(. c #C2D2F2",
"). c #C3D3F2",
"_. c #C3D3F5",
"`. c #C5D5F5",
"'. c #C6D6F8",
"]. c #C8D9FC",
"[. c #C9D9FC",
"{. c #C9DAFC",
"}. c #CADAFC",
"|. c #CADBFC",
" X c #CBDBFC",
".X c #CBDCFD",
"XX c #CBDDFD",
"oX c #CBDDFE",
"OX c #CBDEFF",
"+X c #CDDDFC",
"@X c #CCDCFD",
"#X c #CEDDFC",
"$X c #CCDCFE",
"%X c #CCDDFE",
"&X c #CDDDFE",
"*X c #CDDDFF",
"=X c #CDDEFE",
"-X c #CDDEFF",
";X c #CEDEFF",
":X c #CEDFFF",
">X c #CFDFFF",
",X c #D7D2FB",
"<X c #D0D9FD",
"1X c #E7D5E1",
"2X c #EDDAE6",
"3X c #CFE0FF",
"4X c #D0E0FF",
"5X c #D1E0FF",
"6X c #D0E1FF",
"7X c #D1E1FF",
"8X c #D2E2FF",
"9X c #D2E3FF",
"0X c #D4E1FC",
"qX c #D4E1FD",
"wX c #D5E2FD",
"eX c #D7E3FD",
"rX c #D3E4FF",
"tX c #D7E4FD",
"yX c #D4E4FF",
"uX c #D4E5FF",
"iX c #D7E5FF",
"pX c #D8E4FD",
"aX c #DAE6FF",
"sX c #DAE7FF",
"dX c #DBE8FF",
"fX c #EFEFEF",
"gX c #F0F0EF",
"hX c #E9ECF2",
"jX c #E1EAFD",
"kX c #E5EEFF",
"lX c #F8E6F3",
"zX c #FAE7F4",
"xX c #FBE9F6",
"cX c #EFF1F0",
"vX c #E9F0FE",
"bX c #EFF5FF",
"nX c gray94",
"mX c #F1F1F1",
"MX c gray95",
"NX c #F4F4F4",
"BX c #F2F6FE",
"VX c #F3F7FE",
"CX c #FDF7FB",
"ZX c #F5F8FE",
"AX c #F4F8FF",
"SX c #F6F8FE",
"DX c #F6F9FE",
"FX c #F6F9FF",
"GX c #F8FAFF",
"HX c #FBFEFF",
"JX c #FCFDFF",
"KX c #FDFDFF",
"LX c #FFFCFF",
"PX c white",
"IX c None",
/* pixels */
"IXIXIXIXIXIXIXIXIXIXIXIXIXIXIXIXIXIXIXIXIXIXIXIXIXIXIXIXIXIXIXIXIXIXIXIXIXIXIXIXIXIXIXIXIXIXIXIXIXIXIXIXIXIXIXIXIXIXIXIXIXIXIXIX",
"IXIXIXIXIXIXIXIXIXIXIXIXIXIXIXIXIXIXIXIXIXIXIXIXIXIXIXIXIXIXIXIXIXIXIXIXIXIXIXIXIXIXIXIXIXIXIXIXIXIXIXIXIXIXIXIXIXIXIXIXIXIXIXIX",
"IXIXIXIXIXIXIXIXIXIXIXIXIXIXIXIXIXIXIXIXIXIXIXIXIXIXIXIXIXIXIXIXIXIXIXIXIXIXIXIXIXIXIXIXIXIXIXIXIXIXIXIXIXIXIXIXIXIXIXIXIXIXIXIX",
"IXIXIXIXIXIXIXIXIXIXIXIXIXIXIXIXIXIXIXIXIXIXIXIXIXIXIXIXIXIXIXIXIXIXIXIXIXIXIXIXIXIXIXIXIXIXIXIXIXIXIXIXIXIXIXIXIXIXIXIXIXIXIXIX",
"IXIXIXIXIXIXIXIXIXIXIXIXIXIXIXIXIXIXIXIXIXIXIXIXIXIXIXIXIXIXIXIXIXIXIXIXIXIXIXIXIXIXIXIXIXIXIXIXIXIXIXIXIXIXIXIXIXIXIXIXIXIXIXIX",
"IXIXIXIXIXIXIXIXIXIXIXIXIXIXIXIXIXIXIXIXIXIXIXIXIXIXIXIXIXIXIXIXIXIXIXIXIXIXIXIXIXIXIXIXIXIXIXIXIXIXIXIXIXIXIXIXIXIXIXIXIXIXIXIX",
"IXIXIXIXIXIXIXIXIXIXIXIXIXIXIXIXIXIXIXIXIXIXIXIXIXIXIXIXIXIXIXIXIXIXIXIXIXIXIXIXIXIXIXIXIXIXIXIXIXIXIXIXIXIXIXIXIXIXIXIXIXIXIXIX",
"IXIXIXIXIXIXIXIXIXIXIXIXIXIXIXIXIXIXIXIXIXIXIXIXIXIXIXIXIXIXIXIXIXIXIXIXIXIXIXIXIXIXIXIXIXIXIXIXIXIXIXIXIXIXIXIXIXIXIXIXIXIXIXIX",
"IXIXIXIXIXIXIXIXIXIXIXIXIXIXIXIXIXIXIXIXIXIXIXIXIXIXIXIXIXIXIXIXIXIXIXIXIXIXIXIXIXIXIXIXIXIXIXIXIXIXIXIXIXIXIXIXIXIXIXIXIXIXIXIX",
"IXIXIXIXIXIXIXIXIXIXIXIXIXIXIXIXIXIXIXIXIXIXIXIXIXIXIXIXIXIXIXIXIXIXIXIXIXIXIXIXIXIXIXIXIXIXIXIXIXIXIXIXIXIXIXIXIXIXIXIXIXIXIXIX",
"IXIXIXIXIXIXIXIXIXIXIXIXIXIXIXIXIXIXIXIXIXIXIXIXIXIXIXIXIXIXIXIXIXIXIXIXIXIXIXIXIXIXIXIXIXIXIXIXIXIXIXIXIXIXIXIXIXIXIXIXIXIXIXIX",
"IXIXIXIXIXIXIXIXIXIXIXIXIXIXIXIXIXIXIXIXIXIXIXIXIXIXIXIXIXIXIXIXIXIXIXIXIXIXIXIXIXIXIXIXIXIXIXIXIXIXIXIXIXIXIXIXIXIXIXIXIXIXIXIX",
"IXIXIXIXIXIXIXIXIXIXIXIXIXIXIXIXIXIXIXIXIXIXIXIXIXIXIXIXIXIXIXIXIXIXIXIXIXIXIXIXIXIXIXIXIXIXIXIXIXIXIXIXIXIXIXIXIXIXIXIXIXIXIXIX",
"IXIXIXIXIXIXIXIXIXIXIXIXIXIXIXIXIXIXIXIXIXIXIXIXIXIXIXIXIXIXIXIXIXIXIXIXIXIXIXIXIXIXIXIXIXIXIXIXIXIXIXIXIXIXIXIXIXIXIXIXIXIXIXIX",
"IXIXIXIXIXIXIXIXIXIXIXIXIXIXIXIXIXIXIXIXIXIXIXIXIXIXIXIXIXIXIXIXIXIXIXIXIXIXIXIXIXIXIXIXIXIXIXIXIXIXIXIXIXIXIXIXIXIXIXIXIXIXIXIX",
"IXIXIXIXIXIXIXIXIXIXIXIXIXIXIXIXIXIXIXIXIXIXIXIXIXIXIXIXIXIXIXIXIXIXIXIXIXIXIXIXIXIXIXIXIXIXIXIXIXIXIXIXIXIXIXIXIXIXIXIXIXIXIXIX",
"IXIXIXIXIXIXIXIXIXIXIXIXIXIXIXIXIXIXIXIXIXIXIXIXIXIXIXIXIXIXIXIXIXIXIXIXIXIXIXIXIXIXIXIXIXIXIXIXIXIXIXIXIXIXIXIXIXIXIXIXIXIXIXIX",
"IXIXIXIXIXIXIXIXIXIXIXIXIXIXIXIXIXIXIXIXIXIXIXIXIXIXIXIXIXIXIXIXIXIXIXIXIXIXIXIXIXIXIXIXIXIXIXIXIXIXIXIXIXIXIXIXIXIXIXIXIXIXIXIX",
"IXIXIXIXIXIXIXIXIXIXIXIXIXIXIXIXIXIXIXIXIXIXIXIXIXIXIXIXIXIXIXIXIXIXIXIXIXIXIXIXIXIXIXIXIXIXIXIXIXIXIXIXIXIXIXIXIXIXIXIXIXIXIXIX",
"IXIXIXIXIXIXIXIXIXIXIXIXIXIXIXIXIXIXIXIXIXIXIXIXIXIXIXIXIXIXIXIXIXIXIXIXIXIXIXIXIXIXIXIXIXIXIXIXIXIXIXIXIXIXIXIXIXIXIXIXIXIXIXIX",
"IXIXIXIXIXIXIXIXIXIXIXIXIXIXIXIXIXIXIXIXIXIXIXIXIXIXIXIXIXIXIXIXIXIXIXIXIXIXIXIXIXIXIXIXIXIXIXIXIXIXIXIXIXIXIXIXIXIXIXIXIXIXIXIX",
"IXIXIXIXIXIXIXIXIXIXIXIXIXIXIXIXIXIXIXIXIXIXIXIXIXIXIXIXIXIXIXIXIXIXIXIXIXIXIXIXIXIXIXIXIXIXIXIXIXIXIXIXIXIXIXIXIXIXIXIXIXIXIXIX",
"IXIXIXIXIXIXIXIXIXIXIXIXIXIXIXIXIXIXIXIXIXIXIXIXIXIXIXIXIXIXIXIXIXIXIXIXIXIXIXIXIXIXIXIXIXIXIXIXIXIXIXIXIXIXIXIXIXIXIXIXIXIXIXIX",
"IXIXIXIXIXIXIXIXIXIXIXIXIXIXIXIXIXIXIXIXIXIXIXIXIXIXIXIXIXIXIXIXIXIXIXIXIXIXIXIXIXIXIXIXIXIXIXIXIXIXIXIXIXIXIXIXIXIXIXIXIXIXIXIX",
"IXIXIXIXIXIXIXIXIXIXIXIXIXIXIXIXIXIXIXIXIXIXIXIXIXIXIXIXIXIXIXIXIXIXIXIXIXIXIXIXIXIXIXIXIXIXIXIXIXIXIXIXIXIXIXIXIXIXIXIXIXIXIXIX",
"IXIXIXIXIXIXIXIXIXIXIXIXIXIXIXIXIXIXIXIXIXIXIXIXIXIXIXIXIXIXIXIXIXIXIXIXIXIXIXIXIXIXIXIXIXIXIXIXIXIXIXIXIXIXIXIXIXIXIXIXIXIXIXIX",
"IXIXIXIXIXIXIXIXIXIXIXIXIXIXIXIXIXIXIXIXIXIXIXIXIXIXIXIXIXIXIXIXIXIXIXIXIXIXIXIXIXIXIXIXIXIXIXIXIXIXIXIXIXIXIXIXIXIXIXIXIXIXIXIX",
"IXIXIXIXIXIXIXIXIXIXIXIXIXIXIXIXIXIXIXIXIXIXIXIXIXIXIXIXIXIXIXIXIXIXIXIXIXIXIXIXIXIXIXIXIXIXIXIXIXIXIXIXIXIXIXIXIXIXIXIXIXIXIXIX",
"IXIXIXIXIXIXIXIXIXIXIXIXIXIXIXIXIXIXIXIXIXIXIXIXIXIXIXIXIXIXIXIXIXIXIXIXIXIXIXIXIXIXIXIXIXIXIXIXIXIXIXIXIXIXIXIXIXIXIXIXIXIXIXIX",
"IXIXIXIXIXIXIXIXIXIXIXIXIXIXIXIXIXIXIXIXIXIXIXIXIXIXIXIXIXIXIXIXIXIXIXIXIXIXIXIXIXIXIXIXIXIXIXIXIXIXIXIXIXIXIXIXIXIXIXIXIXIXIXIX",
"IXIXIXIXIXIXIXIXIXIXIXIXIXIXIXIXIXIXIXIXIXIXIXIXIXIXIXIXIXIXIXIXIXIXIXIXIXIXIXIXIXIXIXIXIXIXIXIXIXIXIXIXIXIXIXIXIXIXIXIXIXIXIXIX",
"IXIXIXIXIXIXIXIXIXIXIXIXIXIXIXIXIXIXIXIXIXIXIXIXIXIXIXIXIXIXIXIXIXIXIXIXIXIXIXIXIXIXIXIXIXIXIXIXIXIXIXIXIXIXIXIXIXIXIXIXIXIXIXIX",
"IXIXIXIXIXIXIXIXIXIXIXIXIXIXIXIXIXIXIXIXIXIXIXIXIXIXIXIXIXIXIXIXIXIXIXIXIXIXIXIXIXIXIXIXIXIXIXIXIXIXIXIXIXIXIXIXIXIXIXIXIXIXIXIX",
"IXIXIXIXIXIXIXIXIXIXIXIXIXIXIXIXIXIXIXIXIXIXIXIXIXIXIXIXIXIXIXIXIXIXIXIXIXIXIXIXIXIXIXIXIXIXIXIXIXIXIXIXIXIXIXIXIXIXIXIXIXIXIXIX",
"IXIXIXIXIXIXIXIXIXIXIXIXIXIXIXIXIXIXIXIXIXIXIXIXIXIXIXIXIXIXIXIXIXIXIXIXIXIXIXIXIXIXIXIXIXIXIXIXIXIXIXIXIXIXIXIXIXIXIXIXIXIXIXIX",
"IXIXIXIXIXIXIXIXIXIXIXIXIXIXIXIXIXIXIXIXIXIXIXIXIXIXIXIXIXIXIXIXIXIXIXIXIXIXIXIXIXIXIXIXIXIXIXIXIXIXIXIXIXIXIXIXIXIXIXIXIXIXIXIX",
"IXIXIXIXIXIXIXIXIXIXIXIXIXIXIXIXIXIXIXIXIXIXIXIXIXIXIXIXIXIXIXIXIXIXIXIXIXIXIXIXIXIXIXIXIXIXIXIXIXIXIXIXIXIXIXIXIXIXIXIXIXIXIXIX",
"IXIXIXIXIXIXIXIXIXIXIXIXIXIXIXIXIXIXIXIXIXIXIXIXIXIXIXIXIXIXIXIXIXIXIXIXIXIXIXIXIXIXIXIXIXIXIXIXIXIXIXIXIXIXIXIXIXIXIXIXIXIXIXIX",
"IXIXIXIXIXIXIXIXIXIXIXIXIXIXIXIXIXIXIXIXIXIX                                IXIXIXIXIXIXIXIXIXIXIXIXIXIXIXIXIXIXIXIXIXIXIXIXIXIX",
"IXIXIXIXIXIXIXIXIXIXIXIXIXIXIXIXIXIXIXIXIXIXr f d d d d d d d d d d d d f r IXIXIXIXIXIXIXIXIXIXIXIXIXIXIXIXIXIXIXIXIXIXIXIXIXIX",
"IXIXIXIXIXIXIXIXIXIXIXIXIXIXIXIXIXIXIXIX  0 O.H.F.9.9.9.9.9.9.9.9.9.9.F.H.+.w       IXIXIXIXIXIXIXIXIXIXIXIXIXIXIXIXIXIXIXIXIXIX",
"IXIXIXIXIXIXIXIXIXIXIXIXIXIXIXIXIXIXIXIX7 R W.PXPXPXPXPXPXPXPXPXPXPXPXPXPX!.E u a r IXIXIXIXIXIXIXIXIXIXIXIXIXIXIXIXIXIXIXIXIXIX",
"IXIXIXIXIXIXIXIXIXIXIXIXIXIXIXIXIXIX  7 o.W.NXPXPXPXPXPXPXPXPXPXPXPXPXPXPXMXE.9.F.+.w       IXIXIXIXIXIXIXIXIXIXIXIXIXIXIXIXIXIX",
"IXIXIXIXIXIXIXIXIXIXIXIXIXIXIXIXIXIX0 R W.PXPXPXPXPXPXPXPXfXE.E.fXPXPXPXPXPXPXPXPX!.E u p d IXIXIXIXIXIXIXIXIXIXIXIXIXIXIXIXIXIX",
"IXIXIXIXIXIXIXIXIXIXIXIXIXIXIXIX  r O.W.NXPXPXPXPXPXPXPXPXI.U U I.PXPXPXPXPXPXPXPXMXE.7.8.D.IXIXIXIXIXIXIXIXIXIXIXIXIXIXIXIXIXIX",
"IXIXIXIXIXIXIXIXIXIXIXIXIXIXIXIX  s J.PXPXPXPXPXPXPXPXPXPX2.5 5 2.PXPXPXPXPXPXPXPXPXPXPXPXnXIXIXIXIXIXIXIXIXIXIXIXIXIXIXIXIXIXIX",
"IXIXIXIXIXIXIXIXIXIXIXIXIXIXIXIX  i G.PXPXPXPXPXPXPXPXPXPX2.5 5 2.PXPXPXPXPXPXPXPXPXPXPXPXP.V   IXIXIXIXIXIXIXIXIXIXIXIXIXIXIXIX",
"IXIXIXIXIXIXIXIXIXIXIXIXIXIXIXIX@ P N.2XL.6.4.I.fXPXPXPXPXI.U U I.PXPXPXPXfXI.3.5.K.1XxXLXU.T V IXIXIXIXIXIXIXIXIXIXIXIXIXIXIXIX",
"IXIXIXIXIXIXIXIXIXIXIXIXIXIX  @ { y.M.$.A 9 8 U E.PXPXPXPXfXE.E.fXPXPXPXPXE.U 6 8 Z ' C.xXcXY.I.nX8.e   IXIXIXIXIXIXIXIXIXIXIXIX",
"IXIXIXIXIXIXIXIXIXIXIXIXIXIX+ D g.,XB.` C # : Y E.PXPXPXPXPXPXPXPXPXPXPXPXE.U 6 8 Z ' V.zXPXPXPXPXT.R 7 IXIXIXIXIXIXIXIXIXIXIXIX",
"IXIXIXIXIXIXIXIXIXIX      % [ f.(.<X^.n.t.-.1.R.gXPXPXPXPXPXPXPXPXPXPXPXPXfXI.3.5.K.1XlXCXPXPXPXPXmXW.o.7   IXIXIXIXIXIXIXIXIXIX",
"IXIXIXIXIXIXIXIXIXIX= 1 > F j.9X>X XXXOX:XsXbXHXPXPXPXPXPXKXDXBXBXBXBXSXJXPXPXPXPXPXPXPXPXPXPXPXPXPXPXW.R 7 IXIXIXIXIXIXIXIXIXIX",
"IXIXIXIXIXIXIXIX  $ ] <.:.u.~.>X&X X.XoX-X5XiXkXGXPXPXPXPXFXjXeXeXeXeXjXDXPXPXPXPXPXPXPXPXPXPXPXPXPXPXNXW.O.q       IXIXIXIXIXIX",
"IXIXIXIXIXIXIXIX$ S d.yX9X>X@X X X X X X X}.{.0XvXVXVXVXVXvX0X[.{.{.[.0XvXVXVXZXJXPXPXPXPXPXPXPXPXPXPXPXPXQ.I - , > IXIXIXIXIXIX",
"IXIXIXIXIXIX  = ] d./.3X>X*X@X X X X X X X X}.+XqXpXpXpXpXqX+X}.}.}.}.+XqXtXeXjXZXPXPXPXPXPXPXPXPXPXPXPXPXhXi.=.>.} >   IXIXIXIX",
"IXIXIXIXIXIX  1 <.yX3X X X X X X X X X X X X X X}.}.}.}.}.}. X X X X X X}.{.].eXVXPXPXPXPXPXPXPXPXPXPXPXPXAXdX9XuX0.t   IXIXIXIX",
"IXIXIXIXIXIX  > :.9X>X X X X X X X X X X X X X X|.}.}.}.}.|. X X X X X X|.{.{.eXVXPXPXPXPXPXPXPXPXPXPXPXPXAXaX6X9X,.t   IXIXIXIX",
"IXIXIXIXIXIX% F u.>X*X X X X X X X X X X X X X X X X X X X X X X X X X X X|.}.wXvXVXVXBXBXBXBXBXBXBXBXVXVXvXwX-X3X&.<   IXIXIXIX",
"IXIXIXIX  + [ j.~.@X@X X X X X X X X X X X X X X X X X X X X X X X X X X X X X#XwXpXpXpXpXpXpXpXpXpXpXpXpXwX#X;X4X%.>   IXIXIXIX",
"IXIXIXIX& G h.rX6X&X;X;X=X&X&X&X&X&X&X&X&X&X&X&X&X&X&X&X&X&X&X&X&X=X;X;X=X&X&X&X*X*X*X*X*X*X%X$X$X$X$X%X*X-X;X6X8Xh.H * IXIXIXIX",
"IXIX  = | k.).3X>X>X3X3X>X:X:X:X:X:X:X:X:X:X:X:X:X:X:X:X:X:X:X:X:X>X3X3X>X:X:X:X>X3X3X3X3X>X;X-X-X-X-X;X>X3X4X7X7X`.l. .;   IXIX",
"IXIX  y @.S.'._.m.p.q.w.a.z.z.z.z.z.z.z.z.z.z.z.z.z.z.z.z.z.z.z.z.a.w.w.a.x.x.s.e.*.;.;.*.e.s.z.z.z.z.s.e.*.;.*.*.r.c.#.h   IXIX",
"IXIXIXIXQ X.Z.A...J j k K ( / ^ ^ ^ ^ ^ ^ ^ ^ ^ ^ ^ ^ ^ ^ ^ ^ / ( K k k K _ _ L c 3 4 4 3 c L ( / / ( L c 3 4 4 2 B W ! IXIXIXIX",
"IXIXIXIXv ~ v.b.) g . X l m n b b b b b b b b b b b b b b b b n m l X X l M M z o         o z m n n m z o         O x N IXIXIXIX"
};
