/* XPM */
static char *result[] = {
/* columns rows colors chars-per-pixel */
"64 64 162 2 ",
"   c #1C1D2F",
".  c #171E2E",
"X  c #1D1731",
"o  c #1E1B31",
"O  c #211C31",
"+  c #2A1D32",
"@  c #341E35",
"#  c #3D1E36",
"$  c #1D2E2A",
"%  c #192A2C",
"&  c #1E3727",
"*  c #1D3328",
"=  c #1F3827",
"-  c #21252E",
";  c #223529",
":  c #2D362C",
">  c #243928",
",  c #2E3A2B",
"<  c #333C2C",
"1  c #2A2131",
"2  c #3E2134",
"3  c #26373B",
"4  c #451E32",
"5  c #481D39",
"6  c #5A1E3C",
"7  c #442335",
"8  c #4C2336",
"9  c #4D2936",
"0  c #502A36",
"q  c #62233B",
"w  c #67293C",
"e  c #742E3B",
"r  c #245B1C",
"t  c #21561D",
"y  c #1A6419",
"u  c #14711A",
"i  c #246D17",
"p  c #29621C",
"a  c #267116",
"s  c #23751D",
"d  c #347917",
"f  c #337219",
"g  c #377918",
"h  c #397A18",
"j  c #0C5422",
"k  c #274B23",
"l  c #284625",
"z  c #334C26",
"x  c #34402B",
"c  c #355125",
"v  c #3F4635",
"b  c #1E6E25",
"n  c #206F26",
"m  c #257F27",
"M  c #2E7923",
"N  c #347B24",
"B  c #517D1F",
"V  c #4F7B1F",
"C  c #435428",
"Z  c #4A5B2D",
"A  c #404834",
"S  c #404735",
"D  c #4D6B25",
"F  c #526D24",
"G  c #5D7F21",
"H  c #661C41",
"J  c #6D1C43",
"K  c #386D54",
"L  c #474D58",
"P  c #565765",
"I  c #575865",
"U  c #585866",
"Y  c #85293E",
"T  c #82273E",
"R  c #92383F",
"E  c #A0293F",
"W  c #841D46",
"Q  c #861C47",
"!  c #931F48",
"~  c #A91F4D",
"^  c #892046",
"/  c #942247",
"(  c #9B2744",
")  c #9C2843",
"_  c #993940",
"`  c #A32C42",
"'  c #AD2A47",
"]  c #B1254C",
"[  c #B6294C",
"{  c #BC2A49",
"}  c #A93143",
"|  c #B33C44",
" . c #B73545",
".. c #C52C49",
"X. c #CC2F49",
"o. c #CF3048",
"O. c #C73649",
"+. c #D13249",
"@. c #D53C4B",
"#. c #DB384A",
"$. c #E03F4B",
"%. c #B54044",
"&. c #B94144",
"*. c #C54246",
"=. c #D6404B",
"-. c #DB424B",
";. c #E8464B",
":. c #2D8E0E",
">. c #2E8513",
",. c #378C12",
"<. c #3A8D12",
"1. c #338615",
"2. c #369110",
"3. c #3A9111",
"4. c #4F8F1D",
"5. c #5F891F",
"6. c #469114",
"7. c #499514",
"8. c #519517",
"9. c #55901B",
"0. c #5C941C",
"q. c #5F9A19",
"w. c #549A16",
"e. c #61961C",
"r. c #639D1A",
"t. c #6C9D1C",
"y. c #709F1C",
"u. c #66A01A",
"i. c #6EA11C",
"p. c #73A21D",
"a. c #5E8321",
"s. c #5F8820",
"d. c #579020",
"f. c #599220",
"g. c #618421",
"h. c #648A21",
"j. c #6B8F27",
"k. c #679524",
"l. c #7DAB25",
"z. c #76A124",
"x. c #3A854E",
"c. c #448861",
"v. c #80AE26",
"b. c #88B52D",
"n. c #82B125",
"m. c #84A13E",
"M. c #80A236",
"N. c #8FBA32",
"B. c #8AB333",
"V. c #90BB32",
"C. c #9AC43A",
"Z. c #A5CD42",
"A. c #A7D042",
"S. c #A8D143",
"D. c #9DAEAA",
"F. c #99C1A7",
"G. c #CDCCD2",
"H. c #D1CFD5",
"J. c #C7DDD0",
"K. c #CADFD3",
"L. c #CBE0D4",
"P. c None",
/* pixels */
"P.P.P.P.P.P.P.P.P.P.P.P.P.P.P.P.P.P.P.P.P.P.P.P.P.P.P.P.P.P.P.P.P.P.P.P.P.P.P.P.P.P.P.P.P.P.P.P.P.P.P.P.P.P.P.P.P.P.P.P.P.P.P.P.",
"P.P.P.P.P.P.P.P.P.P.P.P.P.P.P.P.P.P.P.P.P.P.P.P.P.P.P.P.P.P.P.P.P.P.P.P.P.P.P.P.P.P.P.P.P.P.P.P.P.P.P.P.P.P.P.P.P.P.P.P.P.P.P.P.",
"P.P.P.P.P.P.P.P.P.P.P.P.P.P.P.P.P.P.P.P.P.P.P.P.P.P.P.P.P.P.P.P.P.P.P.P.P.P.P.P.P.P.P.P.P.P.P.P.P.P.P.P.P.P.P.P.P.P.P.P.P.P.P.P.",
"P.P.P.P.P.P.P.P.P.P.P.P.P.P.P.P.P.P.P.P.P.P.P.P.P.P.P.P.P.P.P.P.P.P.P.P.P.P.P.P.P.P.P.P.P.P.P.P.P.P.P.P.P.P.P.P.P.P.P.P.P.P.P.P.",
"P.P.P.P.P.P.P.P.P.P.P.P.P.P.P.P.P.P.P.P.P.P.P.P.P.P.P.P.P.P.P.P.P.P.P.P.P.P.P.P.P.P.P.P.P.P.P.P.P.P.P.P.P.P.P.P.P.P.P.P.P.P.P.P.",
"P.P.P.P.P.P.P.P.P.P.P.P.P.P.P.P.P.P.P.P.P.P.P.P.P.P.P.P.P.P.P.P.P.P.P.P.P.P.P.P.P.P.P.P.P.P.P.P.P.P.P.P.P.P.P.P.P.P.P.P.P.P.P.P.",
"P.P.P.P.P.P.P.P.P.P.P.P.P.P.P.P.P.P.P.P.P.P.P.P.P.P.P.P.P.P.P.P.P.P.P.P.P.P.P.P.P.P.P.P.P.P.P.P.P.P.P.P.P.P.P.P.P.P.P.P.P.P.P.P.",
"P.P.P.P.P.P.P.P.P.P.P.P.P.P.P.P.P.P.P.P.P.P.P.P.P.P.P.P.P.P.P.P.P.P.P.P.P.P.P.P.P.P.P.P.P.P.P.P.P.P.P.P.P.P.P.P.P.P.P.P.P.P.P.P.",
"P.P.P.P.P.P.P.P.P.P.% X         P.P.P.P.P.P.o o o O o o o O o o o O P.P.P.P.P.P.o o o o o o o O P.P.P.P.P.P.P.P.P.P.P.P.P.P.P.P.",
"P.P.P.P.P.P.P.P.P.P.9 0 9 0 9 9 P.P.P.P.P.P.< x x x x x x x x x x < P.P.P.P.P.P.x x x x x x x x P.P.P.P.P.P.P.P.P.P.P.P.P.P.P.P.",
"P.P.P.P.P.P.P.P.  9 _ | %.%.%._ 7 . P.P.o < F g.g.g.a.a.g.g.a.g.g.F < o P.P.o < F g.g.g.a.a.g.F < o P.P.P.P.P.P.P.P.P.P.P.P.P.P.",
"P.P.P.P.P.P.P.P.  9 | ;.;.;.;.| w 2 P.P.o , D s.a.a.a.a.a.a.a.a.s.D , o P.P.o : D s.g.a.a.a.s.D : o P.P.P.P.P.P.P.P.P.P.P.P.P.P.",
"P.P.P.P.P.P.P.P.O 8 } #.#.@.#.../ J # o X - : x x x < x x x < < x , - o       - , x < x < x < : - o P.P.P.P.P.P.P.P.P.P.P.P.P.P.",
"P.P.P.P.P.P.P.P.  7 Y ` ` ' { ' / J 5 5 7 9 9 9 9 9 9 8 8 7 9 9 7 8 7 8 8 8 8 9 9 9 8 9 8 9 9 9 0 0 P.P.P.P.P.P.P.P.P.P.P.P.P.P.",
"P.P.P.P.P.P.P.P.P.P.7 7 7 q / ! 6 5 J ^ ) } | | | %.%.| } } } | ' ` ` ` ) ` ` } | | ` ` | %.%.%.&._ 9   P.P.P.P.P.P.P.P.P.P.P.P.",
"P.P.P.P.P.P.P.P.P.P.7 7 # 5 J H @ @ H Q (  .@.=.=.=.@.@.+.+.@.@.+.o.o.o.+.+.o.+.@.@.+.+.@.@.=.=.&._ 7   P.P.P.P.P.P.P.P.P.P.P.P.",
"P.P.P.P.P.P.P.P.% 5 Y ) Q J 5 @ + - @ 5 2 H ( ] ] ] ] ] ....[ [ ..o.o.o.o.o.o...[ [ ..X.[ ] ] ( w 7 1 - P.P.P.P.P.P.P.P.P.P.P.P.",
"P.P.P.P.P.P.P.P.  8 } +.{ Q 4 O @ # # 5 7 0 ! ~ ~ ] ~ ] ....] ] ..o.o.o.o.o.+...] ] ....] ~ ~ ! q 2 1 - P.P.P.P.P.P.P.P.P.P.P.P.",
"P.P.P.P.P.P.P.P.  0 E ;.+.) 7 @ H Q J Q ( ' ....X.......O.X.....X.o.o.o.o.o.+.o.....X.X......... .e 2   P.P.P.P.P.P.P.P.P.P.P.P.",
"P.P.P.P.P.P.P.P.% 0 &.;.#.` 7 # H Q Q ! ( ' ` ` E E E E ` E E E E ` ` ` ` ` ` E E E E E E E E E ' ^ 2 o P.P.P.P.P.P.P.P.P.P.P.P.",
"P.P.P.P.P.P.P.P.  0 %.;.@.` 8 + @ # # 5 8 8 8 5 8 8 4 4 4 4 4 4 4 4 5 5 7 5 8 8 4 4 4 4 7 4 4 4 7 4 1 o P.P.P.P.P.P.P.P.P.P.P.P.",
"P.P.P.P.P.P.P.P.  0 %.-. .^ 2   * = * & * & & * & 3 L I I P P P U L 3 * * & $ 3 L U P P P P P L 3 $ * ; P.P.P.P.P.P.P.P.P.P.P.P.",
"P.P.P.P.P.P.P.P.  0 &.*.e 2 + * t i i i i i i y j K D.H.G.G.G.H.H.D.K j y y j K D.H.H.G.G.H.H.D.K j y p ; O P.P.P.P.P.P.P.P.P.P.",
"P.P.P.P.P.P.P.P.  0 R R 7 % * k g 3.3.3.,.<.2.>.u x.D.K.K.J.J.K.K.F.x.u >.>.u x.F.K.K.J.J.L.L.F.x.u >.f > O P.P.P.P.P.P.P.P.P.P.",
"P.P.P.P.P.P.P.P.P.P.9 7 1 * r d 8.r.r.q.r.r.q.8.>.m x.c.c.c.c.c.c.x.m 1.8.8.>.m x.c.c.c.c.c.c.x.>.>.7.G < O P.P.P.P.P.P.P.P.P.P.",
"P.P.P.P.P.P.P.P.P.P.% o o > f 7.r.z.p.p.p.z.p.r.7.1.s b b b u n u s 1.7.t.u.7.1.s b b b b y b s 1.7.u.g.x o P.P.P.P.P.P.P.P.P.P.",
"P.P.P.P.P.P.P.P.P.P.P.P.o < B u.i.p.p.p.p.p.p.i.u.q.0.9.f.9.9.9.5.0.r.r.i.p.t.r.0.9.f.9.9.9.9.9.f.u.p.a.< o P.P.P.P.P.P.P.P.P.P.",
"P.P.P.P.P.P.P.P.P.P.P.P.O < g.p.p.p.p.p.p.p.p.t.f.d.s.0.f.f.f.f.f.f.f.d.d.d.d.0.f.f.f.f.0.d.f.k.t.z.z.a.x o P.P.P.P.P.P.P.P.P.P.",
"P.P.P.P.P.P.P.P.P.P.P.P.O < a.z.p.p.p.i.p.p.p.k.N b b n n n n n n n n b b b n n n n n n n b b N f.z.p.s.< o P.P.P.P.P.P.P.P.P.P.",
"P.P.P.P.P.P.P.P.P.P.P.P.O < g.p.p.p.p.p.p.i.e.4.M b n n n b n n b n n b b n n b b b n b b b b M d.u.i.a.< o P.P.P.P.P.P.P.P.P.P.",
"P.P.P.P.P.P.P.P.P.P.P.P.o x a.p.p.p.p.p.p.r.6.<.4.f.d.f.d.f.d.9.f.f.d.d.d.d.d.d.d.f.f.f.d.d.f.4.<.7.u.a.x O P.P.P.P.P.P.P.P.P.P.",
"P.P.P.P.P.P.P.P.P.P.P.P.o < a.p.p.p.p.p.p.r.6.6.r.z.p.p.p.p.z.i.u.f.r.r.r.r.r.r.r.r.p.p.p.z.z.r.6.6.u.g.< O P.P.P.P.P.P.P.P.P.P.",
"P.P.P.P.P.P.P.P.P.P.P.P.o x g.p.p.p.p.p.p.t.r.r.t.p.p.p.p.p.p.r.7.<.<.<.<.<.<.<.,.6.r.p.p.p.p.y.r.r.p.g.< o P.P.P.P.P.P.P.P.P.P.",
"P.P.P.P.P.P.P.P.P.P.P.P.O < F g.e.r.p.p.p.p.p.p.p.p.p.y.p.p.p.r.6.<.,.3.,.,.,.,.,.6.r.p.p.p.p.y.t.e.5.F < o P.P.P.P.P.P.P.P.P.P.",
"P.P.P.P.P.P.P.P.P.P.P.P.P.P.< z g 7.r.p.z.p.p.p.p.p.p.p.p.p.p.t.k.q.q.q.q.r.q.q.r.r.t.p.p.p.p.r.7.f c < P.P.P.P.P.P.P.P.P.P.P.P.",
"P.P.P.P.P.P.P.P.P.P.P.P.P.P.X ; r g 4.r.r.r.p.p.y.p.y.p.p.p.p.p.p.p.p.p.p.p.p.p.p.p.p.p.t.r.r.9.g r * o P.P.P.P.P.P.P.P.P.P.P.P.",
"P.P.P.P.P.P.P.P.P.P.P.P.P.P.P.P.* k g 2.3.6.r.p.y.p.p.p.p.p.p.p.p.p.p.p.p.p.p.p.p.p.p.r.6.,.3.d k ; P.P.P.P.P.P.P.P.P.P.P.P.P.P.",
"P.P.P.P.P.P.P.P.P.P.P.P.P.P.P.P.X ; r i i g 0.p.z.p.t.p.p.y.t.p.y.y.y.y.p.p.p.t.p.p.p.0.g i i r ; O P.P.P.P.P.P.P.P.P.P.P.P.P.P.",
"P.P.P.P.P.P.P.P.P.P.P.P.P.P.P.P.P.P.; ; ; c a.p.p.p.p.p.p.y.y.p.p.y.y.y.y.p.p.t.p.p.p.5.c ; ; ; P.P.P.P.P.P.P.P.P.P.P.P.P.P.P.P.",
"P.P.P.P.P.P.P.P.P.P.P.P.P.P.P.P.P.P.O X X < a.p.p.p.p.y.l.l.l.l.v.v.v.l.l.l.v.l.l.l.p.G < o O O P.P.P.P.P.P.P.P.P.P.P.P.P.P.P.P.",
"P.P.P.P.P.P.P.P.P.P.P.P.P.P.P.P.P.P.P.P.X < G p.p.p.y.z.N.C.C.C.V.C.V.Z.V.C.C.C.C.V.M.G < O P.P.P.P.P.P.P.P.P.P.P.P.P.P.P.P.P.P.",
"P.P.P.P.P.P.P.P.P.P.P.P.P.P.P.P.P.P.P.P.< C h.p.p.z.l.b.C.Z.Z.Z.Z.Z.Z.Z.Z.Z.Z.Z.Z.C.b.j.C < P.P.P.P.P.P.P.P.P.P.P.P.P.P.P.P.P.P.",
"P.P.P.P.P.P.P.P.P.P.P.P.P.P.P.P.P.P.X < F h.k.p.p.z.V.C.Z.Z.Z.Z.Z.Z.Z.Z.Z.Z.Z.Z.Z.Z.C.B.j.F < o P.P.P.P.P.P.P.P.P.P.P.P.P.P.P.P.",
"P.P.P.P.P.P.P.P.P.P.P.P.P.P.P.P.P.P.< C h.p.p.p.p.v.C.Z.Z.Z.Z.Z.Z.Z.Z.Z.Z.Z.Z.Z.Z.Z.Z.C.v.a.< O P.P.P.P.P.P.P.P.P.P.P.P.P.P.P.P.",
"P.P.P.P.P.P.P.P.P.P.P.P.P.P.P.P.  < F h.y.p.p.p.y.l.C.Z.Z.Z.Z.Z.Z.Z.Z.Z.Z.Z.Z.Z.Z.Z.Z.C.n.G < O O O P.P.P.P.P.P.P.P.P.P.P.P.P.P.",
"P.P.P.P.P.P.P.P.P.P.P.P.P.P.P.P.; c h.p.p.p.p.p.y.l.C.Z.Z.Z.Z.Z.Z.Z.Z.Z.Z.Z.Z.Z.Z.Z.Z.C.v.G < O ; ; P.P.P.P.P.P.P.P.P.P.P.P.P.P.",
"P.P.P.P.P.P.P.P.P.P.P.P.P.P.O ; t g q.p.p.p.p.p.y.l.C.Z.Z.Z.Z.Z.Z.Z.Z.Z.Z.Z.C.Z.Z.Z.Z.C.v.G < ; r r ; O P.P.P.P.P.P.P.P.P.P.P.P.",
"P.P.P.P.P.P.P.P.P.P.P.P.P.P.O > i 3.r.i.t.e.5.h.t.l.C.Z.Z.Z.Z.Z.Z.Z.Z.Z.Z.Z.Z.Z.Z.Z.Z.C.n.G < ; a a > O P.P.P.P.P.P.P.P.P.P.P.P.",
"P.P.P.P.P.P.P.P.P.P.P.P.P.P.O ; i 3.r.u.7.g z C g.v.C.A.Z.Z.Z.Z.Z.Z.Z.Z.Z.Z.Z.Z.Z.Z.Z.C.l.a.< = a a > O P.P.P.P.P.P.P.P.P.P.P.P.",
"P.P.P.P.P.P.P.P.P.P.P.P.P.P.O > i 2.w.9.g r l C g.l.V.C.Z.S.A.Z.Z.A.Z.Z.Z.Z.A.A.A.Z.C.N.l.g.C z p r ; O P.P.P.P.P.P.P.P.P.P.P.P.",
"P.P.P.P.P.P.P.P.P.P.P.P.P.P.O ; i :.2.d k l D h.y.p.l.b.C.S.S.Z.A.A.A.A.A.A.S.S.A.C.b.l.p.t.h.F z ; - O P.P.P.P.P.P.P.P.P.P.P.P.",
"P.P.P.P.P.P.P.P.P.P.P.P.P.P.O ; r i i r l z h.p.p.p.y.z.M.m.m.m.m.m.m.m.m.m.m.m.m.M.z.p.p.p.p.a.< o O O P.P.P.P.P.P.P.P.P.P.P.P.",
"P.P.P.P.P.P.P.P.P.P.P.P.P.P.P.P.; ; ; l r g r.p.p.p.p.h.Z S v A A A A A S A A S S Z j.p.p.p.p.a.< O P.P.P.P.P.P.P.P.P.P.P.P.P.P.",
"P.P.P.P.P.P.P.P.P.P.P.P.P.P.P.P.O O O ; a 3.r.p.p.p.p.g.< o o o   X X     o     $ z g.p.p.p.u.G < o P.P.P.P.P.P.P.P.P.P.P.P.P.P.",
"P.P.P.P.P.P.P.P.P.P.P.P.P.P.P.P.P.P.O ; i 3.q.p.p.p.p.g.< X P.P.P.P.P.P.P.P.o $ t g r.p.p.r.7.f ; O P.P.P.P.P.P.P.P.P.P.P.P.P.P.",
"P.P.P.P.P.P.P.P.P.P.P.P.P.P.P.P.P.P.O ; i <.r.p.p.y.h.F < o P.P.P.P.P.P.P.P.O > i 2.w.r.r.8.d r ; O P.P.P.P.P.P.P.P.P.P.P.P.P.P.",
"P.P.P.P.P.P.P.P.P.P.P.P.P.P.P.P.P.P.O ; i <.q.p.p.h.C < P.P.P.P.P.P.P.P.P.P.+ ; s :.2.<.3.g l ; P.P.P.P.P.P.P.P.P.P.P.P.P.P.P.P.",
"P.P.P.P.P.P.P.P.P.P.P.P.P.P.P.P.P.P.O > i <.r.p.u.V , X P.P.P.P.P.P.P.P.P.P.O ; r i i i i r ; O P.P.P.P.P.P.P.P.P.P.P.P.P.P.P.P.",
"P.P.P.P.P.P.P.P.P.P.P.P.P.P.P.P.P.P.o > i 3.r.t.7.f > o P.P.P.P.P.P.P.P.P.P.P.P.; ; > ; > ; P.P.P.P.P.P.P.P.P.P.P.P.P.P.P.P.P.P.",
"P.P.P.P.P.P.P.P.P.P.P.P.P.P.P.P.P.P.O ; i ,.w.8.g r ; O P.P.P.P.P.P.P.P.P.P.P.P.O O O O O O P.P.P.P.P.P.P.P.P.P.P.P.P.P.P.P.P.P.",
"P.P.P.P.P.P.P.P.P.P.P.P.P.P.P.P.P.P.O > i :.2.g k ; P.P.P.P.P.P.P.P.P.P.P.P.P.P.P.P.P.P.P.P.P.P.P.P.P.P.P.P.P.P.P.P.P.P.P.P.P.P.",
"P.P.P.P.P.P.P.P.P.P.P.P.P.P.P.P.P.P.O ; r i i r ; O P.P.P.P.P.P.P.P.P.P.P.P.P.P.P.P.P.P.P.P.P.P.P.P.P.P.P.P.P.P.P.P.P.P.P.P.P.P.",
"P.P.P.P.P.P.P.P.P.P.P.P.P.P.P.P.P.P.P.P.> > ; ; P.P.P.P.P.P.P.P.P.P.P.P.P.P.P.P.P.P.P.P.P.P.P.P.P.P.P.P.P.P.P.P.P.P.P.P.P.P.P.P.",
"P.P.P.P.P.P.P.P.P.P.P.P.P.P.P.P.P.P.P.P.O O O O P.P.P.P.P.P.P.P.P.P.P.P.P.P.P.P.P.P.P.P.P.P.P.P.P.P.P.P.P.P.P.P.P.P.P.P.P.P.P.P."
};
