/* XPM */
static char *result[] = {
/* columns rows colors chars-per-pixel */
"64 64 217 2 ",
"   c #1C1B2D",
".  c #181628",
"X  c #1F1F31",
"o  c #201E2F",
"O  c #211F30",
"+  c #242334",
"@  c #2C2B3B",
"#  c #282638",
"$  c #382A37",
"%  c #3A323B",
"&  c #33313F",
"*  c #462E37",
"=  c #4C2D37",
"-  c #4E2E38",
";  c #432B38",
":  c #502D37",
">  c #5A2F38",
",  c #512C38",
"<  c #4B333A",
"1  c #4D3B3E",
"2  c #43363D",
"3  c #5C323A",
"4  c #583B3D",
"5  c #623D3E",
"6  c #67383C",
"7  c #76383D",
"8  c #63413F",
"9  c #6C423F",
"0  c #343443",
"q  c #3B3544",
"w  c #3C3C4C",
"e  c #3B3844",
"r  c #363748",
"t  c #443C43",
"y  c #4A3F43",
"u  c #453C4C",
"i  c #593C49",
"p  c #773B45",
"a  c #3E4050",
"s  c #4C4143",
"d  c #43414C",
"f  c #4B454A",
"g  c #514344",
"h  c #594643",
"j  c #5A4945",
"k  c #564C4C",
"l  c #444453",
"z  c #4B4C5B",
"x  c #484857",
"c  c #5C4B59",
"v  c #54525B",
"b  c #4E505F",
"n  c #644441",
"m  c #6E4642",
"M  c #634E47",
"N  c #6B4C45",
"B  c #774944",
"V  c #63514A",
"C  c #6D5248",
"Z  c #715A4D",
"A  c #7B5449",
"S  c #625854",
"D  c #7D5057",
"F  c #7C6251",
"G  c #7B604F",
"H  c #4E5261",
"J  c #535564",
"K  c #565966",
"L  c #595966",
"P  c #5A5E6B",
"I  c #575867",
"U  c #725D66",
"Y  c #5E606E",
"T  c #5C6170",
"R  c #66626E",
"E  c #626673",
"W  c #656875",
"Q  c #636978",
"!  c #6A6D79",
"~  c #686B76",
"^  c #6D717E",
"/  c #72737E",
"(  c #7A676C",
")  c #863E3F",
"_  c #843F40",
"`  c #8B3B44",
"'  c #953E43",
"]  c #884547",
"[  c #954443",
"{  c #9C4B45",
"}  c #9B4B4C",
"|  c #954849",
" . c #875448",
".. c #89574A",
"X. c #9A554B",
"o. c #854957",
"O. c #9E5357",
"+. c #984F54",
"@. c #A04D47",
"#. c #A55249",
"$. c #AB5B4D",
"%. c #A9574B",
"&. c #A65A51",
"*. c #B25E4E",
"=. c #8A6D57",
"-. c #9C6852",
";. c #99775B",
":. c #946651",
">. c #B2604E",
",. c #AA6652",
"<. c #B46551",
"1. c #B56A52",
"2. c #B96C53",
"3. c #A37D5D",
"4. c #A87459",
"5. c #B8755A",
"6. c #AD634F",
"7. c #985969",
"8. c #997666",
"9. c #8F7072",
"0. c #A97A69",
"q. c #A76A78",
"w. c #AF766B",
"e. c #C07A5B",
"r. c #BA815F",
"t. c #99866D",
"y. c #9C8B71",
"u. c #AE8561",
"i. c #AB8969",
"p. c #BA8D65",
"a. c #B68764",
"s. c #B8956E",
"d. c #B59977",
"f. c #B19274",
"g. c #BDA37D",
"h. c #C48C64",
"j. c #C68964",
"k. c #C3956A",
"l. c #CC9B6D",
"z. c #C7956A",
"x. c #D19E6E",
"c. c #C79D71",
"v. c #CB9A72",
"b. c #D2A16F",
"n. c #CDA679",
"m. c #D3A473",
"M. c #D6AC7B",
"N. c #D6AA7A",
"B. c #D9B07E",
"V. c #6C7381",
"C. c #767984",
"Z. c #7B7C86",
"A. c #7B7E89",
"S. c #737681",
"D. c #8A7984",
"F. c #977682",
"G. c #AD7E8A",
"H. c #7D828C",
"J. c #7E8691",
"K. c #81828C",
"L. c #848A95",
"P. c #8A919C",
"I. c #95959B",
"U. c #988D92",
"Y. c #A9838E",
"T. c #B4828E",
"R. c #BE8F86",
"E. c #AD9195",
"W. c #BFA680",
"Q. c #8D96A1",
"!. c #929BA6",
"~. c #959EA9",
"^. c #999EA6",
"/. c #BA99A2",
"(. c #9AA3AD",
"). c #97A1AB",
"_. c #9DA7B1",
"`. c #9EA8B2",
"'. c #A3A7AE",
"]. c #A4ACB4",
"[. c #A7ADB5",
"{. c #ABB3BA",
"}. c #A7B1B9",
"|. c #B8AEB0",
" X c #CBAD83",
".X c #C0A781",
"XX c #D6B586",
"oX c #D0AC8D",
"OX c #C39AA5",
"+X c #CAACB4",
"@X c #E7CB96",
"#X c #ECD7AF",
"$X c #F5E3BF",
"%X c #DDCAA8",
"&X c #AFBAC2",
"*X c #B2BCC4",
"=X c #BEBEC2",
"-X c #D4BDC3",
";X c #CFB9C0",
":X c #B6C2C9",
">X c #BBC5CB",
",X c #B8C3CA",
"<X c #BFCAD1",
"1X c #C7C8CA",
"2X c #DAC3C9",
"3X c #C3CCD1",
"4X c #C8D2D7",
"5X c #D7D6D6",
"6X c #D3D0CF",
"7X c #E2DDDC",
"8X c #F8ECD4",
"9X c #EDE7EA",
"0X c #F5F4F5",
"qX c white",
"wX c #F8F3F5",
"eX c #FBF4EA",
"rX c None",
/* pixels */
"rXrXrXrXrXrXrXrXrXrXrXrXrXrXrXrXrXrXrXrXrXrXrXrXrXrXrXrXrXrXrXrXrXrXrXrXrXrXrXrXrXrXrXrXrXrXrXrXrXrXrXrXrXrXrXrXrXrXrXrXrXrXrXrX",
"rXrXrXrXrXrXrXrXrXrXrXrXrXrXrXrXrXrXrXrXrXrXrXrXrXrXrXrXrXrXrXrXrXrXrXrXrXrXrXrXrXrXrXrXrXrXrXrXrXrXrXrXrXrXrXrXrXrXrXrXrXrXrXrX",
"rXrXrXrXrXrXrXrXrXrXrXrXrXrXrXrXrXrXrXrXrXrXrXrXrXrXrXrXrXrXrXrXrXrXrXrXrXrXrXrXrXrXrXrXrXrXrXrXrXrXrXrXrXrXrXrXrXrXrXrXrXrXrXrX",
"rXrXrXrXrXrXrXrXrXrXrXrXrXrXrXrXrXrXrXrXrXrXrXrXrXrXrXrXrXrXrXrXrXrXrXrXrXrXrXrXrXrXrXrXrXrXrXrXrXrXrXrXrXrXrXrXrXrXrXrXrXrXrXrX",
"rXrXrXrXrXrXrXrXrXrXrXrXrXrXrXrXrXrXrXrXrXrXrXrXrXrXrXrXrXrXrXrXrXrXrXrXrXrXrXrXrXrXrXrXrXrXrXrXrXrXrXrXrXrXrXrXrXrXrXrXrXrXrXrX",
"rXrXrXrXrXrXrXrXrXrXrXrXrXrXrXrXrXrXrXrXrXrXrXrXrXrXrXrXrXrXrXrXrXrXrXrXrXrXrXrXrXrXrXrXrXrXrXrXrXrXrXrXrXrXrXrXrXrXrXrXrXrXrXrX",
"rXrXrXrXrXrXrXrXrXrXrXrXrXrXrXrXrXrXrXrXrXrX@ rXrXrXrXrXrXrXrXrX@ rXrXrXrXrXrXrXrXrX@ rXrXrXrXrXrXrXrXrXrXrXrXrXrXrXrXrXrXrXrXrX",
"rXrXrXrXrXrXrXrXrXrXrXrXrXrXrXrXrXrXrXrXrX0 ^ R rXrXrXrXrXrXrXl C.b rXrXrXrXrXrXrXb C.l rXrXrXrXrXrXrXrXrXrXrXrXrXrXrXrXrXrXrXrX",
"rXrXrXrXrXrXrXrXrXrXrXrXrXrXrXrXrXrXrXrXrX0 ^.C.O rXrXrXrXrXrXx ].Y rXrXrXrXrXrXrXP ].x rXrXrXrXrXrXrXrXrXrXrXrXrXrXrXrXrXrXrXrX",
"rXrXrXrXrXrXrXrXrXrXrXrXrXrXrXrXrXrXrXrXrXP ].K.w rXrXrXrXrXrX^ {.! 0 rXrXrXrXrXl H.[.L rXrXrXrXrXrXrXrXrXrXrXrXrXrXrXrXrXrXrXrX",
"rXrXrXrXrXrXrXrXrXrXrXrXrXrXrXrXrXrXrXrXl ].>X).L + rXrXrXrXK {.*XP.z o rXrXrX  ^ >X&XH.w rXrXrXrXrXrXrXrXrXrXrXrXrXrXrXrXrXrXrX",
"rXrXrXrXrXrXrXrXrXrXrXrXrXrXrXrXrXrXrXrXz *X3X(.W @ rXrXrX+ R 3X,X!.I + rXrXrX@ H.4X&XP.l + rXrXrXrXrXrXrXrXrXrXrXrXrXrXrXrXrXrX",
"rXrXrXrXrXrXrXrXrXrXrXrXrXrXrXrXrXrXrXv !.:X:X}.P.P @ rXrXE _.,X*X].J.H rXrXrXS.}.>X&X`.C.l rXrXrXrXrXrXrXrXrXrXrXrXrXrXrXrXrXrX",
"rXrXrXrXrXrXrXrXrXrXrXrXrXrXrXrXrXrXrXb ].]._.`.).V.0 rXX Q {.].`.`.~.T # rX# H.{._._._.Q.J + rXrXrXrXrXrXrXrXrXrXrXrXrXrXrXrXrX",
"rXrXrXrXrXrXrXrXrXrXrXrXrXrXrXrXrXrX. 0 Y Q E Q T J # .   a T Q Q Q Q x X rX+ x Q Q W W T a   rXrXrXrXrXrXrXrXrXrXrXrXrXrXrXrXrX",
"rXrXrXrXrXrXrXrXrXrXrXrXrXrXrXrXx z x d q s f x k s d t 2 f f s y y y t 2 2 2 s f f f f q u x z z rXrXrXrXrXrXrXrXrXrXrXrXrXrXrX",
"rXrXrXrXrXrXrXrXrXrXrXrXrXrXrXd [.5X6X/.D ;.s..Xg.W..Xg.s.d.d.a.u.u.u.u.u.u.a.d.W.n.g.u. .Y.6X5X;XJ rXrXrXrXrXrXrXrXrXrXrXrXrXrX",
"rXrXrXrXrXrXrXrXrXrXrXrXrXrXrXa 1X8X8XoX+.5.m.M.M.M.B.M.m.m.m.m.b.b.h.j.x.b.b.m.N.XXn.e.| R.$X8X7XK rXrXrXrXrXrXrXrXrXrXrXrXrXrX",
"rXrXrXrXrXrXrXrXrXrXrXrXrX  . u 1X$X@Xd.i 5 C Z Z Z Z Z Z Z Z Z Z Z N N Z Z Z Z Z Z C n 3 8.@X$X7XL     rXrXrXrXrXrXrXrXrXrXrXrX",
"rXrXrXrXrXrXrXrXrXrXrXrXJ L w e L.E.y.=.3 - , , : , , , = , : : : : : : , < : , = = , , y F y.y.I.l 0 J L rXrXrXrXrXrXrXrXrXrXrX",
"rXrXrXrXrXrXrXrXrXrXx v I.{.^ & 2 s % < [ @.@.@.[ [ { @.{ { { { @.@.@.{ [ @.{ [ [ } @.@.[ 6 $ y 1 & T `._.L z rXrXrXrXrXrXrXrXrX",
"rXrXrXrXrXrXrXrXr J ].,X,X}.V.e =.5.8 = [ >.2.6.X.{ <.2.2.2.2.2.1.1.1.*.%.1.<.#.} 6.2.<.#.> 1 ,.;.y T `.:X,X{.W r w rXrXrXrXrXrX",
"rXrXrXrXrXrXrXW ).].:X<X,X`.^ d d.N.A < { 1.2.A 9 6.1.1.1.1.1.2.2.2.1.<.6.1.<.,.B m <.2.#.> M c.n.k Y ).:X<X,X].(.Z.@ rXrXrXrXrX",
"rXrXrXrXrXrXrXI ^ A.Q.).}.].V.f d.B.G = { 1.2.8 $ 4 8 4 h 5 p +.1.%.9 8 h 5 5 5 * 1 ,.2.#.> M n. Xk T (.[.).).H./ Y rXrXrXrXrXrX",
"rXrXrXrXrXrXrXrX  0 J P J.).V.d d.B.F = { 1.1. .: i / D.Z.Z.( | $.| ( D.Z.Z.C.c - 9 1.2.#.> M m. Xk T ~.P.E K w   rXrXrXrXrXrXrX",
"rXrXrXrXrXrXrXrXrXrX+ # J ^ K d g.XXF = { 1.2.%.) 7.7X0X0X0X-XO.$.} OX0X0X0X9XG.` @.2.2.#.> V m. Xk z ^ P @ + rXrXrXrXrXrXrXrXrX",
"rXrXrXrXrXrXrXrXrXrXrXrX@ @ # e d.B.F = { 1.2.>.' q.9XqXqX0X|.o.| ] E.9XqXqXwXG.' %.2.2.#.> M m..Xk # @ @ rXrXrXrXrXrXrXrXrXrXrX",
"rXrXrXrXrXrXrXrXrXrXrXrXrXrXrX% i.m.F = { 2.2.2.{ q.9XqXwX'.c * 1 * l I.9XqXwXT.} >.2.2.#.> M l.s.s . rXrXrXrXrXrXrXrXrXrXrXrXrX",
"rXrXrXrXrXrXrXrXrXrXrXrXrX+   % f.M.F = { 1.2.2.#.q.9XwX'.U ..=.=.t.t.9.I.9X0XG.} <.$.<.#.> M l.s.1   + rXrXrXrXrXrXrXrXrXrXrXrX",
"rXrXrXrXrXrXrXrXrXrXrXrXP ~ l e i.N.F = { 1.2.2.%.O.OX/.c m j.b.m.B.XX8.k E.OXq.#.<.>.1.#.3 n j.p.s w E ~ # rXrXrXrXrXrXrXrXrXrX",
"rXrXrXrXrXrXrXrXrXrXK R ^.{.V.t 4.x.G = [ *.2.2.>.%.} ` = C j.z.l.M.m.=.; ` ' #.>.2.2.2.#.> h a.p.g P ].].W L d rXrXrXrXrXrXrXrX",
"rXrXrXrXrXrXrXd l R {.3X>X}.V.t :.z.G = [ %.>.1.6.$.%.[ - n 2.5.l.B.XX=.; ` %.&.6.>.2.2.#.> M z.p.s T _.:X3X:X^ x l rXrXrXrXrXrX",
"rXrXrXrXrXrXrX~ ].}.*X:X:X`.V.t 4.x.F = | >.<.#.| | +.` < 9 2.e.l.m.m.=.* _ ' | +.} <.2.#.> V l.p.s T (.&X,X:X}.[.Z.@ rXrXrXrXrX",
"rXrXrXrXrXrXrXz P Q P.!.`.`.V.t 3.m.F = [ >.&.w.f.5.&.X.4 C j.j.l.x.l.=.< ..&.,.j.w.&.$.#.> V l.p.g T (.}.!.P.V.Y I rXrXrXrXrXrX",
"rXrXrXrXrXrXrXrXrX@ z J H.).V.y 3.b.F - ] B 8.m.v.&.X.} = N r.j.j.j.j. .; ] O.&.s.oX0.A ] > V z.p.g T !.L.K z 0 rXrXrXrXrXrXrXrX",
"rXrXrXrXrXrXrXrXrXrXX + z T H % u.b.F , _ < t.s.q.G.T.T.9.( A ] A 9  .=.D.T.T.T.0.i.s.g 7 > V l.p.s x T J # + rXrXrXrXrXrXrXrXrX",
"rXrXrXrXrXrXrXrXrXrXrXrXrX# + % ;.x.F * 7 1 ;.Z ~ +X2X2X2XU.$ $ $ ; $ U ;X2X2X2XD.V 0.1 7 3 M l.a.y + # # rXrXrXrXrXrXrXrXrXrXrX",
"rXrXrXrXrXrXrXrXrXrXrXrXrXrXrX% u.x.=.< 7 < ;.Z i 7.q.q.q.7.o.o.p p o.7.q.q.q.7.i h ;.1 7 3 V h.4.* . rXrXrXrXrXrXrXrXrXrXrXrXrX",
"rXrXrXrXrXrXrXrXrXrXrXrXrX@ X % u.b.A < 7 < :.Z ; 7.+X2X+X2X2XOX7.OX2X2X-X-X-Xq., M ;.1 7 > V z.a.1   @ rXrXrXrXrXrXrXrXrXrXrXrX",
"rXrXrXrXrXrXrXrXrXrXrX+ E H.H % 3.j.A < 7 * :.-.6 i C.K.K.K.K./ i U H.H.H.D.Z.c 3 :.-.< 7 > M l.p.g l S.S.@   rXrXrXrXrXrXrXrXrX",
"rXrXrXrXrXrXrXrXrX0 ~ C.'.*XV.u ;.h.A = ) 6 9 -.-.9 8 8 8 8 8 8 i p i 8 8 8 8 8 ..6.A 6 ) > M l.p.s T }.}.C.~ l rXrXrXrXrXrXrXrX",
"rXrXrXrXrXrXrXx I ! {.4X>X].V.t u.b.G = [ { 6 9 .... . . . . . . . . . . . . .....9 3 [ @.3 M l.p.f T _.,X4X<XA.K z rXrXrXrXrXrX",
"rXrXrXrXrXrXrX~ ].}.&X*X*X].V.y 4.x.G < { >.@.6 * * * * * * * * * * * * * * * * * 4 { 6.#.> M k.a.s Y ).*X*X&X}.[.Z.@ rXrXrXrXrX",
"rXrXrXrXrXrXrXl z P J.P._.`.V.e ..5.B = { 1.2.{ _ _ ) ) ) ) _ _ _ _ ) ) ) ) ) ) _ [ 1.2.#.> 4 5.,.1 T (.].P.L.E b x rXrXrXrXrXrX",
"rXrXrXrXrXrXrXrXrXrXl x V.!.^ q p } 3 = { 1.2.1.1.>.>.1.>.>.>.>.>.>.6.>.>.>.1.>.>.>.5.1.#.3 4 | ] ; T Q.H.z l 0 rXrXrXrXrXrXrXrX",
"rXrXrXrXrXrXrXrXrXrXrXo l K l e F./.E./ p 8 9 9 9 9 9 9 m m m m m 9 N 9 m 9 N 9 9 9 9 9 6 ( U./.Y.f a K z # rXrXrXrXrXrXrXrXrXrX",
"rXrXrXrXrXrXrXrXrXrXrXrXrX#   u 1XeX8X|.% g S S v S j j j j j h 4 4 j V V j S v S S S j % L.8XeX5XI   + rXrXrXrXrXrXrXrXrXrXrXrX",
"rXrXrXrXrXrXrXrXrXrXrXrXrXrXrXu 1X8X#Xd.s ;.n.XXXXn.c.k.h.k.k.p.r.p.k.n.n.n.n.XXXXXXM.i.g 8.@X$X7XL rXrXrXrXrXrXrXrXrXrXrXrXrXrX",
"rXrXrXrXrXrXrXrXrXrXrXrXrXrXrXl |.#XXXy.y :.k.c.c.c.k.k.r.r.z.k.p.h.s.c.c.k.k.n.c.c.k.4.4 ( XX%X6XI rXrXrXrXrXrXrXrXrXrXrXrXrXrX",
"rXrXrXrXrXrXrXrXrXrXrXrXrXrXrXrXE S v f @ < g j j h g h 4 y j j j j j j h h h j j j j y $ s v S R rXrXrXrXrXrXrXrXrXrXrXrXrXrXrX",
"rXrXrXrXrXrXrXrXrXrXrXrXrXrXrXrXrXrX  0 J J J J K l #     r J J K K K a X   X a J J J J J a   . rXrXrXrXrXrXrXrXrXrXrXrXrXrXrXrX",
"rXrXrXrXrXrXrXrXrXrXrXrXrXrXrXrXrXrXrXx ^.(.~.~.!.^ 0 rX+ P _.^.!.).Q.Y # rX# / _.).!.!.P.z + rXrXrXrXrXrXrXrXrXrXrXrXrXrXrXrXrX",
"rXrXrXrXrXrXrXrXrXrXrXrXrXrXrXrXrXrXrXI ].,X*X{.!.T @ rXrX~ {.:X&X}.L.K # rX@ H.{.:X{.].J.x rXrXrXrXrXrXrXrXrXrXrXrXrXrXrXrXrXrX",
"rXrXrXrXrXrXrXrXrXrXrXrXrXrXrXrXrXrXrXrXL *X<X(.Q r rXrXrX0 ^ 3X:X).T @ rXrXrXw L.4X&XQ.z @ rXrXrXrXrXrXrXrXrXrXrXrXrXrXrXrXrXrX",
"rXrXrXrXrXrXrXrXrXrXrXrXrXrXrXrXrXrXrXrXl {.3X).T # rXrXrXrXL >X:XQ.z   rXrXrX  / 4X&XJ.w rXrXrXrXrXrXrXrXrXrXrXrXrXrXrXrXrXrXrX",
"rXrXrXrXrXrXrXrXrXrXrXrXrXrXrXrXrXrXrXrXrX^ }.L.l rXrXrXrXrXl K.{.C.w rXrXrXrXrXJ P.{.T 0 rXrXrXrXrXrXrXrXrXrXrXrXrXrXrXrXrXrXrX",
"rXrXrXrXrXrXrXrXrXrXrXrXrXrXrXrXrXrXrXrXrX0 ).Z.+ rXrXrXrXrXrXx ].Y rXrXrXrXrXrXrXR ].x rXrXrXrXrXrXrXrXrXrXrXrXrXrXrXrXrXrXrXrX",
"rXrXrXrXrXrXrXrXrXrXrXrXrXrXrXrXrXrXrXrXrX0 K.! rXrXrXrXrXrXrXx L.L rXrXrXrXrXrXrXK L.l rXrXrXrXrXrXrXrXrXrXrXrXrXrXrXrXrXrXrXrX",
"rXrXrXrXrXrXrXrXrXrXrXrXrXrXrXrXrXrXrXrXrXrX0 rXrXrXrXrXrXrXrXrXr rXrXrXrXrXrXrXrXrXe rXrXrXrXrXrXrXrXrXrXrXrXrXrXrXrXrXrXrXrXrX",
"rXrXrXrXrXrXrXrXrXrXrXrXrXrXrXrXrXrXrXrXrXrXrXrXrXrXrXrXrXrXrXrXrXrXrXrXrXrXrXrXrXrXrXrXrXrXrXrXrXrXrXrXrXrXrXrXrXrXrXrXrXrXrXrX",
"rXrXrXrXrXrXrXrXrXrXrXrXrXrXrXrXrXrXrXrXrXrXrXrXrXrXrXrXrXrXrXrXrXrXrXrXrXrXrXrXrXrXrXrXrXrXrXrXrXrXrXrXrXrXrXrXrXrXrXrXrXrXrXrX",
"rXrXrXrXrXrXrXrXrXrXrXrXrXrXrXrXrXrXrXrXrXrXrXrXrXrXrXrXrXrXrXrXrXrXrXrXrXrXrXrXrXrXrXrXrXrXrXrXrXrXrXrXrXrXrXrXrXrXrXrXrXrXrXrX",
"rXrXrXrXrXrXrXrXrXrXrXrXrXrXrXrXrXrXrXrXrXrXrXrXrXrXrXrXrXrXrXrXrXrXrXrXrXrXrXrXrXrXrXrXrXrXrXrXrXrXrXrXrXrXrXrXrXrXrXrXrXrXrXrX",
"rXrXrXrXrXrXrXrXrXrXrXrXrXrXrXrXrXrXrXrXrXrXrXrXrXrXrXrXrXrXrXrXrXrXrXrXrXrXrXrXrXrXrXrXrXrXrXrXrXrXrXrXrXrXrXrXrXrXrXrXrXrXrXrX"
};
