/* XPM */
static char *result[] = {
/* columns rows colors chars-per-pixel */
"64 64 5 1 ",
"  c #2C9F4C",
". c #37C35E",
"X c #2A7148",
"o c #FBE681",
"O c white",
/* pixels */
"                                                                ",
"                                                                ",
"             ........    ......        ....    ......           ",
"             ........    ......        ....    ......           ",
"         ....XXXXXXXX....XXXXXX..    ..XXXX....XXXXXX....       ",
"         ....XXXXXXXX....XXXXXX..    ..XXXX....XXXXXX....       ",
"       ..XXXXooooooooXXXXooooooXX....XXooooXXXXooooooXXXX..     ",
"       ..XXXXooooooooXXXXooooooXX....XXooooXXXXooooooXXXX..     ",
"     ..XXooooooooooooooooooooooooXXXXooooooooooooooooooooXX..   ",
"     ..XXooooooooooooooooooooooooXXXXooooooooooooooooooooXX..   ",
"   ..XXooooooooooooooooooooooooooooooooooooooooooooooooooooXX.. ",
"   ..XXooooooooooooooooooooooooooooooooooooooooooooooooooooXX.. ",
"   ..XXooooooooooooooooooooooooooooooooooooooooooooooooooooXX.. ",
"   ..XXooooooooooooooooooooooooooooooooooooooooooooooooooooXX.. ",
"   ..XXooooooooooooooooooooooooooooooooooooooooooooooooooooXX.. ",
"   ..XXooooooooooooooooooooooooooooooooooooooooooooooooooooXX.. ",
" ..XXooooooooooooooooooooooooooooooooooooooooooooooooooooooooXX.",
" ..XXooooooooooooooooooooooooooooooooooooooooooooooooooooooooXX.",
" ..XXooooooooooooooooooooooooooooooooooooooooooooooooooooooooXX.",
" ..XXooooooooooooooooooooooooooooooooooooooooooooooooooooooooXX.",
"   ..XXooooooooooooooooooooooooooooooooooooooooooooooooooooXX.. ",
"   ..XXooooooooooooooooooooooooooooooooooooooooooooooooooooXX.. ",
"   ..XXooooooooooooooooooooooooooooooooooooooooooooooooooooXX.. ",
"   ..XXooooooooooooooooooooooooooooooooooooooooooooooooooooXX.. ",
" ..XXooooooooooooooooooooooooooooooooooooooooooooooooooooooooXX.",
" ..XXooooooooooooooooooooooooooooooooooooooooooooooooooooooooXX.",
" ..XXooooooooooooooooooooooooooooooooooooooooooooooooooooooooXX.",
" ..XXooooooooooooooooooooooooooooooooooooooooooooooooooooooooXX.",
" ..XXooooooooooooooooooooooooooooooooooooooooooooooooooooooooXX.",
" ..XXooooooooooooooooooooooooooooooooooooooooooooooooooooooooXX.",
"   ..XXooooooooooooooooooooooooooooooooooooooooooooooooooooXX.. ",
"   ..XXooooooooooooooooooooooooooooooooooooooooooooooooooooXX.. ",
"     ..XXooooooooooooooooooooooooooooooooooooooooooooooooXX..   ",
"     ..XXooooooooooooooooooooooooooooooooooooooooooooooooXX..   ",
"     ..XXooooooooooooooooooooooooooooooooooooooooooooooooXX..   ",
"     ..XXooooooooooooooooooooooooooooooooooooooooooooooooXX..   ",
"   ..XXooooooooooooooooooooooooooooooooooooooooooooooooooooXX.. ",
"   ..XXooooooooooooooooooooooooooooooooooooooooooooooooooooXX.. ",
" ..XXooooooooooooooooooooooooooooooooooooooooooooooooooooooooXX.",
" ..XXooooooooooooooooooooooooooooooooooooooooooooooooooooooooXX.",
" ..XXooooooooooooooooooooooooooooooooooooooooooooooooooooooooXX.",
" ..XXooooooooooooooooooooooooooooooooooooooooooooooooooooooooXX.",
"   ..XXooooooooooooooooooooooooooooooooooooooooooooooooooooXX.. ",
"   ..XXooooooooooooooooooooooooooooooooooooooooooooooooooooXX.. ",
"   ..XXooooooooooooooooooooooooooooooooooooooooooooooooooooXX.. ",
"   ..XXooooooooooooooooooooooooooooooooooooooooooooooooooooXX.. ",
" ..XXooooooooooooooooooooooooooooooooooooooooooooooooooooooooXX.",
" ..XXooooooooooooooooooooooooooooooooooooooooooooooooooooooooXX.",
"   ..XXooooooooooooooooooooooooooooooooooooooooooooooooooooXX.. ",
"   ..XXooooooooooooooooooooooooooooooooooooooooooooooooooooXX.. ",
"   ..XXooooooooooooooooooooooooooooooooooooooooooooooooooooXX.. ",
"   ..XXooooooooooooooooooooooooooooooooooooooooooooooooooooXX.. ",
"   ..XXooooooooooooooooooooooooooooooooooooooooooooooooooooXX.. ",
"   ..XXooooooooooooooooooooooooooooooooooooooooooooooooooooXX.. ",
"     ..XXooooooooooooooooooooooooXXXXooooooooooooooooooooXX..   ",
"     ..XXooooooooooooooooooooooooXXXXooooooooooooooooooooXX..   ",
"       ..XXXXooooooooXXXXooooooXX....XXooooXXXXooooooXXXX..     ",
"       ..XXXXooooooooXXXXooooooXX....XXooooXXXXooooooXXXX..     ",
"         ....XXXXXXXX....XXXXXX..    ..XXXX....XXXXXX....       ",
"         ....XXXXXXXX....XXXXXX..    ..XXXX....XXXXXX....       ",
"             ........    ......        ....    ......           ",
"             ........    ......        ....    ......           ",
"                                                                ",
"                                                                "
};
