/* XPM */
static char *result[] = {
/* columns rows colors chars-per-pixel */
"64 64 154 2 ",
"   c black",
".  c #110F1D",
"X  c #141226",
"o  c #161429",
"O  c #19162A",
"+  c #1C1A2E",
"@  c #1E1C3A",
"#  c #211F33",
"$  c #201E3A",
"%  c #222034",
"&  c #2A2D35",
"*  c #24223E",
"=  c #2D2B3F",
"-  c gray19",
";  c #252440",
":  c #2A294B",
">  c #323640",
",  c #2C2B5B",
"<  c #32315E",
"1  c #363563",
"2  c #35356C",
"3  c #38376E",
"4  c #39396E",
"5  c #3C3C72",
"6  c #3F4057",
"7  c #3F406E",
"8  c #414357",
"9  c #44465C",
"0  c #494758",
"q  c #46485F",
"w  c #4F4D5D",
"e  c #514F5F",
"r  c #474962",
"t  c #4A4C63",
"y  c #40416F",
"u  c #4D4F6C",
"i  c #504F61",
"p  c #4F526E",
"a  c #555463",
"s  c #50536F",
"d  c #555C69",
"f  c #5B5A6F",
"g  c #414176",
"h  c #45457A",
"j  c #48487A",
"k  c #505270",
"l  c #686868",
"z  c #545686",
"x  c #5A5B87",
"c  c #545688",
"v  c #56598B",
"b  c #5C5E8A",
"n  c #5C6089",
"m  c #5E6293",
"M  c #656487",
"N  c #696E87",
"B  c #636389",
"V  c #696F88",
"C  c #6B718A",
"Z  c #767889",
"A  c #7F7E8A",
"S  c #636593",
"D  c #6A6A93",
"F  c #807F8A",
"G  c #7F889F",
"H  c #7F87A4",
"J  c #7B82AE",
"K  c #7D84B1",
"L  c #868DAC",
"P  c #8E8CAD",
"I  c #8790AC",
"U  c #8992AD",
"Y  c #9090AF",
"T  c #9E9DA5",
"R  c #878FB4",
"E  c #898CB0",
"W  c #8992B6",
"Q  c #9292B0",
"!  c #97A4BE",
"~  c #99A4BE",
"^  c #A6A5AD",
"/  c #BBBBBB",
"(  c #8E97C0",
")  c #8F98C2",
"_  c #929BC5",
"`  c #9DA9C5",
"'  c #9FABC9",
"]  c #AAAAC1",
"[  c #A1ADCB",
"{  c #A4B1CD",
"}  c #ABB4CD",
"|  c #B4B4C8",
" . c #A7B3D3",
".. c #A9B5D4",
"X. c #ABB8D6",
"o. c #A9B5DB",
"O. c #ADBADA",
"+. c #B2BDDC",
"@. c #DF94C7",
"#. c #E095C7",
"$. c #E095C8",
"%. c #DCA6CE",
"&. c #DBA8D5",
"*. c #E7B1D6",
"=. c #E8B2D7",
"-. c #BEC1CC",
";. c #BBC4DB",
":. c #B4C1E5",
">. c #BFCFEF",
",. c #B8C5EA",
"<. c #C7C7CC",
"1. c #C8C7CC",
"2. c #CACACE",
"3. c #CBCBD2",
"4. c #CECEDA",
"5. c #C5C7DB",
"6. c #D5C3D9",
"7. c #CFD0DA",
"8. c #D3D3DB",
"9. c #D9D9DC",
"0. c #C2CBE8",
"q. c #C0D0EF",
"w. c #D2D6E6",
"e. c #DCDCE5",
"r. c #DFDFE9",
"t. c #D0CBF0",
"y. c #C3D3F4",
"u. c #CEDBF6",
"i. c #C6D6F8",
"p. c #CCDCFD",
"a. c #D5DCF8",
"s. c #F5DDED",
"d. c #F8DFEF",
"f. c #EBDDF1",
"g. c #CFE0FF",
"h. c #D3E2FE",
"j. c #D8E5FD",
"k. c #DDE9FF",
"l. c #E0E0E9",
"z. c #EFEFEF",
"x. c #F9E0EF",
"c. c #EAEDF4",
"v. c #E2EBFE",
"b. c #E8EFFE",
"n. c #F7E6F2",
"m. c #F8E6F2",
"M. c #FBEAF4",
"N. c #EBF2FE",
"B. c #F3F3F5",
"V. c #F3F6FD",
"C. c #FDF7FB",
"Z. c #F5F9FF",
"A. c #FFFFFF",
"S. c None",
/* pixels */
"S.S.S.S.S.S.S.S.S.S.S.S.S.S.S.S.S.S.S.S.S.S.S.S.S.S.S.S.S.S.S.S.S.S.S.S.S.S.S.S.S.S.S.S.S.S.S.S.S.S.S.S.S.S.S.S.S.S.S.S.S.S.S.S.",
"S.S.S.S.S.S.S.S.S.S.S.S.S.S.S.S.S.S.S.S.S.S.S.S.S.S.S.S.S.S.S.S.S.S.S.S.S.S.S.S.S.S.S.S.S.S.S.S.S.S.S.S.S.S.S.S.S.S.S.S.S.S.S.S.",
"S.S.S.S.S.S.S.S.S.S.S.S.S.S.S.S.S.S.S.S.S.S.S.S.S.S.S.S.S.S.S.S.S.S.S.S.S.S.S.S.S.S.S.S.S.S.S.S.S.S.S.S.S.S.S.S.S.S.S.S.S.S.S.S.",
"S.S.S.S.S.S.S.S.S.S.S.S.S.S.S.S.S.S.S.S.S.S.S.S.S.S.S.S.S.S.S.S.S.S.S.S.S.S.S.S.S.S.S.S.S.S.S.S.S.S.S.S.S.S.S.S.S.S.S.S.S.S.S.S.",
"S.S.S.S.S.S.S.S.S.S.S.S.S.S.S.S.S.S.S.S.S.S.S.S.S.S.S.S.S.S.S.S.S.S.S.S.S.S.S.S.S.S.S.S.S.S.S.S.S.S.S.S.S.S.S.S.S.S.S.S.S.S.S.S.",
"S.S.S.S.S.S.S.S.S.S.S.S.S.S.S.S.S.S.S.S.S.S.S.S.S.S.S.S.S.S.S.S.S.S.S.S.S.S.S.S.S.S.S.S.S.S.S.S.S.S.S.S.S.S.S.S.S.S.S.S.S.S.S.S.",
"S.S.S.S.S.S.S.S.S.S.S.S.S.S.S.S.S.S.S.S.S.S.+ O + + + + + + O + + + + + + + + + + + S.S.S.S.S.S.S.S.S.S.S.S.S.S.S.S.S.S.S.S.S.S.",
"S.S.S.S.S.S.S.S.S.S.S.S.S.S.S.S.S.S.S.S.S.S.a a a a a a a d a a a d a a a a a d a a S.S.S.S.S.S.S.S.S.S.S.S.S.S.S.S.S.S.S.S.S.S.",
"S.S.S.S.S.S.S.S.S.S.S.S.S.S.S.S.% # + O o w ^ 2.2.<.<.<.<.<.<.<.1.<.<.1.<.<.<.1.3.^ w o O + % % S.S.S.S.S.S.S.S.S.S.S.S.S.S.S.S.",
"S.S.S.S.S.S.S.S.S.S.S.S.S.S.S.S.# = 0 a a A 9.A.A.A.A.A.A.A.A.A.A.A.A.A.A.A.A.A.A.9.F i q 6 = % S.S.S.S.S.S.S.S.S.S.S.S.S.S.S.S.",
"S.S.S.S.S.S.S.S.S.S.S.S.S.S.S.S.+ 0 T 2.<.8.B.A.A.A.A.A.A.A.A.A.A.A.A.A.A.A.A.A.A.B.8.<.} L 8 + S.S.S.S.S.S.S.S.S.S.S.S.S.S.S.S.",
"S.S.S.S.S.S.S.S.S.S.S.S.S.S.S.S.O a 2.A.A.A.A.A.A.A.A.A.A.A.A.A.A.A.A.A.A.A.A.A.A.A.A.Z.N.} t O S.S.S.S.S.S.S.S.S.S.S.S.S.S.S.S.",
"S.S.S.S.S.S.S.S.S.S.S.S.S.S.S.S.X a <.A.A.A.A.A.A.A.A.A.A.A.A.A.A.A.A.A.A.A.A.A.A.A.A.A.A.-.i o S.S.S.S.S.S.S.S.S.S.S.S.S.S.S.S.",
"S.S.S.S.S.S.S.S.S.S.S.S.S.S.S.S.w A 8.A.A.A.A.A.A.A.A.A.A.A.A.A.A.A.A.A.A.A.A.A.A.A.A.A.A.8.Z 9 S.S.S.S.S.S.S.S.S.S.S.S.S.S.S.S.",
"S.S.S.S.S.S.S.S.S.S.S.S.S.S.+ a ^ 9.B.A.A.A.A.A.A.A.A.A.A.A.A.A.A.A.A.A.A.A.A.A.A.A.A.A.A.c.;.I r + S.S.S.S.S.S.S.S.S.S.S.S.S.S.",
"S.S.S.S.S.S.S.S.S.S.S.S.S.S.o a 2.A.A.A.A.A.A.A.A.A.A.A.A.A.A.A.A.A.A.A.A.A.A.A.A.A.A.A.A.Z.k.[ t O S.S.S.S.S.S.S.S.S.S.S.S.S.S.",
"S.S.S.S.S.S.S.S.S.S.S.S.S.S.o a <.A.A.A.A.A.A.A.A.A.A.A.A.A.A.A.A.A.A.A.A.A.A.A.A.A.A.A.A.Z.k.' q O S.S.S.S.S.S.S.S.S.S.S.S.S.S.",
"S.S.S.S.S.S.S.S.S.S.S.S.S.S.w A 8.A.A.A.A.A.A.A.A.A.A.A.A.A.A.A.A.A.A.A.A.A.A.A.A.A.A.A.A.Z.k.X.N 9 S.S.S.S.S.S.S.S.S.S.S.S.S.S.",
"S.S.S.S.S.S.S.S.S.S.S.S.+ a ^ 9.B.A.A.A.A.A.A.A.A.A.A.A.A.A.A.A.A.A.A.A.A.A.A.A.A.A.A.A.A.V.j.>.O.U q + S.S.S.S.S.S.S.S.S.S.S.S.",
"S.S.S.S.S.S.S.S.S.S.S.S.+ a 3.A.A.A.A.A.A.A.A.A.A.A.A.A.A.A.A.A.A.A.A.A.A.A.A.A.A.A.A.A.A.V.j.p.h.[ t + S.S.S.S.S.S.S.S.S.S.S.S.",
"S.S.S.S.S.S.S.S.S.S.S.S.+ a 2.A.A.A.A.A.A.A.A.A.A.A.A.A.A.A.A.A.A.A.A.A.A.A.A.A.A.A.A.A.A.V.j.p.h.[ t + S.S.S.S.S.S.S.S.S.S.S.S.",
"S.S.S.S.S.S.S.S.S.S.S.S.+ a <.A.A.A.A.A.A.A.A.A.A.A.A.A.A.A.A.A.A.A.A.A.A.A.A.A.A.A.A.A.A.V.j.p.g.' t + S.S.S.S.S.S.S.S.S.S.S.S.",
"S.S.S.S.S.S.S.S.S.S.S.S.+ a <.A.A.A.A.A.A.A.A.A.A.A.A.A.A.A.A.A.A.A.A.A.A.A.A.A.A.A.A.A.A.V.j.p.p.' t + S.S.S.S.S.S.S.S.S.S.S.S.",
"S.S.S.S.S.S.S.S.S.S.S.S.+ a <.A.A.A.A.A.A.B.8.<.2.8.B.A.A.A.A.A.A.A.A.A.A.B.8.<.<.8.B.A.A.V.j.p.g.[ t + S.S.S.S.S.S.S.S.S.S.S.S.",
"S.S.S.S.S.S.S.S.S.S.S.S.+ a <.A.A.A.A.A.A.8.F e e L 2.C.A.A.A.A.A.A.A.A.A.8.F e w A 8.A.A.V.j.p.g.[ t + S.S.S.S.S.S.S.S.S.S.S.S.",
"S.S.S.S.S.S.S.S.S.S.S.S.+ a <.A.A.A.A.A.A.2.a X X e 1.A.A.A.A.A.A.A.A.A.A.2.e X X a 2.A.A.V.j.p.p.[ t + S.S.S.S.S.S.S.S.S.S.S.S.",
"S.S.S.S.S.S.S.S.S.S.S.S.+ a <.A.A.A.A.A.A.1.a X X a 1.A.A.A.A.A.A.A.A.A.A.2.a X o a 2.A.A.V.h.p.g.[ t # S.S.S.S.S.S.S.S.S.S.S.S.",
"S.S.S.S.S.S.S.S.S.S.S.S.O a <.A.A.A.A.A.A.3.f @ $ d 2.A.A.A.A.A.A.A.A.A.A.2.f $ @ f 3.A.A.Z.j.p.p.[ t + S.S.S.S.S.S.S.S.S.S.S.S.",
"S.S.S.S.S.S.S.S.S.S.S.S.+ a <.A.A.A.A.A.A.7.B , , M 4.A.A.A.A.A.A.A.A.A.A.4.M , , B 4.A.A.Z.j.p.g.[ t + S.S.S.S.S.S.S.S.S.S.S.S.",
"S.S.S.S.S.S.S.S.S.S.S.S.O a <.A.A.C.x.s.d.6.P D D Y e.A.A.A.A.A.A.A.A.A.A.e.Y D D P 6.x.x.f.a.p.g.' t O S.S.S.S.S.S.S.S.S.S.S.S.",
"S.S.S.S.S.S.S.S.S.S.S.S.o a <.A.A.n.*.@.#.%.6.8.7.e.B.A.A.A.A.A.A.A.A.A.A.B.e.8.8.6.%.@.@.&.t.g.g.' q O S.S.S.S.S.S.S.S.S.S.S.S.",
"S.S.S.S.S.S.S.S.S.S.S.S.9 Z 8.A.A.n.*.@.@.=.M.A.A.A.A.A.A.z.2./ / 2.z.A.A.A.A.A.A.M.=.@.@.&.t.p.g.X.V 9 S.S.S.S.S.S.S.S.S.S.S.S.",
"S.S.S.S.S.S.S.S.S.S.+ r I ;.c.A.A.C.n.s.s.m.C.A.A.A.A.A.A.3.l - - l 3.A.A.A.A.A.A.C.m.s.s.f.a.p.p.y.O.I r + S.S.S.S.S.S.S.S.S.S.",
"S.S.S.S.S.S.S.S.S.S.+ t ' k.Z.A.A.A.A.A.A.A.A.A.A.A.A.A.A.3.l - - l 2.A.A.A.A.A.A.A.A.A.A.Z.j.i.p.p.h.[ t + S.S.S.S.S.S.S.S.S.S.",
"S.S.S.S.S.S.S.S.S.S.+ t { k.Z.A.A.A.A.A.A.A.A.A.A.A.A.A.A.z.2./ / 2.z.A.A.A.A.A.A.A.A.A.A.V.j.p.p.g.h.[ t + S.S.S.S.S.S.S.S.S.S.",
"S.S.S.S.S.S.S.S.S.S.+ t ' k.Z.A.A.A.A.A.A.A.A.A.A.A.A.A.A.A.A.A.A.A.A.A.A.A.A.A.A.A.A.A.Z.N.h.p.p.g.p.[ t # S.S.S.S.S.S.S.S.S.S.",
"S.S.S.S.S.S.S.S.S.S.+ t ' j.Z.A.A.A.A.A.A.A.A.A.A.A.A.A.A.A.A.A.A.A.A.A.A.A.A.A.A.A.A.Z.k.a.p.i.p.p.g.[ t + S.S.S.S.S.S.S.S.S.S.",
"S.S.S.S.S.S.S.S.S.S.. 9 ` k.Z.A.A.A.A.A.A.A.A.A.A.A.A.A.A.A.A.A.A.A.A.A.A.A.A.A.A.A.A.V.j.p.p.p.p.p.h.` 9 . S.S.S.S.S.S.S.S.S.S.",
"S.S.S.S.S.S.S.S.S.S.  > ! k.Z.A.A.A.A.A.A.A.A.A.A.A.A.A.A.A.A.A.A.A.A.A.A.A.A.A.A.A.A.V.j.i.p.p.p.p.g.~ =   S.S.S.S.S.S.S.S.S.S.",
"S.S.S.S.S.S.S.S.S.S.& d [ k.Z.A.A.A.A.A.A.A.A.A.A.A.A.A.A.A.A.A.A.A.A.A.A.A.A.A.A.A.A.V.h.p.i.p.p.p.p.{ d - S.S.S.S.S.S.S.S.S.S.",
"S.S.S.S.S.S.S.S.o 9 G } >.j.Z.A.A.A.A.A.A.A.A.A.A.A.A.A.A.A.A.A.A.A.A.A.A.A.A.A.A.A.A.V.j.i.p.p.p.p.p.>.{ L 8 X S.S.S.S.S.S.S.S.",
"S.S.S.S.S.S.S.S.9 V O.g.p.j.V.A.A.A.A.A.A.A.A.A.A.A.A.A.A.A.A.A.A.A.A.A.A.A.A.A.A.A.A.V.j.p.p.p.p.p.p.p.h.O.V 9 S.S.S.S.S.S.S.S.",
"S.S.S.S.S.S.+ q I X.y.p.p.j.V.A.A.A.A.A.A.A.A.A.A.A.A.A.A.A.A.A.A.A.A.A.A.A.A.A.A.A.A.V.j.p.i.p.p.i.u.p.g.q.O.I q + S.S.S.S.S.S.",
"S.S.S.S.S.S.+ t { g.a.p.p.h.b.Z.A.B.e.e.B.A.A.A.A.A.A.A.A.A.A.A.A.A.A.A.A.A.A.A.A.A.Z.N.h.i.p.p.p.p.p.p.p.h.h.[ t + S.S.S.S.S.S.",
"S.S.S.S.S.S.+ t [ h.p.p.p.p.h.v.C.e.P P e.A.A.A.A.A.A.A.A.A.A.A.A.A.A.A.A.A.A.A.A.V.v.a.p.p.p.p.p.p.i.p.p.g.g.[ i + S.S.S.S.S.S.",
"S.S.S.S.S.S.O t [ p.g.p.p.p.p.j.Z.4.D D 4.A.A.A.A.A.A.A.A.A.A.A.A.A.A.A.A.B.e.e.B.Z.h.p.p.p.p.p.p.p.p.p.p.p.g.' r O S.S.S.S.S.S.",
"S.S.S.S.S.S.O q ` h.p.p.p.i.p.k.A.7.S S 4.A.A.A.A.A.A.A.A.A.A.A.A.A.A.A.A.e.P P e.Z.j.p.i.p.p.i.p.p.p.p.p.p.g.' r O S.S.S.S.S.S.",
"S.S.S.S.S.S.q C X.p.p.p.p.p.p.u.w.] b D 4.A.A.A.A.A.A.A.A.A.A.A.A.A.A.B.r.] x S 5.N.j.p.p.p.p.p.i.p.i.u.p.g.g.X.V 9 S.S.S.S.S.S.",
"S.S.S.S.+ q U ;.y.p.p.p.p.p.p.:.R v g D 8.A.A.A.A.A.A.A.A.A.A.A.A.A.A.e.W b h m +.j.p.p.p.p.p.p.p.p.p.p.p.p.p.y.O.I r + S.S.S.S.",
"S.S.S.S.; r W ,.i.p.p.p.p.p.h.o.m 2 3 D 8.A.A.A.A.A.A.A.A.A.A.A.A.A.A.8.D 2 3 S o.p.p.p.p.i.p.p.p.p.p.i.p.p.p.p.j.{ k $ S.S.S.S.",
"S.S.S.S.1 y c K :.p.p.p.p.p.h.O.m 3 2 D 4.A.A.A.A.A.A.A.A.A.A.A.A.A.A.8.D 3 3 m o.p.p.p.p.p.p.p.i.p.p.p.p.p.p.g.h.X.b 1 S.S.S.S.",
"S.S.S.S.g 5 4 m o.p.h.p.p.i.:.( v 7 c E w.Z.A.A.A.A.A.A.A.A.A.A.A.B.e.| D 3 5 S o.h.p.p.i.p.i.u.p.p.p.p.p.p.p.y.:.) m 5 S.S.S.S.",
"S.S.S.S.S.S.3 m o.h.g.g.h.:.J c 7 v ( :.u.v.Z.A.A.A.A.A.A.A.A.A.A.e.Y S S.S.5 m o.p.p.p.p.p.p.p.p.p.p.p.p.h.h.:.J b S.S.S.S.S.S.",
"S.S.S.S.S.S.5 S _  .{  .o.) v 7 c K :.g.p.h.b.Z.A.A.A.A.A.A.A.A.A.8.D 2 S.S.5 m o.g.p.p.p.p.p.p.p.p.g.y.X.[  ._ m 2 S.S.S.S.S.S.",
"S.S.S.S.S.S.S.S.m b k p n v h v ( :.i.p.p.p.j.v.Z.A.A.A.A.A.A.A.A.7.D 3 S.S.5 S o.h.h.p.p.p.p.p.g.h.h.O.N p x m S.S.S.S.S.S.S.S.",
"S.S.S.S.S.S.S.S.4 1 * ; 1 4 2 n O.j.h.p.p.p.p.h.b.V.V.Z.A.A.A.B.l.] b 5 S.S.5 v ( :.i.p.p.g.p.y.X.[ ' I 9 @ < 4 S.S.S.S.S.S.S.S.",
"S.S.S.S.S.S.S.S.S.S.S.S.4 1 : k ..j.h.p.h.p.g.g.j.j.h.k.Z.A.A.r.Q b h 5 S.S.g h v J :.h.h.h.j.O.V q t q S.S.S.S.S.S.S.S.S.S.S.S.",
"S.S.S.S.S.S.S.S.S.S.S.S.g 1 * q U { [ [ [ [ ' X.y.p.p.j.N.N.r.] b 5 5 g S.S.5 5 4 z W [ [ [ [ L 9 O O + S.S.S.S.S.S.S.S.S.S.S.S.",
"S.S.S.S.S.S.S.S.S.S.S.S.S.S.S.S.q t t t t t r N O.h.h.j.k.0.E b h 5 S.S.S.S.S.S.5 g r t r t t q S.S.S.S.S.S.S.S.S.S.S.S.S.S.S.S.",
"S.S.S.S.S.S.S.S.S.S.S.S.S.S.S.S.+ + + + + O O 9 I [ [ [ [ R z 5 5 5 S.S.S.S.S.S.g 1 ; + + + + # S.S.S.S.S.S.S.S.S.S.S.S.S.S.S.S.",
"S.S.S.S.S.S.S.S.S.S.S.S.S.S.S.S.S.S.S.S.S.S.S.S.r t t t t r y 5 S.S.S.S.S.S.S.S.S.S.S.S.S.S.S.S.S.S.S.S.S.S.S.S.S.S.S.S.S.S.S.S.",
"S.S.S.S.S.S.S.S.S.S.S.S.S.S.S.S.S.S.S.S.S.S.S.S.+ + + + + ; 1 g S.S.S.S.S.S.S.S.S.S.S.S.S.S.S.S.S.S.S.S.S.S.S.S.S.S.S.S.S.S.S.S.",
"S.S.S.S.S.S.S.S.S.S.S.S.S.S.S.S.S.S.S.S.S.S.S.S.S.S.S.S.S.S.S.S.S.S.S.S.S.S.S.S.S.S.S.S.S.S.S.S.S.S.S.S.S.S.S.S.S.S.S.S.S.S.S.S.",
"S.S.S.S.S.S.S.S.S.S.S.S.S.S.S.S.S.S.S.S.S.S.S.S.S.S.S.S.S.S.S.S.S.S.S.S.S.S.S.S.S.S.S.S.S.S.S.S.S.S.S.S.S.S.S.S.S.S.S.S.S.S.S.S."
};
