/* XPM */
static char *result[] = {
/* columns rows colors chars-per-pixel */
"64 64 155 2 ",
"   c #000001",
".  c #141221",
"X  c #161429",
"o  c #19162A",
"O  c #1C1A2E",
"+  c #1E1C30",
"@  c #211F33",
"#  c #201E3A",
"$  c #222034",
"%  c #2B2E36",
"&  c #24223D",
"*  c #2B2A3E",
"=  c #2C3037",
"-  c #2F323A",
";  c gray19",
":  c #262540",
">  c #282642",
",  c #2F2F49",
"<  c #363A45",
"1  c #31304B",
"2  c #2F2E56",
"3  c #3D3E54",
"4  c #32315E",
"5  c #353461",
"6  c #35346C",
"7  c #3A396E",
"8  c #3C3C72",
"9  c #3F4057",
"0  c #404257",
"q  c #43455B",
"w  c #494758",
"e  c #46485F",
"r  c #4D4B5B",
"t  c #474961",
"y  c #4A4C63",
"u  c #40416F",
"i  c #494B68",
"p  c #504F61",
"a  c #555463",
"s  c #50526F",
"d  c #565C6A",
"f  c #414176",
"g  c #505270",
"h  c #51547D",
"j  c #686868",
"k  c #535687",
"l  c #595A86",
"z  c #535588",
"x  c #56598A",
"c  c #5B5D8B",
"v  c #5E6192",
"b  c #696E87",
"n  c #65648F",
"m  c #696F88",
"M  c #6B718A",
"N  c #797382",
"B  c #7C7B87",
"V  c #76798A",
"C  c #7F7E8A",
"Z  c #636593",
"A  c #676893",
"S  c #6A6A93",
"D  c #7E7EA1",
"F  c #807E8A",
"G  c #7F87A4",
"H  c #7F88A0",
"J  c #7B82AE",
"K  c #7D84B1",
"L  c #8080A3",
"P  c #8189A4",
"I  c #8387AE",
"U  c #868DAC",
"Y  c #8A8AAB",
"T  c #8790AC",
"R  c #8A93AE",
"E  c #9090AF",
"W  c #9E9DA5",
"Q  c #868EB0",
"!  c #8A93B6",
"~  c #8B94BF",
"^  c #9292B0",
"/  c #96A3BB",
"(  c #98A4BC",
")  c #A6A5AD",
"_  c #BBBBBB",
"`  c #8D96C0",
"'  c #929BC5",
"]  c #9AA6C0",
"[  c #9EAAC6",
"{  c #9FABC9",
"}  c #ABABC2",
"|  c #A2ADCB",
" . c #A4B1CD",
".. c #ACB5CE",
"X. c #B0B0C6",
"o. c #B4B4C8",
"O. c #A7B3D2",
"+. c #A8B5D0",
"@. c #ABB8D6",
"#. c #A7B3D9",
"$. c #A9B6DB",
"%. c #AEBBDA",
"&. c #B1BEDC",
"*. c #B1BEE2",
"=. c #DE94C7",
"-. c #DF95C8",
";. c #E095C7",
":. c #E196C8",
">. c #DAA3CA",
",. c #CEBBCB",
"<. c #DDABD8",
"1. c #E9B2D7",
"2. c #EBB4D9",
"3. c #BFC2CD",
"4. c #BBC4DB",
"5. c #B4C1E5",
"6. c #B8C5EA",
"7. c #BFCFEF",
"8. c #C6C6CB",
"9. c #C8C7CC",
"0. c #C7C8CC",
"q. c #CCCCCE",
"w. c #C7CADC",
"e. c #CFCFDC",
"r. c #D4D4DA",
"t. c #D9D9DC",
"y. c #C0D0EF",
"u. c #D1D5E6",
"i. c #DCDCE6",
"p. c #DFDFE8",
"a. c #D4CFF4",
"s. c #C4D3F4",
"d. c #CEDAF6",
"f. c #C6D6F8",
"g. c #CCDCFD",
"h. c #D6DDFA",
"j. c #F5DDED",
"k. c #F8DFEF",
"l. c #ECDEF3",
"z. c #CFE0FF",
"x. c #D2E2FE",
"c. c #D8E4FD",
"v. c #DCE9FF",
"b. c #EFEFEF",
"n. c #EAEEF5",
"m. c #E3ECFE",
"M. c #E9EFFE",
"N. c #F8E4F1",
"B. c #FCEAF6",
"V. c #EAF2FE",
"C. c #F3F3F5",
"Z. c #F3F6FD",
"A. c #F6F9FF",
"S. c #FFFFFF",
"D. c None",
/* pixels */
"D.D.D.D.D.D.D.D.D.D.D.D.D.D.D.D.D.D.D.D.D.D.D.D.D.D.D.D.D.D.D.D.D.D.D.D.D.D.D.D.D.D.D.D.D.D.D.D.D.D.D.D.D.D.D.D.D.D.D.D.D.D.D.D.",
"D.D.D.D.D.D.D.D.D.D.D.D.D.D.D.D.D.D.D.D.D.D.D.D.D.D.D.D.D.D.D.D.D.D.D.D.D.D.D.D.D.D.D.D.D.D.D.D.D.D.D.D.D.D.D.D.D.D.D.D.D.D.D.D.",
"D.D.D.D.D.D.D.D.D.D.D.D.D.D.D.D.D.D.D.D.D.D.D.D.D.D.D.D.D.D.D.D.D.D.D.D.D.D.D.D.D.D.D.D.D.D.D.D.D.D.D.D.D.D.D.D.D.D.D.D.D.D.D.D.",
"D.D.D.D.D.D.D.D.D.D.D.D.D.D.D.D.D.D.D.D.D.D.D.D.D.D.D.D.D.D.D.D.D.D.D.D.D.D.D.D.D.D.D.D.D.D.D.D.D.D.D.D.D.D.D.D.D.D.D.D.D.D.D.D.",
"D.D.D.D.D.D.D.D.D.D.D.D.D.D.D.D.D.D.D.D.D.D.O O O O O O O O O O O O O O O O O O O O D.D.D.D.D.D.D.D.D.D.D.D.D.D.D.D.D.D.D.D.D.D.",
"D.D.D.D.D.D.D.D.D.D.D.D.D.D.D.D.D.D.D.D.D.D.p a a a a a a a a a a a a a a a a a a r D.D.D.D.D.D.D.D.D.D.D.D.D.D.D.D.D.D.D.D.D.D.",
"D.D.D.D.D.D.D.D.D.D.D.D.D.D.D.D.$ $ O X X r ) q.q.0.0.0.0.0.0.0.0.0.0.0.0.0.0.0.9.) r X O O $ $ D.D.D.D.D.D.D.D.D.D.D.D.D.D.D.D.",
"D.D.D.D.D.D.D.D.D.D.D.D.D.D.D.D.$ > w a a F t.S.S.S.S.S.S.S.S.S.S.S.S.S.S.S.S.S.S.t.L p y 9 * $ D.D.D.D.D.D.D.D.D.D.D.D.D.D.D.D.",
"D.D.D.D.D.D.D.D.D.D.D.D.D.D.D.D.O w W q.q.r.C.S.S.S.S.S.S.S.S.S.S.S.S.S.S.S.S.S.S.C.r.8...P 0 O D.D.D.D.D.D.D.D.D.D.D.D.D.D.D.D.",
"D.D.D.D.D.D.D.D.D.D.D.D.D.D.D.D.O a q.S.S.S.S.S.S.S.S.S.S.S.S.S.S.S.S.S.S.S.S.S.S.S.S.S.V.@.p O D.D.D.D.D.D.D.D.D.D.D.D.D.D.D.D.",
"D.D.D.D.D.D.D.D.D.D.D.D.D.D.D.D.O a 0.S.S.S.S.S.S.S.S.S.S.S.S.S.S.S.S.S.S.S.S.S.S.S.S.S.S.o.a O D.D.D.D.D.D.D.D.D.D.D.D.D.D.D.D.",
"D.D.D.D.D.D.D.D.D.D.D.D.D.D.D.D.O a 0.S.S.S.S.S.S.S.S.S.S.S.S.S.S.S.S.S.S.S.S.S.S.S.S.S.S.0.a O D.D.D.D.D.D.D.D.D.D.D.D.D.D.D.D.",
"D.D.D.D.D.D.D.D.D.D.D.D.D.D.D.D.o a 0.S.S.S.S.S.S.S.S.S.S.S.S.S.S.S.S.S.S.S.S.S.S.S.S.S.S.0.a O D.D.D.D.D.D.D.D.D.D.D.D.D.D.D.D.",
"D.D.D.D.D.D.D.D.D.D.D.D.D.D.D.D.o a 0.S.S.S.S.S.S.S.S.S.S.S.S.S.S.S.S.S.S.S.S.S.S.S.S.S.S.8.a X D.D.D.D.D.D.D.D.D.D.D.D.D.D.D.D.",
"D.D.D.D.D.D.D.D.D.D.D.D.D.D.D.D.X p 8.S.S.S.S.S.S.S.S.S.S.S.S.S.S.S.S.S.S.S.S.S.S.S.S.S.S.8.p X D.D.D.D.D.D.D.D.D.D.D.D.D.D.D.D.",
"D.D.D.D.D.D.D.D.D.D.D.D.D.D.D.D.r F r.S.S.S.S.S.S.S.S.S.S.S.S.S.S.S.S.S.S.S.S.S.S.S.S.S.S.r.V q D.D.D.D.D.D.D.D.D.D.D.D.D.D.D.D.",
"D.D.D.D.D.D.D.D.D.D.D.D.D.D.O a ) r.C.S.S.S.S.S.S.S.S.S.S.S.S.S.S.S.S.S.S.S.S.S.S.S.S.S.S.n.4.U e O D.D.D.D.D.D.D.D.D.D.D.D.D.D.",
"D.D.D.D.D.D.D.D.D.D.D.D.D.D.+ a q.S.S.S.S.S.S.S.S.S.S.S.S.S.S.S.S.S.S.S.S.S.S.S.S.S.S.S.S.A.v.| p O D.D.D.D.D.D.D.D.D.D.D.D.D.D.",
"D.D.D.D.D.D.D.D.D.D.D.D.D.D.O a 0.S.S.S.S.S.S.S.S.S.S.S.S.S.S.S.S.S.S.S.S.S.S.S.S.S.S.S.S.A.v.| y O D.D.D.D.D.D.D.D.D.D.D.D.D.D.",
"D.D.D.D.D.D.D.D.D.D.D.D.D.D.O a 0.S.S.S.S.S.S.S.S.S.S.S.S.S.S.S.S.S.S.S.S.S.S.S.S.S.S.S.S.A.v.{ y O D.D.D.D.D.D.D.D.D.D.D.D.D.D.",
"D.D.D.D.D.D.D.D.D.D.D.D.D.D.+ a 0.S.S.S.S.S.S.S.S.S.S.S.S.S.S.S.S.S.S.S.S.S.S.S.S.S.S.S.S.A.c.{ y O D.D.D.D.D.D.D.D.D.D.D.D.D.D.",
"D.D.D.D.D.D.D.D.D.D.D.D.D.D.O a 0.S.S.S.S.S.S.S.S.S.S.S.S.S.S.S.S.S.S.S.S.S.S.S.S.S.S.S.S.A.v.| y O D.D.D.D.D.D.D.D.D.D.D.D.D.D.",
"D.D.D.D.D.D.D.D.D.D.D.D.D.D.O a 0.S.S.S.S.S.S.S.S.S.S.S.S.S.S.S.S.S.S.S.S.S.S.S.S.S.S.S.S.A.v.{ y O D.D.D.D.D.D.D.D.D.D.D.D.D.D.",
"D.D.D.D.D.D.D.D.D.D.D.D.D.D.O a 0.S.S.S.S.S.S.S.S.S.S.S.S.S.S.S.S.S.S.S.S.S.S.S.S.S.S.S.S.Z.v.{ y O D.D.D.D.D.D.D.D.D.D.D.D.D.D.",
"D.D.D.D.D.D.D.D.D.D.D.D.D.D.O a 0.S.S.S.S.S.S.S.S.S.S.S.S.S.S.S.S.S.S.S.S.S.S.S.S.S.S.S.S.A.v.{ y O D.D.D.D.D.D.D.D.D.D.D.D.D.D.",
"D.D.D.D.D.D.D.D.D.D.D.D.D.D.O a 0.S.S.S.S.C.r.8.8.r.b.S.S.S.S.S.S.S.S.S.S.C.r.8.8.r.b.S.S.A.v.{ y O D.D.D.D.D.D.D.D.D.D.D.D.D.D.",
"D.D.D.D.D.D.D.D.D.D.D.D.D.D.O a 8.S.S.S.S.r.B w r B r.S.S.S.S.S.S.S.S.S.S.r.B w r B r.S.S.A.v.[ y O D.D.D.D.D.D.D.D.D.D.D.D.D.D.",
"D.D.D.D.D.D.D.D.D.D.D.D.D.D.X a 8.S.B.j.k.,.N r r B r.S.S.S.S.S.S.S.S.S.S.r.B r r N ,.N.k.l.c.| y O D.D.D.D.D.D.D.D.D.D.D.D.D.D.",
"D.D.D.D.D.D.D.D.D.D.D.D.D.D.X a 9.B.2.=.;.>.,.0.8.r.b.S.S.S.S.S.S.S.S.S.S.b.r.8.8.,.>.;.:.<.a.{ e O D.D.D.D.D.D.D.D.D.D.D.D.D.D.",
"D.D.D.D.D.D.D.D.D.D.D.D.D.D.e V r.B.1.=.=.2.N.S.S.S.S.S.S.b.q._ _ q.b.S.S.S.S.S.S.N.1.-.-.<.a.@.M q D.D.D.D.D.D.D.D.D.D.D.D.D.D.",
"D.D.D.D.D.D.D.D.D.D.D.D.O e U 4.n.S.N.j.j.N.S.S.S.S.S.S.S.q.j ; ; j q.S.S.S.S.S.S.S.N.j.j.l.h.s.%.T e O D.D.D.D.D.D.D.D.D.D.D.D.",
"D.D.D.D.D.D.D.D.D.D.D.D.O y | v.A.S.S.S.S.S.S.S.S.S.S.S.S.q.j ; ; j q.S.S.S.S.S.S.S.S.S.S.A.c.g.x. .y O D.D.D.D.D.D.D.D.D.D.D.D.",
"D.D.D.D.D.D.D.D.D.D.D.D.+ y { v.A.S.S.S.S.S.S.S.S.S.S.S.S.b.q._ _ q.b.S.S.S.S.S.S.S.S.S.S.Z.c.g.x.| y O D.D.D.D.D.D.D.D.D.D.D.D.",
"D.D.D.D.D.D.D.D.D.D.D.D.+ y { v.A.S.S.S.S.S.S.S.S.S.S.S.S.S.S.S.S.S.S.S.S.S.S.S.S.S.S.S.A.V.c.g.z.| y O D.D.D.D.D.D.D.D.D.D.D.D.",
"D.D.D.D.D.D.D.D.D.D.D.D.+ y { v.A.S.S.S.S.S.S.S.S.S.S.S.S.S.S.S.S.S.S.S.S.S.S.S.S.S.S.Z.v.x.g.g.g.| y @ D.D.D.D.D.D.D.D.D.D.D.D.",
"D.D.D.D.D.D.D.D.D.D.D.D.. q [ v.A.S.S.S.S.S.S.S.S.S.S.S.S.S.S.S.S.S.S.S.S.S.S.S.S.S.S.Z.c.f.g.g.x.[ q . D.D.D.D.D.D.D.D.D.D.D.D.",
"D.D.D.D.D.D.D.D.D.D.D.D.  < ] v.A.S.S.S.S.S.S.S.S.S.S.S.S.S.S.S.S.S.S.S.S.S.S.S.S.S.S.Z.c.f.g.x.g.] <   D.D.D.D.D.D.D.D.D.D.D.D.",
"D.D.D.D.D.D.D.D.D.D.D.D.  - ( v.A.S.S.S.S.S.S.S.S.S.S.S.S.S.S.S.S.S.S.S.S.S.S.S.S.S.S.Z.c.g.g.g.x.( -   D.D.D.D.D.D.D.D.D.D.D.D.",
"D.D.D.D.D.D.D.D.D.D.D.D.  - / v.A.S.S.S.S.S.S.S.S.S.S.S.S.S.S.S.S.S.S.S.S.S.S.S.S.S.S.Z.c.g.g.g.x.( -   D.D.D.D.D.D.D.D.D.D.D.D.",
"D.D.D.D.D.D.D.D.D.D.D.D.  - / v.A.S.S.S.S.S.S.S.S.S.S.S.S.S.S.S.S.S.S.S.S.S.S.S.S.S.S.Z.c.f.g.g.g.( -   D.D.D.D.D.D.D.D.D.D.D.D.",
"D.D.D.D.D.D.D.D.D.D.D.D.  = / v.A.S.S.S.S.S.S.S.S.S.S.S.S.S.S.S.S.S.S.S.S.S.S.S.S.S.S.Z.c.f.g.g.x./ =   D.D.D.D.D.D.D.D.D.D.D.D.",
"D.D.D.D.D.D.D.D.D.D.D.D.% d  .v.A.S.S.S.S.S.S.S.S.S.S.S.S.S.S.S.S.S.S.S.S.S.S.S.S.S.S.Z.c.g.g.g.g. .d % D.D.D.D.D.D.D.D.D.D.D.D.",
"D.D.D.D.D.D.D.D.D.D.X 9 H +.7.c.Z.S.S.S.S.S.S.S.S.S.S.S.S.S.S.S.S.S.S.S.S.S.S.S.S.S.S.Z.c.f.f.g.g.y.+.P 0 X D.D.D.D.D.D.D.D.D.D.",
"D.D.D.D.D.D.D.D.D.D.q m %.x.g.x.Z.S.S.S.S.C.i.u.C.S.S.S.S.S.S.S.S.S.S.S.S.S.S.S.S.S.S.Z.c.g.g.g.g.g.x.%.m q D.D.D.D.D.D.D.D.D.D.",
"D.D.D.D.D.D.D.D.O r U %.f.g.g.c.Z.S.S.S.S.i.Y Y u.S.S.S.S.S.S.S.S.S.S.S.S.S.S.S.S.S.S.Z.c.f.g.g.g.g.g.s.%.U r O D.D.D.D.D.D.D.D.",
"D.D.D.D.D.D.D.D.+ y | x.g.g.g.x.M.A.S.Z.i.o.L Y i.S.S.S.S.S.S.S.S.S.S.S.S.S.S.S.S.S.A.M.x.g.f.g.g.g.g.x.x.| y O D.D.D.D.D.D.D.D.",
"D.D.D.D.D.D.D.D.O y | x.x.g.f.g.h.m.S.p.~ F o.i.C.S.S.S.S.S.S.S.S.S.S.S.S.S.S.S.S.A.m.x.g.g.f.g.g.g.f.x.x.| y O D.D.D.D.D.D.D.D.",
"D.D.D.D.D.D.D.D.X t | x.g.f.g.g.g.d.u.} x Z r.S.S.S.S.S.S.S.S.S.S.S.S.C.i.e.e.i.C.Z.x.g.g.g.g.g.f.g.g.g.g.| y O D.D.D.D.D.D.D.D.",
"D.D.D.D.D.D.D.D.X y [ g.g.g.g.g.g.5.Q c 8 A e.S.S.S.S.S.S.S.S.S.S.S.S.i.E A S E i.S.c.g.f.g.f.g.g.g.f.x.z.{ t X D.D.D.D.D.D.D.D.",
"D.D.D.D.D.D.D.D.q M %.g.g.g.g.g.g.$.v f l ^ i.S.S.S.S.S.S.S.S.S.S.S.S.u.S 6 6 A w.V.x.g.g.g.g.g.g.g.g.g.g.@.M q D.D.D.D.D.D.D.D.",
"D.D.D.D.D.D.O e R &.f.g.g.g.g.g.x.$.v c } p.C.S.S.S.S.S.S.S.S.S.S.S.S.r.S 6 6 Z &.c.x.f.g.g.g.g.g.g.g.g.g.s.%.T e O D.D.D.D.D.D.",
"D.D.D.D.D.D.& y ! 6.f.g.g.g.g.f.5.~ z S r.S.S.S.S.S.S.S.S.S.S.S.S.C.i.o.S 7 8 v $.z.g.g.g.g.f.g.g.f.g.g.g.x.x.+.g & D.D.D.D.D.D.",
"D.D.D.D.D.D.5 f x K 5.z.g.g.x.5.K z 8 S e.S.S.S.S.S.S.S.S.S.S.S.S.i.E Z D.D.8 v $.x.z.g.g.f.g.g.g.f.g.g.g.g.x.#.c 5 D.D.D.D.D.D.",
"D.D.D.D.D.D.f 8 7 v #.x.x.f.5.` z f z Q u.S.S.S.S.S.S.S.S.S.S.S.S.e.S 6 D.D.8 v ' 5.s.g.g.g.g.g.g.g.g.g.g.f.5.' v 8 D.D.D.D.D.D.",
"D.D.D.D.D.D.D.D.7 v #.c.x.5.K z 8 z ~ 5.d.v.A.S.S.S.S.S.S.S.S.S.S.e.S 6 D.D.D.D.c J *.g.g.g.g.g.g.g.g.x.x.5.J c D.D.D.D.D.D.D.D.",
"D.D.D.D.D.D.D.D.8 v ' #.O.! x f x Q 5.g.g.x.m.S.S.S.S.S.S.S.S.Z.i.X.A 8 D.D.D.D.6 v #.z.g.g.g.z.g.s.%.| #.' c 6 D.D.D.D.D.D.D.D.",
"D.D.D.D.D.D.D.D.D.D.v c s t 7 c ' 6.f.g.g.g.x.m.A.S.S.S.S.S.S.p.E n D.D.D.D.D.D.7 v #.z.g.g.g.x.x.%.b s l v D.D.D.D.D.D.D.D.D.D.",
"D.D.D.D.D.D.D.D.D.D.8 4 & & 2 h ! &.f.g.x.g.g.x.m.Z.Z.S.S.A.i.} n 6 D.D.D.D.D.D.8 Z $.z.x.s.%.| | U q # 4 8 D.D.D.D.D.D.D.D.D.D.",
"D.D.D.D.D.D.D.D.D.D.D.D.D.D.: , q M &.x.x.g.z.z.x.c.c.m.S.i.E n D.D.D.D.D.D.D.D.8 Z %.x.x.%.M e t e D.D.D.D.D.D.D.D.D.D.D.D.D.D.",
"D.D.D.D.D.D.D.D.D.D.D.D.D.D.$ O O 3 P  .| { | @.s.z.g.d.u.X.n 6 D.D.D.D.D.D.D.D.5 h Q  .O.G 3 O O O D.D.D.D.D.D.D.D.D.D.D.D.D.D.",
"D.D.D.D.D.D.D.D.D.D.D.D.D.D.D.D.+ * 3 y y y t m %.x.x.5.I n D.D.D.D.D.D.D.D.D.D.> 1 q y y 0 * O D.D.D.D.D.D.D.D.D.D.D.D.D.D.D.D.",
"D.D.D.D.D.D.D.D.D.D.D.D.D.D.D.D.$ @ + O O O X q T  . .! x 6 D.D.D.D.D.D.D.D.D.D.$ @ O O O O $ $ D.D.D.D.D.D.D.D.D.D.D.D.D.D.D.D.",
"D.D.D.D.D.D.D.D.D.D.D.D.D.D.D.D.D.D.D.D.D.D.D.D.r y y y D.D.D.D.D.D.D.D.D.D.D.D.D.D.D.D.D.D.D.D.D.D.D.D.D.D.D.D.D.D.D.D.D.D.D.D.",
"D.D.D.D.D.D.D.D.D.D.D.D.D.D.D.D.D.D.D.D.D.D.D.D.+ O O O D.D.D.D.D.D.D.D.D.D.D.D.D.D.D.D.D.D.D.D.D.D.D.D.D.D.D.D.D.D.D.D.D.D.D.D."
};
