/* XPM */
static char *result[] = {
/* columns rows colors chars-per-pixel */
"64 64 145 2 ",
"   c #020203",
".  c #050409",
"X  c #110F1D",
"o  c #14141C",
"O  c #151324",
"+  c #181527",
"@  c #161429",
"#  c #19162A",
"$  c #1C1A2E",
"%  c #1E1C30",
"&  c #211F33",
"*  c #201E3A",
"=  c #222034",
"-  c #24223D",
";  c #2B2A3E",
":  c gray19",
">  c #262540",
",  c #282642",
"<  c #2F2F49",
"1  c #353549",
"2  c #2F2E56",
"3  c #3D3E54",
"4  c #32315E",
"5  c #353461",
"6  c #35346C",
"7  c #3A396E",
"8  c #3C3C72",
"9  c #3F4057",
"0  c #43455B",
"q  c #494758",
"w  c #46485F",
"e  c #4D4B5B",
"r  c #454664",
"t  c #474962",
"y  c #494C63",
"u  c #40416F",
"i  c #4D4F6C",
"p  c #504F61",
"a  c #555463",
"s  c #50526F",
"d  c #414176",
"f  c #505270",
"g  c #51547D",
"h  c #686868",
"j  c #535687",
"k  c #595A86",
"l  c #535588",
"z  c #56598A",
"x  c #5B5D8C",
"c  c #5E6192",
"v  c #696E87",
"b  c #65658F",
"n  c #696F88",
"m  c #6B718B",
"M  c #797382",
"N  c #7C7B87",
"B  c #767889",
"V  c #7D7D8B",
"C  c #626594",
"Z  c #686791",
"A  c #6A6993",
"S  c #807E8A",
"D  c #7D859F",
"F  c #7F87A4",
"G  c #7B82AE",
"H  c #7D84B1",
"J  c #8189A4",
"K  c #8387AE",
"L  c #868DAC",
"P  c #8E8EAD",
"I  c #8790AC",
"U  c #8A93AE",
"Y  c #9E9DA5",
"T  c #9090AF",
"R  c #868EB0",
"E  c #8A93B6",
"W  c #8B94BF",
"Q  c #A6A5AD",
"!  c #A7A7BF",
"~  c #BBBBBB",
"^  c #8D96C0",
"/  c #929BC5",
"(  c #9FABC9",
")  c #AFAFC5",
"_  c #A2ADCB",
"`  c #A5B1CE",
"'  c #ACB5CE",
"]  c #B0B0C6",
"[  c #B4B4C8",
"{  c #A6B2D3",
"}  c #ABB8D6",
"|  c #A7B3D9",
" . c #A9B6DB",
".. c #AEBBDA",
"X. c #B1BEDC",
"o. c #B1BEE2",
"O. c #DE94C7",
"+. c #DF95C8",
"@. c #E095C7",
"#. c #E196C8",
"$. c #DAA3CA",
"%. c #CEBBCB",
"&. c #DDABD8",
"*. c #E9B2D7",
"=. c #EBB4D9",
"-. c #BFC2CD",
";. c #BCC5DC",
":. c #B4C1E6",
">. c #BEC7E4",
",. c #B8C5EA",
"<. c #C6C6CB",
"1. c #C8C7CC",
"2. c #CBCBCE",
"3. c #C7CADC",
"4. c #CECEDC",
"5. c #D4D4DA",
"6. c #D5D8DC",
"7. c #D9D9DC",
"8. c #D1D5E6",
"9. c #DCDCE6",
"0. c #D4CFF4",
"q. c #C4D3F4",
"w. c #CEDBF7",
"e. c #C6D6F8",
"r. c #CCDCFD",
"t. c #D2DEFD",
"y. c #F5DDED",
"u. c #F8DFEF",
"i. c #ECDEF3",
"p. c #CFE0FF",
"a. c #D3E3FE",
"s. c #D8E4FE",
"d. c #DDE9FF",
"f. c #EFEFEF",
"g. c #EBEEF5",
"h. c #E3ECFE",
"j. c #E8EFFE",
"k. c #F8E4F1",
"l. c #FCEAF6",
"z. c #EAF2FE",
"x. c #F3F3F4",
"c. c #F4F6FC",
"v. c #F6F9FF",
"b. c #FFFFFF",
"n. c None",
/* pixels */
"n.n.n.n.n.n.n.n.n.n.n.n.n.n.n.n.n.n.n.n.n.n.n.n.n.n.n.n.n.n.n.n.n.n.n.n.n.n.n.n.n.n.n.n.n.n.n.n.n.n.n.n.n.n.n.n.n.n.n.n.n.n.n.n.",
"n.n.n.n.n.n.n.n.n.n.n.n.n.n.n.n.n.n.n.n.n.n.n.n.n.n.n.n.n.n.n.n.n.n.n.n.n.n.n.n.n.n.n.n.n.n.n.n.n.n.n.n.n.n.n.n.n.n.n.n.n.n.n.n.",
"n.n.n.n.n.n.n.n.n.n.n.n.n.n.n.n.n.n.n.n.n.n.n.n.n.n.n.n.n.n.n.n.n.n.n.n.n.n.n.n.n.n.n.n.n.n.n.n.n.n.n.n.n.n.n.n.n.n.n.n.n.n.n.n.",
"n.n.n.n.n.n.n.n.n.n.n.n.n.n.n.n.n.n.n.n.n.n.n.n.n.n.n.n.n.n.n.n.n.n.n.n.n.n.n.n.n.n.n.n.n.n.n.n.n.n.n.n.n.n.n.n.n.n.n.n.n.n.n.n.",
"n.n.n.n.n.n.n.n.n.n.n.n.n.n.n.n.n.n.n.n.n.n.n.n.n.n.n.n.n.n.n.n.n.n.n.n.n.n.n.n.n.n.n.n.n.n.n.n.n.n.n.n.n.n.n.n.n.n.n.n.n.n.n.n.",
"n.n.n.n.n.n.n.n.n.n.n.n.n.n.n.n.n.n.n.n.n.n.n.n.n.n.n.n.n.n.n.n.n.n.n.n.n.n.n.n.n.n.n.n.n.n.n.n.n.n.n.n.n.n.n.n.n.n.n.n.n.n.n.n.",
"n.n.n.n.n.n.n.n.n.n.n.n.n.n.n.n.n.n.n.n.n.n.n.n.n.n.n.n.n.n.n.n.n.n.n.n.n.n.n.n.n.n.n.n.n.n.n.n.n.n.n.n.n.n.n.n.n.n.n.n.n.n.n.n.",
"n.n.n.n.n.n.n.n.n.n.n.n.n.n.n.n.n.n.n.n.n.n.n.n.n.n.n.n.n.n.n.n.n.n.n.n.n.n.n.n.n.n.n.n.n.n.n.n.n.n.n.n.n.n.n.n.n.n.n.n.n.n.n.n.",
"n.n.n.n.n.n.n.n.n.n.n.n.n.n.n.n.n.n.n.n.n.n.n.n.n.n.n.n.n.n.n.n.n.n.n.n.n.n.n.n.n.n.n.n.n.n.n.n.n.n.n.n.n.n.n.n.n.n.n.n.n.n.n.n.",
"n.n.n.n.n.n.n.n.n.n.n.n.n.n.n.n.n.n.n.n.n.n.n.n.n.n.n.n.n.n.n.n.n.n.n.n.n.n.n.n.n.n.n.n.n.n.n.n.n.n.n.n.n.n.n.n.n.n.n.n.n.n.n.n.",
"n.n.n.n.n.n.n.n.n.n.n.n.n.n.n.n.n.n.n.n.n.n.n.n.n.n.n.n.n.n.n.n.n.n.n.n.n.n.n.n.n.n.n.n.n.n.n.n.n.n.n.n.n.n.n.n.n.n.n.n.n.n.n.n.",
"n.n.n.n.n.n.n.n.n.n.n.n.n.n.n.n.n.n.n.n.n.n.n.n.n.n.n.n.n.n.n.n.n.n.n.n.n.n.n.n.n.n.n.n.n.n.n.n.n.n.n.n.n.n.n.n.n.n.n.n.n.n.n.n.",
"n.n.n.n.n.n.n.n.n.n.n.n.n.n.n.n.n.n.n.n.n.n.n.n.n.n.n.n.n.n.n.n.n.n.n.n.n.n.n.n.n.n.n.n.n.n.n.n.n.n.n.n.n.n.n.n.n.n.n.n.n.n.n.n.",
"n.n.n.n.n.n.n.n.n.n.n.n.n.n.n.n.n.n.n.n.n.n.n.n.n.n.n.n.n.n.n.n.n.n.n.n.n.n.n.n.n.n.n.n.n.n.n.n.n.n.n.n.n.n.n.n.n.n.n.n.n.n.n.n.",
"n.n.n.n.n.n.n.n.n.n.n.n.n.n.n.n.n.n.n.n.n.n.$ # $ % $ $ % $ $ $ % % $ $ $ % $ $ $ $ n.n.n.n.n.n.n.n.n.n.n.n.n.n.n.n.n.n.n.n.n.n.",
"n.n.n.n.n.n.n.n.n.n.n.n.n.n.n.n.n.n.n.n.n.n.a a a a a a a a a a a a a a a a a a a a n.n.n.n.n.n.n.n.n.n.n.n.n.n.n.n.n.n.n.n.n.n.",
"n.n.n.n.n.n.n.n.n.n.n.n.n.n.n.n.= & % @ @ e Q 2.2.<.<.<.<.<.<.<.2.<.<.<.<.<.<.2.2.Q e O # $ = = n.n.n.n.n.n.n.n.n.n.n.n.n.n.n.n.",
"n.n.n.n.n.n.n.n.n.n.n.n.n.n.n.n.& ; q a a V 7.b.b.b.b.b.b.b.b.b.b.b.b.b.b.b.b.b.b.7.V a y 9 ; = n.n.n.n.n.n.n.n.n.n.n.n.n.n.n.n.",
"n.n.n.n.n.n.n.n.n.n.n.n.n.n.n.n.% q Y 2.2.5.x.b.b.b.b.b.b.b.b.b.b.b.b.b.b.b.b.b.b.x.5.-.' F 9 % n.n.n.n.n.n.n.n.n.n.n.n.n.n.n.n.",
"n.n.n.n.n.n.n.n.n.n.n.n.n.n.n.n.$ a 2.b.b.b.b.b.b.b.b.b.b.b.b.b.b.b.b.b.b.b.b.b.b.b.b.b.z.' y $ n.n.n.n.n.n.n.n.n.n.n.n.n.n.n.n.",
"n.n.n.n.n.n.n.n.n.n.n.n.n.n.n.n.$ a 2.b.b.b.b.b.b.b.b.b.b.b.b.b.b.b.b.b.b.b.b.b.b.b.b.b.b.-.a $ n.n.n.n.n.n.n.n.n.n.n.n.n.n.n.n.",
"n.n.n.n.n.n.n.n.n.n.n.n.n.n.n.n.$ a <.b.b.b.b.b.b.b.b.b.b.b.b.b.b.b.b.b.b.b.b.b.b.b.b.b.b.1.a $ n.n.n.n.n.n.n.n.n.n.n.n.n.n.n.n.",
"n.n.n.n.n.n.n.n.n.n.n.n.n.n.n.n.$ a <.b.b.b.b.b.b.b.b.b.b.b.b.b.b.b.b.b.b.b.b.b.b.b.b.b.b.<.a $ n.n.n.n.n.n.n.n.n.n.n.n.n.n.n.n.",
"n.n.n.n.n.n.n.n.n.n.n.n.n.n.n.n.@ a <.b.b.b.b.b.b.b.b.b.b.b.b.b.b.b.b.b.b.b.b.b.b.b.b.b.b.<.a # n.n.n.n.n.n.n.n.n.n.n.n.n.n.n.n.",
"n.n.n.n.n.n.n.n.n.n.n.n.n.n.n.n.@ a <.b.b.b.b.b.b.b.b.b.b.b.b.b.b.b.b.b.b.b.b.b.b.b.b.b.b.<.p + n.n.n.n.n.n.n.n.n.n.n.n.n.n.n.n.",
"n.n.n.n.n.n.n.n.n.n.n.n.n.n.n.n.e V 5.b.b.b.b.b.b.b.b.b.b.b.b.b.b.b.b.b.b.b.b.b.b.b.b.b.b.5.B 0 n.n.n.n.n.n.n.n.n.n.n.n.n.n.n.n.",
"n.n.n.n.n.n.n.n.n.n.n.n.n.n.$ a Q 7.x.b.b.b.b.b.b.b.b.b.b.b.b.b.b.b.b.b.b.b.b.b.b.b.b.b.b.g.;.L w $ n.n.n.n.n.n.n.n.n.n.n.n.n.n.",
"n.n.n.n.n.n.n.n.n.n.n.n.n.n.$ a 2.b.b.b.b.b.b.b.b.b.b.b.b.b.b.b.b.b.b.b.b.b.b.b.b.b.b.b.b.v.d._ y $ n.n.n.n.n.n.n.n.n.n.n.n.n.n.",
"n.n.n.n.n.n.n.n.n.n.n.n.n.n.$ a 1.b.b.b.b.b.b.b.b.b.b.b.b.b.b.b.b.b.b.b.b.b.b.b.b.b.b.b.b.v.d._ y $ n.n.n.n.n.n.n.n.n.n.n.n.n.n.",
"n.n.n.n.n.n.n.n.n.n.n.n.n.n.$ a <.b.b.b.b.b.b.b.b.b.b.b.b.b.b.b.b.b.b.b.b.b.b.b.b.b.b.b.b.v.d.( y $ n.n.n.n.n.n.n.n.n.n.n.n.n.n.",
"n.n.n.n.n.n.n.n.n.n.n.n.n.n.$ a <.b.b.b.b.b.b.b.b.b.b.b.b.b.b.b.b.b.b.b.b.b.b.b.b.b.b.b.b.v.d.( y $ n.n.n.n.n.n.n.n.n.n.n.n.n.n.",
"n.n.n.n.n.n.n.n.n.n.n.n.n.n.$ a <.b.b.b.b.b.b.b.b.b.b.b.b.b.b.b.b.b.b.b.b.b.b.b.b.b.b.b.b.v.d._ y $ n.n.n.n.n.n.n.n.n.n.n.n.n.n.",
"n.n.n.n.n.n.n.n.n.n.n.n.n.n.$ a <.b.b.b.b.b.b.b.b.b.b.b.b.b.b.b.b.b.b.b.b.b.b.b.b.b.b.b.b.c.s.( y $ n.n.n.n.n.n.n.n.n.n.n.n.n.n.",
"n.n.n.n.n.n.n.n.n.n.n.n.n.n.$ a <.b.b.b.b.b.b.b.b.b.b.b.b.b.b.b.b.b.b.b.b.b.b.b.b.b.b.b.b.v.d.( y $ n.n.n.n.n.n.n.n.n.n.n.n.n.n.",
"n.n.n.n.n.n.n.n.n.n.n.n.n.n.$ a 1.b.b.b.b.b.b.b.b.b.b.b.b.b.b.b.b.b.b.b.b.b.b.b.b.b.b.b.b.v.d.( y $ n.n.n.n.n.n.n.n.n.n.n.n.n.n.",
"n.n.n.n.n.n.n.n.n.n.n.n.n.n.$ a <.b.b.b.b.x.5.<.<.5.x.b.b.b.b.b.b.b.b.b.b.x.5.<.<.5.x.b.b.v.d.( y $ n.n.n.n.n.n.n.n.n.n.n.n.n.n.",
"n.n.n.n.n.n.n.n.n.n.n.n.n.n.% a <.b.b.b.b.5.N p q N 5.b.b.b.b.b.b.b.b.b.b.5.N q q N 5.b.b.v.d.( y $ n.n.n.n.n.n.n.n.n.n.n.n.n.n.",
"n.n.n.n.n.n.n.n.n.n.n.n.n.n.+ a 2.b.l.y.k.%.h a e N 5.b.b.b.b.b.b.b.b.b.b.5.N e e M %.k.k.i.t.( y + n.n.n.n.n.n.n.n.n.n.n.n.n.n.",
"n.n.n.n.n.n.n.n.n.n.n.n.    O a 2.l.=.O.#.$.%.<.<.5.f.b.b.b.b.b.b.b.b.b.b.f.5.<.<.%.$.#.#.&.0._ y O .   n.n.n.n.n.n.n.n.n.n.n.n.",
"n.n.n.n.n.n.n.n.n.n.n.n.  X 1 V 6.l.=.O.O.*.k.b.b.b.b.b.b.f.2.~ ~ 2.f.b.b.b.b.b.b.l.*.@.@.&.0...m 1 o   n.n.n.n.n.n.n.n.n.n.n.n.",
"n.n.n.n.n.n.n.n.n.n.n.n.X 1 D ;.g.b.k.y.y.k.b.b.b.b.b.b.b.2.h : : h 2.b.b.b.b.b.b.b.k.y.y.i.t.q...D 1 o n.n.n.n.n.n.n.n.n.n.n.n.",
"n.n.n.n.n.n.n.n.n.n.n.n.w m ..d.c.b.b.b.b.b.b.b.b.b.b.b.b.2.h : : h 2.b.b.b.b.b.b.b.b.b.b.v.s.r.p...m 0 n.n.n.n.n.n.n.n.n.n.n.n.",
"n.n.n.n.n.n.n.n.n.n.+ 0 L ..q.d.c.b.b.b.b.b.b.b.b.b.b.b.b.f.2.~ ~ 2.f.b.b.b.b.b.b.b.b.b.b.v.s.r.r.e...L 0 + n.n.n.n.n.n.n.n.n.n.",
"n.n.n.n.n.n.n.n.n.n.0 n } a.r.a.c.b.b.b.b.b.b.b.b.b.b.b.b.b.b.b.b.b.b.b.b.b.b.b.b.b.b.b.v.j.a.e.r.r.a...n 0 n.n.n.n.n.n.n.n.n.n.",
"n.n.n.n.n.n.n.n.$ t I ..q.r.r.s.c.b.b.b.b.b.b.b.b.b.b.b.b.b.b.b.b.b.b.b.b.b.b.b.b.b.b.v.h.t.r.r.r.r.p.e...L w $ n.n.n.n.n.n.n.n.",
"n.n.n.n.n.n.n.n.$ y _ a.t.r.e.s.c.b.b.b.b.b.b.b.b.b.b.b.b.b.b.b.b.b.b.b.b.b.b.b.b.b.b.c.s.e.r.r.e.r.r.r.a.` y $ n.n.n.n.n.n.n.n.",
"n.n.n.n.n.n.n.n.$ y _ a.p.r.r.t.c.b.b.b.b.b.b.b.b.b.b.b.b.b.b.b.b.b.b.b.b.b.b.b.b.b.b.c.s.e.r.e.r.r.r.r.a._ y $ n.n.n.n.n.n.n.n.",
"n.n.n.n.n.n.n.n.# t ( r.r.r.r.a.j.g.9.4.3.9.x.b.b.b.b.b.b.b.b.b.b.b.b.x.9.4.4.9.x.b.v.j.a.r.r.r.e.r.r.r.r._ y # n.n.n.n.n.n.n.n.",
"n.n.n.n.n.n.n.n.# w ( r.t.r.r.r.a.3.R A C P 9.b.b.b.b.b.b.b.b.b.b.b.b.9.U Z Z T 9.b.h.a.r.r.r.e.r.r.r.r.p.( w # n.n.n.n.n.n.n.n.",
"n.n.n.n.n.n.n.n.w m ..r.r.r.r.r.p. .c 8 z P 9.b.b.b.b.b.b.b.b.b.b.b.b.8.A 6 6 A 3.z.a.r.e.r.r.r.r.r.r.r.r.} n 0 n.n.n.n.n.n.n.n.",
"n.n.n.n.n.n.$ t U X.q.r.r.r.r.r.r. .c k ! 9.c.b.b.b.b.b.b.b.b.b.b.b.b.5.A 6 6 C X.s.a.e.r.r.r.r.r.r.r.r.r.q...I w $ n.n.n.n.n.n.",
"n.n.n.n.n.n.- y E ,.e.r.r.r.r.e.:.^ l A 5.b.b.b.b.b.b.b.b.b.b.b.b.x.9.[ A 8 8 c  .a.r.r.r.r.r.e.r.e.r.r.r.p.a.{ f - n.n.n.n.n.n.",
"n.n.n.n.n.n.5 d z H :.p.r.r.a.:.H l 8 A 5.b.b.b.b.b.b.b.b.b.b.b.b.9.T Z n.n.8 c  .a.r.r.e.r.r.r.r.r.r.r.r.r.a. .x 5 n.n.n.n.n.n.",
"n.n.n.n.n.n.d 8 7 c | a.a.e.:.^ z 8 l R 8.v.b.b.b.b.b.b.b.b.b.b.b.4.Z 6 n.n.8 c / :.q.r.r.r.r.r.e.r.r.r.r.e.:./ c 8 n.n.n.n.n.n.",
"n.n.n.n.n.n.n.n.7 c  .a.a.:.H l 8 z ^ :.w.h.v.b.b.b.b.b.b.b.b.b.b.4.A 6 n.n.n.n.x G o.r.p.r.r.e.r.e.t.a.a.:.G x n.n.n.n.n.n.n.n.",
"n.n.n.n.n.n.n.n.8 c /  .{ E j d z H ,.r.r.a.j.v.b.b.b.b.b.b.b.x.9.) Z 8 n.n.n.n.6 c | p.r.r.r.p.a.q.} _ | / x 6 n.n.n.n.n.n.n.n.",
"n.n.n.n.n.n.n.n.n.n.c x s r 7 x / ,.e.r.r.r.a.h.v.b.b.b.b.b.b.9.T Z n.n.n.n.n.n.7 c | r.r.r.p.a.a...n i x c n.n.n.n.n.n.n.n.n.n.",
"n.n.n.n.n.n.n.n.n.n.8 4 - - 2 g E X.q.a.r.r.r.a.z.c.c.v.b.c.9.) b 6 n.n.n.n.n.n.8 C  .a.a.q.} ` _ L 0 * 2 8 n.n.n.n.n.n.n.n.n.n.",
"n.n.n.n.n.n.n.n.n.n.n.n.n.n.; < 0 m X.a.a.r.p.a.a.s.a.h.b.9.T b n.n.n.n.n.n.n.n.8 C  .a.a...m w y w n.n.n.n.n.n.n.n.n.n.n.n.n.n.",
"n.n.n.n.n.n.n.n.n.n.n.n.n.n.= $ $ 3 J _ _ _ ( } q.r.p.w.8.] b 6 n.n.n.n.n.n.n.n.4 g E { { F 9 # # $ n.n.n.n.n.n.n.n.n.n.n.n.n.n.",
"n.n.n.n.n.n.n.n.n.n.n.n.n.n.n.n.% ; 0 y y w w v ..a.a.:.K b n.n.n.n.n.n.n.n.n.n.; < 0 y y 0 ; $ n.n.n.n.n.n.n.n.n.n.n.n.n.n.n.n.",
"n.n.n.n.n.n.n.n.n.n.n.n.n.n.n.n.= = $ $ $ $ # w L ` ` E z 6 n.n.n.n.n.n.n.n.n.n.= = $ $ $ $ = = n.n.n.n.n.n.n.n.n.n.n.n.n.n.n.n.",
"n.n.n.n.n.n.n.n.n.n.n.n.n.n.n.n.n.n.n.n.n.n.n.n.w y y y n.n.n.n.n.n.n.n.n.n.n.n.n.n.n.n.n.n.n.n.n.n.n.n.n.n.n.n.n.n.n.n.n.n.n.n.",
"n.n.n.n.n.n.n.n.n.n.n.n.n.n.n.n.n.n.n.n.n.n.n.n.% $ $ $ n.n.n.n.n.n.n.n.n.n.n.n.n.n.n.n.n.n.n.n.n.n.n.n.n.n.n.n.n.n.n.n.n.n.n.n."
};
