/* XPM */
static char *result[] = {
/* columns rows colors chars-per-pixel */
"64 64 121 2 ",
"   c black",
".  c #0B0B0C",
"X  c #070713",
"o  c #0B0A16",
"O  c #0C0C18",
"+  c #151622",
"@  c #171823",
"#  c #22252B",
"$  c #2B2B2B",
"%  c #202036",
"&  c #272A31",
"*  c #2A2D34",
"=  c #2C3037",
"-  c #2E3139",
";  c #333333",
":  c #30343C",
">  c #373839",
",  c #3B3B3B",
"<  c #222242",
"1  c #363B44",
"2  c #333649",
"3  c #3A3D4F",
"4  c #282750",
"5  c #2B2B53",
"6  c #3A3B65",
"7  c #37366D",
"8  c #38376E",
"9  c #39386E",
"0  c #3B3A70",
"q  c #4B4B4B",
"w  c #47496E",
"e  c #555C6A",
"r  c #414177",
"t  c #4A4C74",
"y  c #45467A",
"u  c #52557C",
"i  c #655F63",
"p  c #666063",
"a  c #64676D",
"s  c #6A6A6A",
"d  c #545785",
"f  c #56588A",
"g  c #585A8C",
"h  c #5E6192",
"j  c #727B8D",
"k  c #606494",
"l  c #63679A",
"z  c #778093",
"x  c #798296",
"c  c #7B8598",
"v  c #7E87A4",
"b  c #7F88A5",
"n  c #7B82AE",
"m  c #7E85B3",
"M  c gray56",
"N  c #969696",
"B  c gray60",
"V  c #848EAE",
"C  c #8A93BB",
"Z  c #97A3BC",
"A  c #99A6BF",
"S  c #A1AABD",
"D  c #B5B8BE",
"F  c #BDBDBD",
"G  c #8E97C0",
"H  c #9BA7C1",
"J  c #9CA9C2",
"K  c #A2AFCB",
"L  c #A4B2CD",
"P  c #A3AFD2",
"I  c #A7B5D0",
"U  c #A9B6D1",
"Y  c #A7B3D9",
"T  c #A8B4DA",
"R  c #ACB8DF",
"E  c #B2BCD0",
"W  c #AEBAE2",
"Q  c #B1BEE3",
"!  c #D79EC5",
"~  c #D09FD3",
"^  c #D9A0C5",
"/  c #C6B4C0",
"(  c #C8B5C1",
")  c #DCA8D6",
"_  c #E3ACD6",
"`  c #E8B0D6",
"'  c #B4C1E6",
"]  c #B6C3E9",
"[  c #BDCCEE",
"{  c #C2C2C2",
"}  c #CECECE",
"|  c #D2D3D3",
" . c #CCC7EF",
".. c #C0CFEF",
"X. c #C1D0EF",
"o. c #D1CAF0",
"O. c #C3D2F3",
"+. c #C7D7F9",
"@. c #CBD4F8",
"#. c #CBDCFC",
"$. c #DBD1F0",
"%. c #D8DEFB",
"&. c #CFE0FF",
"*. c #D3E2FE",
"=. c #D8E4FE",
"-. c #DBE9FF",
";. c #EFEFEF",
":. c #F0EFEF",
">. c #E9ECF2",
",. c #E2EBFD",
"<. c #F5E3F2",
"1. c #F8E6F2",
"2. c #FBE9F6",
"3. c #E7F0FF",
"4. c #EBF2FF",
"5. c #F2F2F2",
"6. c #F3F6FE",
"7. c #FCF6FA",
"8. c #F6F9FE",
"9. c #FFFFFF",
"0. c None",
/* pixels */
"0.0.0.0.0.0.0.0.0.0.0.0.0.0.0.0.0.0.0.0.0.0.0.0.0.0.0.0.0.0.0.0.0.0.0.0.0.0.0.0.0.0.0.0.0.0.0.0.0.0.0.0.0.0.0.0.0.0.0.0.0.0.0.0.",
"0.0.0.0.0.0.0.0.0.0.0.0.0.0.0.0.0.0.0.0.0.0.0.0.0.0.0.0.0.0.0.0.0.0.0.0.0.0.0.0.0.0.0.0.0.0.0.0.0.0.0.0.0.0.0.0.0.0.0.0.0.0.0.0.",
"0.0.0.0.0.0.0.0.0.0.0.0.0.0.0.0.0.0.0.0.0.0.0.0.0.0.0.0.0.0.0.0.0.0.0.0.0.0.0.0.0.0.0.0.0.0.0.0.0.0.0.0.0.0.0.0.0.0.0.0.0.0.0.0.",
"0.0.0.0.0.0.0.0.0.0.0.0.0.0.0.0.0.0.0.0.0.0.0.0.0.0.0.0.0.0.0.0.0.0.0.0.0.0.0.0.0.0.0.0.0.0.0.0.0.0.0.0.0.0.0.0.0.0.0.0.0.0.0.0.",
"0.0.0.0.0.0.0.0.0.0.0.0.0.0.0.0.0.0.0.0.0.0.0.0.0.0.0.0.0.0.0.0.0.0.0.0.0.0.0.0.0.0.0.0.0.0.0.0.0.0.0.0.0.0.0.0.0.0.0.0.0.0.0.0.",
"0.0.0.0.0.0.0.0.0.0.0.0.0.0.0.0.0.0.0.0.0.0.0.0.0.0.0.0.0.0.0.0.0.0.0.0.0.0.0.0.0.0.0.0.0.0.0.0.0.0.0.0.0.0.0.0.0.0.0.0.0.0.0.0.",
"0.0.0.0.0.0.0.0.0.0.0.0.0.0.0.0.0.0.0.0.0.0.0.0.0.0.0.0.0.0.0.0.0.0.0.0.0.0.0.0.0.0.0.0.0.0.0.0.0.0.0.0.0.0.0.0.0.0.0.0.0.0.0.0.",
"0.0.0.0.0.0.0.0.0.0.0.0.0.0.0.0.0.0.0.0.0.0.0.0.0.0.0.0.0.0.0.0.0.0.0.0.0.0.0.0.0.0.0.0.0.0.0.0.0.0.0.0.0.0.0.0.0.0.0.0.0.0.0.0.",
"0.0.0.0.0.0.0.0.0.0.0.0.0.0.0.0.0.0.0.0.0.0.0.0.0.0.0.0.0.0.0.0.0.0.0.0.0.0.0.0.0.0.0.0.0.0.0.0.0.0.0.0.0.0.0.0.0.0.0.0.0.0.0.0.",
"0.0.0.0.0.0.0.0.0.0.0.0.0.0.0.0.0.0.0.0.0.0.0.0.0.0.0.0.0.0.0.0.0.0.0.0.0.0.0.0.0.0.0.0.0.0.0.0.0.0.0.0.0.0.0.0.0.0.0.0.0.0.0.0.",
"0.0.0.0.0.0.0.0.0.0.0.0.0.0.0.0.0.0.0.0.0.0.0.0.0.0.0.0.0.0.0.0.0.0.0.0.0.0.0.0.0.0.0.0.0.0.0.0.0.0.0.0.0.0.0.0.0.0.0.0.0.0.0.0.",
"0.0.0.0.0.0.0.0.0.0.0.0.0.0.0.0.0.0.0.0.0.0.0.0.0.0.0.0.0.0.0.0.0.0.0.0.0.0.0.0.0.0.0.0.0.0.0.0.0.0.0.0.0.0.0.0.0.0.0.0.0.0.0.0.",
"0.0.0.0.0.0.0.0.0.0.0.0.0.0.0.0.0.0.0.0.0.0.0.0.0.0.0.0.0.0.0.0.0.0.0.0.0.0.0.0.0.0.0.0.0.0.0.0.0.0.0.0.0.0.0.0.0.0.0.0.0.0.0.0.",
"0.0.0.0.0.0.0.0.0.0.0.0.0.0.0.0.0.0.0.0.0.0.0.0.0.0.0.0.0.0.0.0.0.0.0.0.0.0.0.0.0.0.0.0.0.0.0.0.0.0.0.0.0.0.0.0.0.0.0.0.0.0.0.0.",
"0.0.0.0.0.0.0.0.0.0.0.0.0.0.0.0.0.0.0.0.0.0.0.0.0.0.0.0.0.0.0.0.0.0.0.0.0.0.0.0.0.0.0.0.0.0.0.0.0.0.0.0.0.0.0.0.0.0.0.0.0.0.0.0.",
"0.0.0.0.0.0.0.0.0.0.0.0.0.0.0.0.0.0.0.0.0.0.0.0.0.0.0.0.0.0.0.0.0.0.0.0.0.0.0.0.0.0.0.0.0.0.0.0.0.0.0.0.0.0.0.0.0.0.0.0.0.0.0.0.",
"0.0.0.0.0.0.0.0.0.0.0.0.0.0.0.0.0.0.0.0.0.0.0.0.0.0.0.0.0.0.0.0.0.0.0.0.0.0.0.0.0.0.0.0.0.0.0.0.0.0.0.0.0.0.0.0.0.0.0.0.0.0.0.0.",
"0.0.0.0.0.0.0.0.0.0.0.0.0.0.0.0.0.0.0.0.0.0.0.0.0.0.0.0.0.0.0.0.0.0.0.0.0.0.0.0.0.0.0.0.0.0.0.0.0.0.0.0.0.0.0.0.0.0.0.0.0.0.0.0.",
"0.0.0.0.0.0.0.0.0.0.0.0.0.0.0.0.0.0.0.0.0.0.0.0.0.0.0.0.0.0.0.0.0.0.0.0.0.0.0.0.0.0.0.0.0.0.0.0.0.0.0.0.0.0.0.0.0.0.0.0.0.0.0.0.",
"0.0.0.0.0.0.0.0.0.0.0.0.0.0.0.0.0.0.0.0.0.0.0.0.0.0.0.0.0.0.0.0.0.0.0.0.0.0.0.0.0.0.0.0.0.0.0.0.0.0.0.0.0.0.0.0.0.0.0.0.0.0.0.0.",
"0.0.0.0.0.0.0.0.0.0.0.0.0.0.0.0.0.0.0.0.0.0.0.0.0.0.0.0.0.0.                0.0.0.0.0.0.0.0.0.0.0.0.0.0.0.0.0.0.0.0.0.0.0.0.0.0.",
"0.0.0.0.0.0.0.0.0.0.0.0.0.0.0.0.0.0.0.0.0.0.0.0.0.0.0.0.0.0.> , , , q $ .   0.0.0.0.0.0.0.0.0.0.0.0.0.0.0.0.0.0.0.0.0.0.0.0.0.0.",
"0.0.0.0.0.0.0.0.0.0.0.0.0.0.0.0.0.0.0.0.0.0.0.0.          ; B { { { F M $       0.0.0.0.0.0.0.0.0.0.0.0.0.0.0.0.0.0.0.0.0.0.0.0.",
"0.0.0.0.0.0.0.0.0.0.0.0.0.0.0.0.0.0.0.0.0.0.0.0.> , , , > s | 9.9.9.9.| a - - * 0.0.0.0.0.0.0.0.0.0.0.0.0.0.0.0.0.0.0.0.0.0.0.0.",
"0.0.0.0.0.0.0.0.0.0.0.0.0.0.0.0.0.0.0.0.0.0.  ; N { { F F } 5.9.9.9.9.>.E A H c *       0.0.0.0.0.0.0.0.0.0.0.0.0.0.0.0.0.0.0.0.",
"0.0.0.0.0.0.0.0.0.0.0.0.0.0.0.0.0.0.0.0.0.0.; s | 9.9.9.9.9.9.9.9.9.9.8.,.-.*.I e = - = 0.0.0.0.0.0.0.0.0.0.0.0.0.0.0.0.0.0.0.0.",
"0.0.0.0.0.0.0.0.0.0.0.0.0.0.0.0.0.0.0.0.  ; N | 5.9.9.9.9.9.9.9.9.9.9.9.9.4.*.X.L Z A x =   0.0.0.0.0.0.0.0.0.0.0.0.0.0.0.0.0.0.",
"0.0.0.0.0.0.0.0.0.0.0.0.0.0.0.0.0.0.0.0.; s | 9.9.9.9.9.9.9.9.9.9.9.9.9.9.8.,.=.-.-.-.A -   0.0.0.0.0.0.0.0.0.0.0.0.0.0.0.0.0.0.",
"0.0.0.0.0.0.0.0.0.0.0.0.0.0.0.0.0.0.  > B | 5.9.9.9.9.9.9.9.9.9.9.9.9.9.9.9.6.6.8.4.-.A =   0.0.0.0.0.0.0.0.0.0.0.0.0.0.0.0.0.0.",
"0.0.0.0.0.0.0.0.0.0.0.0.0.0.0.0.0.0.  > { 9.9.9.9.9.9.9.9.9.9.9.9.9.9.9.9.9.9.9.9.8.-.L e * 0.0.0.0.0.0.0.0.0.0.0.0.0.0.0.0.0.0.",
"0.0.0.0.0.0.0.0.0.0.0.0.0.0.0.0.0.0.  > F 9.9.9.9.9.9.9.9.9.9.9.9.9.9.9.9.9.9.9.9.6.=.O.U c =   0.0.0.0.0.0.0.0.0.0.0.0.0.0.0.0.",
"0.0.0.0.0.0.0.0.0.0.0.0.0.0.0.0.0.0.; s } 9.9.9.9.9.9.9.9.9.9.9.9.9.9.9.9.9.9.9.9.6.=.#.*.A :   0.0.0.0.0.0.0.0.0.0.0.0.0.0.0.0.",
"0.0.0.0.0.0.0.0.0.0.0.0.0.0.0.0.  > B | 5.9.9.9.9.9.9.9.9.9.9.9.9.9.9.9.9.9.9.9.9.6.*.#.*.Z =   0.0.0.0.0.0.0.0.0.0.0.0.0.0.0.0.",
"0.0.0.0.0.0.0.0.0.0.0.0.0.0.0.0.  > { 9.9.9.9.9.9.9.9.9.9.9.9.9.9.9.9.9.9.9.9.9.9.8.,.*.#.L e * 0.0.0.0.0.0.0.0.0.0.0.0.0.0.0.0.",
"0.0.0.0.0.0.0.0.0.0.0.0.0.0.0.0.  > F 9.9.9.9.9.9.9.9.9.9.9.9.9.9.9.9.9.9.9.9.9.9.9.8.3.=...L A 0.0.0.0.0.0.0.0.0.0.0.0.0.0.0.0.",
"0.0.0.0.0.0.0.0.0.0.0.0.0.0.0.0.; s } 9.9.9.9.9.9.9.9.9.9.9.9.9.9.9.9.9.9.9.9.9.9.9.9.8.,.*.*...0.0.0.0.0.0.0.0.0.0.0.0.0.0.0.0.",
"0.0.0.0.0.0.0.0.0.0.0.0.0.0.  ; B | 5.9.9.9.9.9.9.9.9.9.9.9.9.9.9.9.9.9.9.9.9.9.9.9.9.9.8.4.-.K 1   0.0.0.0.0.0.0.0.0.0.0.0.0.0.",
"0.0.0.0.0.0.0.0.0.0.0.0.0.0.; s | 9.9.9.9.9.9.9.9.9.9.9.9.9.9.9.9.9.9.9.9.9.9.9.9.9.9.9.9.8.-.L e & 0.0.0.0.0.0.0.0.0.0.0.0.0.0.",
"0.0.0.0.0.0.0.0.0.0.0.0.  ; N | 5.9.9.9.9.9.9.9.9.9.9.9.9.9.9.9.9.9.9.9.9.9.9.9.9.9.9.9.9.6.=.[ L z &   0.0.0.0.0.0.0.0.0.0.0.0.",
"0.0.0.0.0.0.0.0.0.0.0.0.; s | 9.9.9.9.9.9.9.9.9.9.9.9.9.9.9.9.9.9.9.9.9.9.9.9.9.9.9.9.9.9.8.,.=.*.U e & 0.0.0.0.0.0.0.0.0.0.0.0.",
"0.0.0.0.0.0.0.0.0.0.0.0.F } 5.9.9.9.9.9.9.9.9.9.9.9.9.9.9.9.9.9.9.9.9.9.9.9.9.9.9.9.9.9.9.9.8.3.=.O.I x =   0.0.0.0.0.0.0.0.0.0.",
"0.0.0.0.0.0.0.0.0.0.0.0.5.9.9.9.9.9.9.5.} F F F F } ;.9.9.9.9.9.9.9.9.9.9.;.} F F } ;.9.9.9.8.3.*.#.*.H :   0.0.0.0.0.0.0.0.0.0.",
"0.0.0.0.0.0.0.0.0.0.  q } 9.9.9.9.9.9.} s ; ; ; ; p } 9.9.9.9.9.9.9.9.9.9.} s $ $ s } 9.9.6.,.*.#.*.*.A :   0.0.0.0.0.0.0.0.0.0.",
"0.0.0.0.0.0.0.0.0.0.  , F 9.9.9.9.9.2./ i ; ; ; ; s } 9.9.9.9.9.9.9.9.9.9.} s ; ; p ( 1.7.4.*.+.#.#.*.Z -   0.0.0.0.0.0.0.0.0.0.",
"0.0.0.0.0.0.0.0.0.0.  > F 9.9.9.9.1.` ! / F F F F } ;.9.9.9.9.9.9.9.9.9.9.:.} F F ( ^ ) $.*.#.#.#.#.*.Z =   0.0.0.0.0.0.0.0.0.0.",
"0.0.0.0.0.0.0.0.0.0.; s } 9.9.9.9.1._ ` 2.9.9.9.9.9.9.9.9.9.9.9.9.9.9.9.9.9.8.9.8.<.) ~  .#.#.#.#.#.&.L e * 0.0.0.0.0.0.0.0.0.0.",
"0.0.0.0.0.0.0.0.  > B | :.9.9.9.9.7.<.1.9.9.9.9.9.9.9.9.9.9.9.9.9.9.9.9.9.8.,.-.-.*.o. .@.#.#.#.#.#.#.X.U x =   0.0.0.0.0.0.0.0.",
"0.0.0.0.0.0.0.0.  , { 9.9.9.9.9.9.9.9.9.9.9.9.9.9.9.9.9.9.9.9.9.9.9.8.6.6.3.*.#.#.#.#.#.#.#.#.#.#.#.#.&.*.H :   0.0.0.0.0.0.0.0.",
"0.0.0.0.0.0.0.0.  , { 9.9.9.9.9.9.9.9.9.9.9.9.9.9.9.9.9.9.9.9.9.9.8.,.*.=.=.#.#.+.#.#.#.@.#.#.#.#.#.#.#.*.H -   0.0.0.0.0.0.0.0.",
"0.0.0.0.0.0.0.0.  > D 9.9.9.9.9.9.9.9.9.9.9.9.9.9.9.9.9.8.6.6.6.6.3.%.#.#.+.#.#.#.#.#.#.#.#.#.#.#.#.#.#.*.Z -   0.0.0.0.0.0.0.0.",
"0.0.0.0.0.0.      : S 3.9.9.9.9.9.9.9.9.9.9.9.9.9.9.9.6.,.*.*.=.=.*.#.#.#.#.#.#.#.#.#.+.#.#.#.#.#.#.#.#.*.Z =   0.0.0.0.0.0.0.0.",
"0.0.0.0.0.0.  . # e L =.3.6.6.6.6.6.6.6.6.6.6.6.6.6.6.3.%.#.+.#.#.+.#.#.+.#.+.#.#.#.#.#.#.#.+.#.#.#.#.#.#.L e $ 0.0.0.0.0.0.0.0.",
"0.0.0.0.0.0.  # j U O.#.*.*.=.=.=.=.=.=.=.=.=.*.=.=.=.*.#.#.+.#.+.#.#.#.+.#.#.#.#.#.#.+.#.#.#.#.#.#.#.#.#...U c &   0.0.0.0.0.0.",
"0.0.0.0.0.0.  : H *.*.#.#.#.#.#.+.#.#.+.#.#.+.#.#.#.+.#.#.#.#.#.#.#.+.#.#.#.#.#.#.#.#.#.#.+.#.#.#.#.#.#.#.#.*.I e & 0.0.0.0.0.0.",
"0.0.0.0.0.0.  : H *.#.#.#.+.+.#.+.#.#.+.+.#.+.#.+.#.+.#.#.#.+.#.+.#.#.#.#.#.#.#.#.#.#.#.#.#.#.#.#.#.#.#.#.#.#.O.U z &   0.0.0.0.",
"0.0.0.0.0.0.  : Z *.*.#.#.#.#.#.#.#.#.#.#.#.#.#.#.#.#.#.#.#.#.#.#.#.#.#.#.#.+.#.#.+.#.#.#.#.#.#.#.#.#.#.#.#.#.*.*.I e & 0.0.0.0.",
"0.0.0.0.0.0.  : H *.&.&.#.#.#.+.#.#.#.#.+.#.#.#.#.#.#.#.#.#.#.#.#.#.#.#.#.#.#.#.#.#.#.#.#.#.#.#.#.#.#.#.#.#.#.&.#.O.U x =   0.0.",
"0.0.0.0.0.0.  * b W W ' O.&.#.#.#.#.#.#.#.#.#.#.#.+.#.#.#.#.#.#.#.#.#.#.#.#.#.#.#.#.#.#.#.#.#.#.#.#.#.#.#.#.#.#.#.*.*.H -   0.0.",
"0.0.0.0.0.0.  @ t l h m ' &.&.#.#.#.#.#.#.#.#.+.#.#.#.#.#.#.#.#.#.#.#.#.#.#.#.#.#.#.#.#.#.#.#.#.#.#.#.#.#.#.#.&.&.*.*.Z :   0.0.",
"0.0.0.0.0.0.  O < 5 5 t C ] +.&.*.&.#.#.#.#.#.#.#.#.#.#.#.#.#.#.#.#.#.#.#.#.#.#.&.#.#.#.#.#.#.#.#.#.#.#.&.O.' Y T ] #.H :   0.0.",
"0.0.0.0.0.0.0.0.O O O % t m ] *.*.#.*.#.#.#.#.#.#.#.#.#.#.#.#.&.&.#.&.&.*.#.*.&.&.&.&.&.&.&.&.&.&.&.&.&.*.' n h h m [ J :   0.0.",
"0.0.0.0.0.0.0.0.      o < w b A A H P Q O.#.#.#.+.#.#.#.#.O.Q Y Y T T T Y T T Y T T Y Y Y Y Y T Y Y T T R G f 8 8 d V c -   0.0.",
"0.0.0.0.0.0.0.0.0.0.0.0.O @ & - : 3 u n Q #.#.#.#.#.#.#.#.' n h h k k k k k k k h k k k h k k k h k k k k g y 0 0 6 2 = 0.0.0.0.",
"0.0.0.0.0.0.0.0.0.0.0.0.          X 4 k R #.#.#.#.#.#.#.&.Y h 8 9 0 9 0 0 0 0 9 0 0 0 0 0 0 0 0 0 0 0 0 0 0 r r r 5 O   0.0.0.0."
};
