/* XPM */
static char *result[] = {
/* columns rows colors chars-per-pixel */
"64 64 10 1 ",
"  c #221C1A",
". c #2D212E",
"X c #73172D",
"o c #333941",
"O c #4A5462",
"+ c #B4202A",
"@ c #6D758D",
"# c #8B93AF",
"$ c #B3B9D1",
"% c None",
/* pixels */
"%%%%%%%%%%%%%%%%%%%%%%%%%%%%%%%%%%%%%%%%%%%%%%%%%%%%%%%%%%%%%%%%",
"%%%%%%%%%%%%%%%%%%%%%%%%%%%%%%%%%%%%%%%%%%%%%%%%%%%%%%%%%%%%%%%%",
"%%%%%%%%%%%%%%%%%%%%%%%%%%%%%%%%%%%%%%%%%%%%%%%%%%%%%%%%%%%%%%%%",
"%%%%%%%%%%%%%%%%%%%%%%%%%%%%%%%%%%%%%%%%%%%%%%%%%%%%%%%%%%%%%%%%",
"%%%%%%%%%%%%%%%%%%%%%%%%%%%        %%%%%%%%%%%%%%%%%%%%%%%%%%%%%",
"%%%%%%%%%%%%%%%%%%%%%%%%%%%        %%%%%%%%%%%%%%%%%%%%%%%%%%%%%",
"%%%%%%%%%%%%%%%%%%%%%%%%%  @@@@OOoo  %%%%%%%%%%%%%%%%%%%%%%%%%%%",
"%%%%%%%%%%%%%%%%%%%%%%%%%  @@@@OOoo  %%%%%%%%%%%%%%%%%%%%%%%%%%%",
"%%%%%%%%%%%%%%%%%%%%%%%  @@##$$OOOOOO  %%%%%%%%%%%%%%%%%%%%%%%%%",
"%%%%%%%%%%%%%%%%%%%%%%%  @@##$$OOOOOO  %%%%%%%%%%%%%%%%%%%%%%%%%",
"%%%%%%%%%%%%%%%%%%%%%  @@####$$OOOOOOoo  %%%%%%%%%%%%%%%%%%%%%%%",
"%%%%%%%%%%%%%%%%%%%%%  @@####$$OOOOOOoo  %%%%%%%%%%%%%%%%%%%%%%%",
"%%%%%%%%%%%%%%%%%%%%%  ######$$OOOOOOOO  %%%%%%%%%%%%%%%%%%%%%%%",
"%%%%%%%%%%%%%%%%%%%%%  ######$$OOOOOOOO  %%%%%%%%%%%%%%%%%%%%%%%",
"%%%%%%%%%%%%%%%%%%%%%  ######$$OOOOOOOO  %%%%%%%%%%%%%%%%%%%%%%%",
"%%%%%%%%%%%%%%%%%%%%%  ######$$OOOOOOOO  %%%%%%%%%%%%%%%%%%%%%%%",
"%%%%%%%%%%%%%%%%%%%  @@##$$$$$$OOOOOOOOoo  %%%%%%%%%%%%%%%%%%%%%",
"%%%%%%%%%%%%%%%%%%%  @@##$$$$$$OOOOOOOOoo  %%%%%%%%%%%%%%%%%%%%%",
"%%%%%%%%%%%%%%%%%%%  @@@@            oooo  %%%%%%%%%%%%%%%%%%%%%",
"%%%%%%%%%%%%%%%%%%%  @@@@            oooo  %%%%%%%%%%%%%%%%%%%%%",
"%%%%%%%%%%%%%%%%%%%%%  @@######OOOOOOoo  %%%%%%%%%%%%%%%%%%%%%%%",
"%%%%%%%%%%%%%%%%%%%%%  @@######OOOOOOoo  %%%%%%%%%%%%%%%%%%%%%%%",
"%%%%%%%%%%%%%%%%%%%%%    @@@@    oooo    %%%%%%%%%%%%%%%%%%%%%%%",
"%%%%%%%%%%%%%%%%%%%%%    @@@@    oooo    %%%%%%%%%%%%%%%%%%%%%%%",
"%%%%%%%%%%%%%%%%%%%$$##@@  @@##OOoo  @@##$$%%%%%%%%%%%%%%%%%%%%%",
"%%%%%%%%%%%%%%%%%%%$$##@@  @@##OOoo  @@##$$%%%%%%%%%%%%%%%%%%%%%",
"%%%%%%%%%%%%%%%%%%%####@@OO        OO@@####%%%%%%%%%%%%%%%%%%%%%",
"%%%%%%%%%%%%%%%%%%%####@@OO        OO@@####%%%%%%%%%%%%%%%%%%%%%",
"%%%%%%%%%%%%%%%%%  @@@@OO@@@@@@@@@@@@OO@@@@  %%%%%%%%%%%%%%%%%%%",
"%%%%%%%%%%%%%%%%%  @@@@OO@@@@@@@@@@@@OO@@@@  %%%%%%%%%%%%%%%%%%%",
"%%%%%%%%%%%%%%%%%  ooooXX@@##$$$$##@@XXoooo  %%%%%%%%%%%%%%%%%%%",
"%%%%%%%%%%%%%%%%%  ooooXX@@##$$$$##@@XXoooo  %%%%%%%%%%%%%%%%%%%",
"%%%%%%%%%%%%%%%  ooOOoo  XX++++++++XX  ooOOoo  %%%%%%%%%%%%%%%%%",
"%%%%%%%%%%%%%%%  ooOOoo  XX++++++++XX  ooOOoo  %%%%%%%%%%%%%%%%%",
"%%%%%%%%%%%%%%%  OOooOO  XXXXXXXXXXXX  OOooOO  %%%%%%%%%%%%%%%%%",
"%%%%%%%%%%%%%%%  OOooOO  XXXXXXXXXXXX  OOooOO  %%%%%%%%%%%%%%%%%",
"%%%%%%%%%%%%%%%  ooOOoo  XXXXXXXXXXXX  ooOOoo  %%%%%%%%%%%%%%%%%",
"%%%%%%%%%%%%%%%  ooOOoo  XXXXXXXXXXXX  ooOOoo  %%%%%%%%%%%%%%%%%",
"%%%%%%%%%%%%%%%  ##$$$$@@  @@$$$$@@  @@$$$$##  %%%%%%%%%%%%%%%%%",
"%%%%%%%%%%%%%%%  ##$$$$@@  @@$$$$@@  @@$$$$##  %%%%%%%%%%%%%%%%%",
"%%%%%%%%%%%%%%%  @@$$$$##  XXXXXXXX  ##$$$$@@  %%%%%%%%%%%%%%%%%",
"%%%%%%%%%%%%%%%  @@$$$$##  XXXXXXXX  ##$$$$@@  %%%%%%%%%%%%%%%%%",
"%%%%%%%%%%%%%%%%%  OO@@  ooXX++++XXoo  @@OO  %%%%%%%%%%%%%%%%%%%",
"%%%%%%%%%%%%%%%%%  OO@@  ooXX++++XXoo  @@OO  %%%%%%%%%%%%%%%%%%%",
"%%%%%%%%%%%%%%%%%%%    ooooXX++++XXoooo    %%%%%%%%%%%%%%%%%%%%%",
"%%%%%%%%%%%%%%%%%%%    ooooXX++++XXoooo    %%%%%%%%%%%%%%%%%%%%%",
"%%%%%%%%%%%%%%%%%%%%%  oooooo    oooooo  %%%%%%%%%%%%%%%%%%%%%%%",
"%%%%%%%%%%%%%%%%%%%%%  oooooo    oooooo  %%%%%%%%%%%%%%%%%%%%%%%",
"%%%%%%%%%%%%%%%%%%%..  oooooo    oooooo  ..%%%%%%%%%%%%%%%%%%%%%",
"%%%%%%%%%%%%%%%%%%%..  oooooo    oooooo  ..%%%%%%%%%%%%%%%%%%%%%",
"%%%%%%%%%%%%%%%%%....  OO##OO    OO##OO  ....%%%%%%%%%%%%%%%%%%%",
"%%%%%%%%%%%%%%%%%....  OO##OO    OO##OO  ....%%%%%%%%%%%%%%%%%%%",
"%%%%%%%%%%%%%%%%%....  @@$$@@    @@$$@@  ....%%%%%%%%%%%%%%%%%%%",
"%%%%%%%%%%%%%%%%%....  @@$$@@    @@$$@@  ....%%%%%%%%%%%%%%%%%%%",
"%%%%%%%%%%%%%%%%%......      ....      ......%%%%%%%%%%%%%%%%%%%",
"%%%%%%%%%%%%%%%%%......      ....      ......%%%%%%%%%%%%%%%%%%%",
"%%%%%%%%%%%%%%%%%%%........................%%%%%%%%%%%%%%%%%%%%%",
"%%%%%%%%%%%%%%%%%%%........................%%%%%%%%%%%%%%%%%%%%%",
"%%%%%%%%%%%%%%%%%%%%%....................%%%%%%%%%%%%%%%%%%%%%%%",
"%%%%%%%%%%%%%%%%%%%%%....................%%%%%%%%%%%%%%%%%%%%%%%",
"%%%%%%%%%%%%%%%%%%%%%%%%%%%%%%%%%%%%%%%%%%%%%%%%%%%%%%%%%%%%%%%%",
"%%%%%%%%%%%%%%%%%%%%%%%%%%%%%%%%%%%%%%%%%%%%%%%%%%%%%%%%%%%%%%%%",
"%%%%%%%%%%%%%%%%%%%%%%%%%%%%%%%%%%%%%%%%%%%%%%%%%%%%%%%%%%%%%%%%",
"%%%%%%%%%%%%%%%%%%%%%%%%%%%%%%%%%%%%%%%%%%%%%%%%%%%%%%%%%%%%%%%%"
};
